<?xml version="1.0"?>
<!--?xml version="1.0" encoding="utf-8"?-->
<!-- Generator: Adobe Illustrator 18.1.1, SVG Export Plug-In . SVG Version: 6.00 Build 0)  -->
<svg version="1.1" id="Layer_1" xmlns="http://www.w3.org/2000/svg" xmlns:xlink="http://www.w3.org/1999/xlink" x="0px" y="0px" width="841.9px" height="595.3px" viewBox="0 0 841.9 595.3" enable-background="new 0 0 841.9 595.3" xml:space="preserve">
<g>
	<g id="canvas_2_">
		<rect x="216.7" y="337.7" fill="#EADCC5" width="196.6" height="137.6"></rect>
		<path fill="#8D5833" d="M417.1,333.8H212.7v145.5H279l-24,63.1c-1.9,5.1-1,10.1,2.2,11.3c3.1,1.2,7.2-2,9.2-7
			c0,0,19-49.8,25.7-67.4h45.9l25.7,67.4c1.9,5.1,6,8.2,9.2,7c3.1-1.2,4.1-6.3,2.2-11.3l-24-63.1h66.3V333.8z M409.3,471.4h-61.4
			H335h-40.2H282h-61.4h-0.1V341.6h0.1h188.7V471.4z"></path>
	</g>
	<g opacity="0.5">
		<g enable-background="new    ">
			<path fill="#8D5833" d="M255.6,464.4h-1.1v-6.8c-0.3,0.2-0.6,0.5-1,0.7c-0.4,0.2-0.8,0.4-1.1,0.5v-1c0.6-0.3,1.1-0.6,1.6-1
				c0.4-0.4,0.8-0.8,0.9-1.2h0.7V464.4z"></path>
			<path fill="#8D5833" d="M258.2,462.6l1-0.2c0.1,0.4,0.2,0.7,0.5,1c0.3,0.2,0.6,0.3,1.1,0.3c0.5,0,0.8-0.1,1.1-0.3
				c0.2-0.2,0.4-0.4,0.4-0.7c0-0.2-0.1-0.4-0.3-0.6c-0.1-0.1-0.5-0.2-1.1-0.4c-0.8-0.2-1.3-0.4-1.6-0.5c-0.3-0.1-0.5-0.3-0.7-0.6
				c-0.2-0.3-0.2-0.5-0.2-0.8c0-0.3,0.1-0.5,0.2-0.8c0.1-0.2,0.3-0.4,0.5-0.6c0.2-0.1,0.4-0.2,0.7-0.3c0.3-0.1,0.6-0.1,0.9-0.1
				c0.5,0,0.9,0.1,1.3,0.2c0.4,0.1,0.6,0.3,0.8,0.6c0.2,0.2,0.3,0.6,0.4,1l-1,0.1c0-0.3-0.2-0.6-0.4-0.8c-0.2-0.2-0.5-0.3-1-0.3
				c-0.5,0-0.8,0.1-1,0.2c-0.2,0.2-0.3,0.3-0.3,0.6c0,0.1,0,0.3,0.1,0.4c0.1,0.1,0.2,0.2,0.4,0.3c0.1,0,0.4,0.1,0.9,0.3
				c0.8,0.2,1.3,0.4,1.6,0.5c0.3,0.1,0.5,0.3,0.7,0.6c0.2,0.2,0.3,0.5,0.3,0.9c0,0.4-0.1,0.7-0.3,1c-0.2,0.3-0.5,0.6-0.9,0.7
				c-0.4,0.2-0.8,0.3-1.3,0.3c-0.8,0-1.4-0.2-1.9-0.5C258.6,463.7,258.3,463.2,258.2,462.6z"></path>
			<path fill="#8D5833" d="M266.9,463.5l0.2,0.9c-0.3,0.1-0.6,0.1-0.8,0.1c-0.4,0-0.7-0.1-0.9-0.2c-0.2-0.1-0.4-0.3-0.4-0.5
				c-0.1-0.2-0.1-0.6-0.1-1.3V459H264v-0.8h0.8v-1.6l1.1-0.6v2.2h1.1v0.8h-1.1v3.7c0,0.3,0,0.5,0.1,0.6c0,0.1,0.1,0.2,0.2,0.2
				c0.1,0.1,0.2,0.1,0.4,0.1C266.6,463.5,266.8,463.5,266.9,463.5z"></path>
		</g>
		<g enable-background="new    ">
			<path fill="#8D5833" d="M307.5,463.4v1h-5.7c0-0.3,0-0.5,0.1-0.7c0.1-0.4,0.4-0.8,0.7-1.1c0.3-0.4,0.8-0.8,1.4-1.3
				c0.9-0.8,1.6-1.4,1.9-1.8c0.3-0.4,0.5-0.9,0.5-1.3c0-0.4-0.2-0.8-0.5-1.1c-0.3-0.3-0.7-0.4-1.2-0.4c-0.5,0-0.9,0.2-1.2,0.5
				c-0.3,0.3-0.5,0.7-0.5,1.3l-1.1-0.1c0.1-0.8,0.4-1.4,0.8-1.9c0.5-0.4,1.1-0.6,2-0.6c0.8,0,1.5,0.2,2,0.7c0.5,0.5,0.7,1,0.7,1.7
				c0,0.3-0.1,0.7-0.2,1c-0.1,0.3-0.4,0.7-0.7,1.1c-0.3,0.4-0.9,0.9-1.6,1.5c-0.6,0.5-1,0.9-1.2,1.1c-0.2,0.2-0.3,0.4-0.4,0.6H307.5
				z"></path>
			<path fill="#8D5833" d="M308.9,464.4v-6.3h1v0.9c0.5-0.7,1.1-1,2-1c0.4,0,0.7,0.1,1,0.2c0.3,0.1,0.6,0.3,0.7,0.5
				c0.2,0.2,0.3,0.5,0.3,0.8c0,0.2,0.1,0.5,0.1,1v3.8h-1.1v-3.8c0-0.4,0-0.8-0.1-1c-0.1-0.2-0.2-0.4-0.4-0.5
				c-0.2-0.1-0.5-0.2-0.7-0.2c-0.5,0-0.8,0.1-1.2,0.4c-0.3,0.3-0.5,0.8-0.5,1.6v3.4H308.9z"></path>
			<path fill="#8D5833" d="M319.7,464.4v-0.8c-0.4,0.6-1,0.9-1.8,0.9c-0.5,0-1-0.1-1.4-0.4c-0.4-0.3-0.7-0.7-1-1.2
				c-0.2-0.5-0.3-1.1-0.3-1.7c0-0.6,0.1-1.2,0.3-1.7c0.2-0.5,0.5-0.9,0.9-1.2c0.4-0.3,0.9-0.4,1.4-0.4c0.4,0,0.7,0.1,1,0.2
				c0.3,0.2,0.5,0.4,0.7,0.6v-3.1h1.1v8.6H319.7z M316.3,461.3c0,0.8,0.2,1.4,0.5,1.8c0.3,0.4,0.7,0.6,1.2,0.6
				c0.5,0,0.9-0.2,1.2-0.6c0.3-0.4,0.5-1,0.5-1.7c0-0.9-0.2-1.5-0.5-1.9c-0.3-0.4-0.7-0.6-1.2-0.6c-0.5,0-0.9,0.2-1.2,0.6
				C316.5,459.9,316.3,460.5,316.3,461.3z"></path>
		</g>
		<g enable-background="new    ">
			<path fill="#8D5833" d="M352.2,462.1l1.1-0.1c0.1,0.6,0.3,1,0.6,1.3c0.3,0.3,0.6,0.4,1.1,0.4c0.5,0,0.9-0.2,1.3-0.5
				c0.3-0.3,0.5-0.8,0.5-1.3c0-0.5-0.2-0.9-0.5-1.2c-0.3-0.3-0.7-0.5-1.2-0.5c-0.2,0-0.4,0-0.7,0.1l0.1-0.9c0.1,0,0.1,0,0.2,0
				c0.5,0,0.9-0.1,1.2-0.4c0.4-0.2,0.5-0.6,0.5-1.1c0-0.4-0.1-0.7-0.4-1c-0.3-0.3-0.6-0.4-1-0.4c-0.4,0-0.8,0.1-1,0.4
				c-0.3,0.3-0.5,0.6-0.5,1.2l-1.1-0.2c0.1-0.7,0.4-1.3,0.9-1.7c0.5-0.4,1-0.6,1.7-0.6c0.5,0,0.9,0.1,1.3,0.3
				c0.4,0.2,0.7,0.5,0.9,0.8c0.2,0.3,0.3,0.7,0.3,1.1c0,0.4-0.1,0.7-0.3,1c-0.2,0.3-0.5,0.6-0.9,0.7c0.5,0.1,0.9,0.4,1.2,0.7
				c0.3,0.4,0.4,0.8,0.4,1.4c0,0.8-0.3,1.4-0.8,1.9c-0.6,0.5-1.2,0.8-2.1,0.8c-0.8,0-1.4-0.2-1.9-0.7
				C352.5,463.4,352.3,462.9,352.2,462.1z"></path>
			<path fill="#8D5833" d="M359.2,464.4v-6.3h1v0.9c0.2-0.4,0.5-0.7,0.7-0.9c0.2-0.1,0.4-0.2,0.7-0.2c0.4,0,0.7,0.1,1.1,0.3l-0.4,1
				c-0.3-0.2-0.5-0.2-0.8-0.2c-0.2,0-0.4,0.1-0.6,0.2c-0.2,0.1-0.3,0.3-0.4,0.6c-0.1,0.4-0.2,0.8-0.2,1.2v3.3H359.2z"></path>
			<path fill="#8D5833" d="M367.3,464.4v-0.8c-0.4,0.6-1,0.9-1.8,0.9c-0.5,0-1-0.1-1.4-0.4c-0.4-0.3-0.7-0.7-1-1.2
				c-0.2-0.5-0.3-1.1-0.3-1.7c0-0.6,0.1-1.2,0.3-1.7c0.2-0.5,0.5-0.9,0.9-1.2c0.4-0.3,0.9-0.4,1.4-0.4c0.4,0,0.7,0.1,1,0.2
				c0.3,0.2,0.5,0.4,0.7,0.6v-3.1h1.1v8.6H367.3z M363.9,461.3c0,0.8,0.2,1.4,0.5,1.8c0.3,0.4,0.7,0.6,1.2,0.6
				c0.5,0,0.9-0.2,1.2-0.6c0.3-0.4,0.5-1,0.5-1.7c0-0.9-0.2-1.5-0.5-1.9c-0.3-0.4-0.7-0.6-1.2-0.6c-0.5,0-0.9,0.2-1.2,0.6
				C364.1,459.9,363.9,460.5,363.9,461.3z"></path>
		</g>
		<g enable-background="new    ">
			<path fill="#8D5833" d="M230,447.3H229v-6.8c-0.3,0.2-0.6,0.5-1,0.7c-0.4,0.2-0.8,0.4-1.1,0.5v-1c0.6-0.3,1.1-0.6,1.6-1
				c0.4-0.4,0.8-0.8,0.9-1.2h0.7V447.3z"></path>
			<path fill="#8D5833" d="M233,447.3v-6.3h0.9v0.9c0.2-0.3,0.5-0.6,0.8-0.7c0.3-0.2,0.7-0.3,1.1-0.3c0.5,0,0.8,0.1,1.1,0.3
				c0.3,0.2,0.5,0.5,0.6,0.8c0.5-0.7,1.1-1.1,1.9-1.1c0.6,0,1.1,0.2,1.4,0.5c0.3,0.3,0.5,0.9,0.5,1.6v4.3h-1.1v-3.9
				c0-0.4,0-0.7-0.1-0.9s-0.2-0.3-0.4-0.5c-0.2-0.1-0.4-0.2-0.6-0.2c-0.4,0-0.8,0.1-1.1,0.4c-0.3,0.3-0.4,0.8-0.4,1.4v3.6h-1.1v-4.1
				c0-0.5-0.1-0.8-0.3-1.1c-0.2-0.2-0.5-0.4-0.8-0.4c-0.3,0-0.6,0.1-0.8,0.2c-0.3,0.2-0.4,0.4-0.6,0.7c-0.1,0.3-0.2,0.7-0.2,1.3v3.2
				H233z"></path>
			<path fill="#8D5833" d="M243.4,447.3v-1.2h1.2v1.2H243.4z"></path>
		</g>
		<g enable-background="new    ">
			<path fill="#8D5833" d="M231.6,429.2v1h-5.7c0-0.3,0-0.5,0.1-0.7c0.1-0.4,0.4-0.8,0.7-1.1c0.3-0.4,0.8-0.8,1.4-1.3
				c0.9-0.8,1.6-1.4,1.9-1.8c0.3-0.4,0.5-0.9,0.5-1.3c0-0.4-0.2-0.8-0.5-1.1c-0.3-0.3-0.7-0.4-1.2-0.4c-0.5,0-0.9,0.2-1.2,0.5
				c-0.3,0.3-0.5,0.7-0.5,1.3l-1.1-0.1c0.1-0.8,0.4-1.4,0.8-1.9c0.5-0.4,1.1-0.6,2-0.6c0.8,0,1.5,0.2,2,0.7c0.5,0.5,0.7,1,0.7,1.7
				c0,0.3-0.1,0.7-0.2,1c-0.1,0.3-0.4,0.7-0.7,1.1c-0.3,0.4-0.9,0.9-1.6,1.5c-0.6,0.5-1,0.9-1.2,1.1c-0.2,0.2-0.3,0.4-0.4,0.6H231.6
				z"></path>
			<path fill="#8D5833" d="M233,430.2V424h0.9v0.9c0.2-0.3,0.5-0.6,0.8-0.7c0.3-0.2,0.7-0.3,1.1-0.3c0.5,0,0.8,0.1,1.1,0.3
				c0.3,0.2,0.5,0.5,0.6,0.8c0.5-0.7,1.1-1.1,1.9-1.1c0.6,0,1.1,0.2,1.4,0.5c0.3,0.3,0.5,0.9,0.5,1.6v4.3h-1.1v-3.9
				c0-0.4,0-0.7-0.1-0.9c-0.1-0.2-0.2-0.3-0.4-0.5c-0.2-0.1-0.4-0.2-0.6-0.2c-0.4,0-0.8,0.1-1.1,0.4c-0.3,0.3-0.4,0.8-0.4,1.4v3.6
				h-1.1v-4.1c0-0.5-0.1-0.8-0.3-1.1c-0.2-0.2-0.5-0.4-0.8-0.4c-0.3,0-0.6,0.1-0.8,0.2c-0.3,0.2-0.4,0.4-0.6,0.7
				c-0.1,0.3-0.2,0.7-0.2,1.3v3.2H233z"></path>
			<path fill="#8D5833" d="M243.4,430.2V429h1.2v1.2H243.4z"></path>
		</g>
		<g enable-background="new    ">
			<path fill="#8D5833" d="M226,410.8l1.1-0.1c0.1,0.6,0.3,1,0.6,1.3c0.3,0.3,0.6,0.4,1.1,0.4c0.5,0,0.9-0.2,1.3-0.5
				s0.5-0.8,0.5-1.3c0-0.5-0.2-0.9-0.5-1.2c-0.3-0.3-0.7-0.5-1.2-0.5c-0.2,0-0.4,0-0.7,0.1l0.1-0.9c0.1,0,0.1,0,0.2,0
				c0.5,0,0.9-0.1,1.2-0.4c0.4-0.2,0.5-0.6,0.5-1.1c0-0.4-0.1-0.7-0.4-1c-0.3-0.3-0.6-0.4-1-0.4c-0.4,0-0.8,0.1-1,0.4
				c-0.3,0.3-0.5,0.6-0.5,1.2l-1.1-0.2c0.1-0.7,0.4-1.3,0.9-1.7c0.5-0.4,1-0.6,1.7-0.6c0.5,0,0.9,0.1,1.3,0.3
				c0.4,0.2,0.7,0.5,0.9,0.8c0.2,0.3,0.3,0.7,0.3,1.1c0,0.4-0.1,0.7-0.3,1c-0.2,0.3-0.5,0.6-0.9,0.7c0.5,0.1,0.9,0.4,1.2,0.7
				c0.3,0.4,0.4,0.8,0.4,1.4c0,0.8-0.3,1.4-0.8,1.9c-0.6,0.5-1.2,0.8-2.1,0.8c-0.8,0-1.4-0.2-1.9-0.7
				C226.4,412.1,226.1,411.6,226,410.8z"></path>
			<path fill="#8D5833" d="M233,413.1v-6.3h0.9v0.9c0.2-0.3,0.5-0.6,0.8-0.7c0.3-0.2,0.7-0.3,1.1-0.3c0.5,0,0.8,0.1,1.1,0.3
				c0.3,0.2,0.5,0.5,0.6,0.8c0.5-0.7,1.1-1.1,1.9-1.1c0.6,0,1.1,0.2,1.4,0.5c0.3,0.3,0.5,0.9,0.5,1.6v4.3h-1.1v-3.9
				c0-0.4,0-0.7-0.1-0.9s-0.2-0.3-0.4-0.5c-0.2-0.1-0.4-0.2-0.6-0.2c-0.4,0-0.8,0.1-1.1,0.4c-0.3,0.3-0.4,0.8-0.4,1.4v3.6h-1.1v-4.1
				c0-0.5-0.1-0.8-0.3-1.1c-0.2-0.2-0.5-0.4-0.8-0.4c-0.3,0-0.6,0.1-0.8,0.2c-0.3,0.2-0.4,0.4-0.6,0.7c-0.1,0.3-0.2,0.7-0.2,1.3v3.2
				H233z"></path>
			<path fill="#8D5833" d="M243.4,413.1v-1.2h1.2v1.2H243.4z"></path>
		</g>
		<g enable-background="new    ">
			<path fill="#8D5833" d="M229.4,396V394h-3.7v-1l3.9-5.6h0.9v5.6h1.2v1h-1.2v2.1H229.4z M229.4,393v-3.9l-2.7,3.9H229.4z"></path>
			<path fill="#8D5833" d="M233,396v-6.3h0.9v0.9c0.2-0.3,0.5-0.6,0.8-0.7c0.3-0.2,0.7-0.3,1.1-0.3c0.5,0,0.8,0.1,1.1,0.3
				c0.3,0.2,0.5,0.5,0.6,0.8c0.5-0.7,1.1-1.1,1.9-1.1c0.6,0,1.1,0.2,1.4,0.5c0.3,0.3,0.5,0.9,0.5,1.6v4.3h-1.1v-3.9
				c0-0.4,0-0.7-0.1-0.9s-0.2-0.3-0.4-0.5c-0.2-0.1-0.4-0.2-0.6-0.2c-0.4,0-0.8,0.1-1.1,0.4c-0.3,0.3-0.4,0.8-0.4,1.4v3.6h-1.1V392
				c0-0.5-0.1-0.8-0.3-1.1c-0.2-0.2-0.5-0.4-0.8-0.4c-0.3,0-0.6,0.1-0.8,0.2c-0.3,0.2-0.4,0.4-0.6,0.7c-0.1,0.3-0.2,0.7-0.2,1.3v3.2
				H233z"></path>
			<path fill="#8D5833" d="M243.4,396v-1.2h1.2v1.2H243.4z"></path>
		</g>
		<g enable-background="new    ">
			<path fill="#8D5833" d="M226,376.7l1.1-0.1c0.1,0.5,0.3,1,0.6,1.2c0.3,0.3,0.7,0.4,1.1,0.4c0.5,0,0.9-0.2,1.3-0.6
				c0.4-0.4,0.5-0.9,0.5-1.5c0-0.6-0.2-1.1-0.5-1.4s-0.8-0.5-1.3-0.5c-0.3,0-0.7,0.1-0.9,0.2c-0.3,0.2-0.5,0.4-0.6,0.6l-1-0.1
				l0.8-4.4h4.3v1h-3.4l-0.5,2.3c0.5-0.4,1.1-0.5,1.6-0.5c0.8,0,1.4,0.3,1.9,0.8c0.5,0.5,0.8,1.2,0.8,2c0,0.8-0.2,1.5-0.7,2
				c-0.6,0.7-1.3,1-2.3,1c-0.8,0-1.4-0.2-1.9-0.7C226.4,378,226.1,377.4,226,376.7z"></path>
			<path fill="#8D5833" d="M233,378.9v-6.3h0.9v0.9c0.2-0.3,0.5-0.6,0.8-0.7c0.3-0.2,0.7-0.3,1.1-0.3c0.5,0,0.8,0.1,1.1,0.3
				c0.3,0.2,0.5,0.5,0.6,0.8c0.5-0.7,1.1-1.1,1.9-1.1c0.6,0,1.1,0.2,1.4,0.5c0.3,0.3,0.5,0.9,0.5,1.6v4.3h-1.1V375
				c0-0.4,0-0.7-0.1-0.9c-0.1-0.2-0.2-0.3-0.4-0.5c-0.2-0.1-0.4-0.2-0.6-0.2c-0.4,0-0.8,0.1-1.1,0.4c-0.3,0.3-0.4,0.8-0.4,1.4v3.6
				h-1.1v-4.1c0-0.5-0.1-0.8-0.3-1.1c-0.2-0.2-0.5-0.4-0.8-0.4c-0.3,0-0.6,0.1-0.8,0.2c-0.3,0.2-0.4,0.4-0.6,0.7
				c-0.1,0.3-0.2,0.7-0.2,1.3v3.2H233z"></path>
			<path fill="#8D5833" d="M243.4,378.9v-1.2h1.2v1.2H243.4z"></path>
		</g>
		<g enable-background="new    ">
			<path fill="#8D5833" d="M231.5,355.3l-1.1,0.1c-0.1-0.4-0.2-0.7-0.4-0.9c-0.3-0.3-0.6-0.5-1.1-0.5c-0.3,0-0.6,0.1-0.9,0.3
				c-0.3,0.2-0.6,0.6-0.8,1.1c-0.2,0.5-0.3,1.1-0.3,2c0.3-0.4,0.6-0.7,0.9-0.9c0.4-0.2,0.8-0.3,1.2-0.3c0.7,0,1.3,0.3,1.8,0.8
				c0.5,0.5,0.7,1.2,0.7,2c0,0.5-0.1,1-0.4,1.5c-0.2,0.5-0.6,0.8-1,1.1c-0.4,0.2-0.9,0.4-1.4,0.4c-0.9,0-1.6-0.3-2.2-1
				c-0.6-0.7-0.8-1.7-0.8-3.2c0-1.7,0.3-2.9,0.9-3.6c0.5-0.7,1.3-1,2.2-1c0.7,0,1.2,0.2,1.7,0.6
				C231.2,354.1,231.4,354.6,231.5,355.3z M227.2,359c0,0.4,0.1,0.7,0.2,1c0.2,0.3,0.4,0.6,0.7,0.8c0.3,0.2,0.6,0.3,0.9,0.3
				c0.4,0,0.8-0.2,1.2-0.5c0.3-0.4,0.5-0.9,0.5-1.5c0-0.6-0.2-1.1-0.5-1.4c-0.3-0.3-0.7-0.5-1.2-0.5c-0.5,0-0.9,0.2-1.2,0.5
				C227.4,358,227.2,358.5,227.2,359z"></path>
			<path fill="#8D5833" d="M233,361.8v-6.3h0.9v0.9c0.2-0.3,0.5-0.6,0.8-0.7c0.3-0.2,0.7-0.3,1.1-0.3c0.5,0,0.8,0.1,1.1,0.3
				c0.3,0.2,0.5,0.5,0.6,0.8c0.5-0.7,1.1-1.1,1.9-1.1c0.6,0,1.1,0.2,1.4,0.5c0.3,0.3,0.5,0.9,0.5,1.6v4.3h-1.1v-3.9
				c0-0.4,0-0.7-0.1-0.9s-0.2-0.3-0.4-0.5c-0.2-0.1-0.4-0.2-0.6-0.2c-0.4,0-0.8,0.1-1.1,0.4c-0.3,0.3-0.4,0.8-0.4,1.4v3.6h-1.1v-4.1
				c0-0.5-0.1-0.8-0.3-1.1c-0.2-0.2-0.5-0.4-0.8-0.4c-0.3,0-0.6,0.1-0.8,0.2c-0.3,0.2-0.4,0.4-0.6,0.7c-0.1,0.3-0.2,0.7-0.2,1.3v3.2
				H233z"></path>
			<path fill="#8D5833" d="M243.4,361.8v-1.2h1.2v1.2H243.4z"></path>
		</g>
	</g>
	<g opacity="0.2">
		<line fill="none" stroke="#8D5833" stroke-miterlimit="10" stroke-dasharray="2" x1="252.9" y1="348.4" x2="252.9" y2="451"></line>
		<line fill="none" stroke="#8D5833" stroke-miterlimit="10" stroke-dasharray="2" x1="404.2" y1="365.3" x2="253.3" y2="365.3"></line>
		<line fill="none" stroke="#8D5833" stroke-miterlimit="10" stroke-dasharray="2" x1="404" y1="433.5" x2="253.1" y2="433.5"></line>
		<line fill="none" stroke="#8D5833" stroke-miterlimit="10" stroke-dasharray="2" x1="404" y1="450.8" x2="253.1" y2="450.8"></line>
		<line fill="none" stroke="#8D5833" stroke-miterlimit="10" stroke-dasharray="2" x1="404.2" y1="399.3" x2="253.3" y2="399.3"></line>
		<line fill="none" stroke="#8D5833" stroke-miterlimit="10" stroke-dasharray="2" x1="404" y1="382.6" x2="253.1" y2="382.6"></line>
		<line fill="none" stroke="#8D5833" stroke-miterlimit="10" stroke-dasharray="2" x1="404" y1="416.9" x2="253.1" y2="416.9"></line>
		<line fill="none" stroke="#8D5833" stroke-miterlimit="10" stroke-dasharray="2" x1="303.6" y1="348.6" x2="303.6" y2="451.2"></line>
		<line fill="none" stroke="#8D5833" stroke-miterlimit="10" stroke-dasharray="2" x1="353.9" y1="348.6" x2="353.9" y2="451.3"></line>
	</g>
	<path fill="#F15D50" d="M353.9,394.1c-3.1,0-5.7,2.6-5.7,5.7c0,0.2,0,0.4,0,0.6c-1.6,1-3.4,2.2-5.3,3.5
		c-9.8,6.3-23.9,15.5-35.3,20.2c-1-1-2.4-1.6-4-1.6c-2.8,0-5.1,2-5.6,4.6c-11.3,2.3-25.3,1.9-35,1.6c-1.6,0-3-0.1-4.3-0.1
		c-0.7-2.3-2.9-4-5.4-4c-3.1,0-5.7,2.6-5.7,5.7c0,3.1,2.6,5.7,5.7,5.7c2,0,3.7-1,4.7-2.5c1.5,0,3.1,0.1,4.9,0.1
		c3.6,0.1,7.8,0.2,12.2,0.2c7.8,0,16.5-0.4,24.1-2c1,1.3,2.6,2.1,4.4,2.1c3,0,5.4-2.3,5.7-5.2c11.9-4.9,26.3-14.2,36.3-20.7
		c1.9-1.2,3.7-2.4,5.2-3.4c0.9,0.6,2,0.9,3.1,0.9c3.1,0,5.7-2.6,5.7-5.7C359.6,396.7,357,394.1,353.9,394.1z"></path>
	<path fill="#D61F26" d="M353.9,359.8c-3.1,0-5.7,2.6-5.7,5.7c0,1.1,0.3,2.1,0.9,3c-1.9,3.1-4.2,6.9-6.9,11.4
		c-9.8,16.3-24,39.9-35.4,51.5c-0.9-0.6-2-0.9-3.1-0.9c-3.1,0-5.7,2.6-5.7,5.7c0,0.6,0.1,1.2,0.3,1.8c-11.1,5.6-25.2,3.4-34.8,1.8
		c-1.7-0.3-3.3-0.5-4.8-0.7c-0.8-2.1-2.9-3.6-5.3-3.6c-3.1,0-5.7,2.6-5.7,5.7c0,3.1,2.6,5.7,5.7,5.7c2.1,0,4-1.2,5-2.9
		c1.3,0.2,2.8,0.4,4.3,0.7c5.2,0.8,11.6,1.9,18.3,1.9c7.1,0,14.4-1.2,20.9-4.9c0.6,0.2,1.2,0.3,1.8,0.3c3.1,0,5.7-2.6,5.7-5.7
		c0-0.1,0-0.3,0-0.4c12.1-11.9,26.9-36.5,37-53.4c2.6-4.3,4.9-8.2,6.9-11.3c0.2,0,0.5,0.1,0.7,0.1c3.1,0,5.7-2.6,5.7-5.7
		C359.6,362.4,357,359.8,353.9,359.8z"></path>
	<path fill="#424143" d="M622.3,294.6c-0.8,5.2-5.6,9-11,8.5l-6.3-0.8c7.5-88.5,7.1-88.4-2.6-0.2l-17.2-1.8
		c7.6-88.5,7.1-88.4-2.6-0.2l-7.3-0.8c-5.5-0.5-9.6-5.5-9.1-11c6.2-74.8,5.9-74.1-2.6,0.8l-0.1,1.4c-0.6,5.8,3.7,11.1,9.6,11.6
		l16.8,1.6l-0.8,8.6l6.4,0.6l0.8-8.6l16.8,1.6c5.8,0.6,11.1-3.7,11.6-9.6l0.1-1.4C631.3,218.8,630.6,220.5,622.3,294.6L622.3,294.6z
		"></path>
	<path fill="#854F29" d="M596.1,307.5l-6.5-0.6l-2.7,6.8l-23.2,238.4v0c-0.1,1.1,2.1,2.2,5,2.5c2.9,0.3,5.3-0.4,5.4-1.5v0
		l23.2-238.4L596.1,307.5L596.1,307.5z"></path>
	<path fill="#D39C76" d="M589.2,464.7l1,1.7c0,0,2.7,1.2,3.3,2.1c0.8,1.2,1.4,2,2,3.9c0.6,1.8-6.9,7-8.9,6.4c-2-0.7-2-3.4-2-3.4
		s-0.4,2.2-0.8,3.2c-0.4,1-2.2,1.5-2.9-0.2c-0.7-1.7,0-3.7,0.3-5.1c0.3-1.4,1.6-3.3,1.6-3.3l0.3-2.2L589.2,464.7L589.2,464.7z"></path>
	<path fill="#231F20" d="M543.6,419L543.6,419l-9.9-8.3l-3.8,1.5l-42.6,12.8l-34.4-13.4l-12,7.2l0,0l0,0c0,0-23.3,16.5-48.2-5.5
		l-4.7,6.7c0,0,18.9,21.2,55.7,15l10.5,60.7l-10,52.8c0,0,0,0,0,0c-0.1,0.9-2.4,1.7-2.4,1.7c-3.1,1-8.8,0.1-8.8,0.1
		c-2.6,0.1-1.2,1.1-1.2,1.1c2,1.2,8.5,1.1,11.4,1.1c2.9,0,3.6-0.7,3.6-0.7v0.6h6c0.9-1.4-0.1-4.1-0.1-4.1c0,0-0.1,0-0.1,0l11.8-40.1
		c0,0,9.3,1.3,28.5,1.3c19.2,0,26.7-1.9,26.7-1.9l4.4,40.6c0,0,0,0-0.1,0c0,0-1,2.6-0.1,4.1h6V552c0,0,0.6,0.6,3.6,0.7
		c2.9,0,9.5,0.1,11.4-1.1c0,0,1.4-1.1-1.2-1.1c0,0-5.7,0.8-8.8-0.1c0,0-2.3-0.8-2.4-1.7c0,0,0,0-0.1,0l-1-52.3l9.2-59.5
		c24.8-4.5,42,32.4,42,32.4l6.7-3.9C577.6,430.3,552.6,421.2,543.6,419z"></path>
	<path fill="#D61F26" d="M530.9,431.5c-1.8-3.9-2.2-9.4-2-14.6c-5.3,3.2-13.2,7.2-22.8,10.1c-5.6,8.3-13.9,14-13.9,14l-2.4,54.1
		l6.7,9.9c0,0,11.5-4.4,21.5-6.8c10-2.3,23.6-4.9,23.6-4.9s-3.1-11.8-3-24.5c0.1-7.8,3-23.7,3-23.7S535.4,441.3,530.9,431.5
		L530.9,431.5z"></path>
	<path fill="#D61F26" d="M490.6,440.5l0.5-0.3c0,0,0.4-0.3,1.1-0.8c-2.2-1.7-5.7-4.8-9-8.7c-8.2,0.2-17-1-26.1-4.2
		c-0.3,1.8-0.8,3.6-1.5,5.1c-4.5,9.7-10.6,13.7-10.6,13.7s3,15.8,3,23.7c0.1,12.7-3,24.5-3,24.5s13.6,2.5,23.6,4.9
		c10,2.3,21.5,6.8,21.5,6.8l2.2-3.4l-4.2-6.3L490.6,440.5z"></path>
	<path fill="#231F20" d="M504,485.6c-0.1,2.9-2.6,5.1-5.4,4.9c-2.9-0.1-5.1-2.6-4.9-5.4c0.1-2.9,2.6-5.1,5.4-4.9
		C501.9,480.3,504.1,482.7,504,485.6z"></path>
	<path fill="#231F20" d="M505.3,456.3c-0.1,2.9-2.6,5.1-5.4,4.9c-2.9-0.1-5.1-2.6-4.9-5.4c0.1-2.9,2.6-5.1,5.4-4.9
		C503.2,451,505.5,453.4,505.3,456.3z"></path>
	<path fill="#231F20" d="M504.6,470.9c-0.1,2.9-2.6,5.1-5.4,4.9c-2.9-0.1-5.1-2.6-4.9-5.4c0.1-2.9,2.6-5.1,5.4-4.9
		C502.6,465.6,504.8,468.1,504.6,470.9z"></path>
	<g id="head_2_">
		<path fill="#76553C" d="M482.5,358.8c0,0,8.5,32-21.2,32l26.4,9.9l21.7-27.2L482.5,358.8L482.5,358.8z"></path>
		<path fill="#B34A4A" d="M500.4,386.6c0,0-22.1-9.9-31.6,7.1l19.8,5.6L500.4,386.6z"></path>
		<path fill="#D39C76" d="M461.3,389.6c11.3,6.8,26.8,4,32.5,0.3c8.1-5.4,8.4-19.3,5.7-20.5c-0.9-0.4-12,8.4-32,0.5l2.3-21.2
			l-32-1.4l22.6-66.8c0,0,37.7-18.8,75.3,0v67.7c2-0.9,4.1-1,5.9-0.3c4.7,2,6.1,9.1,3.3,15.9c-2,4.8-5.6,8.1-9.2,9v39.5
			c0,0-38.6,30.6-81.4,13.2c0,0-13.3-5-12.4-21.8C441.8,403.5,441.1,392.4,461.3,389.6L461.3,389.6z"></path>
		<g>
			<path fill="#644229" d="M488.7,314.3c0,2.5,3.3,4.4,7.4,4.4c4.1,0,7.4-2,7.4-4.4s-3.3-4.4-7.4-4.4
				C492,309.9,488.7,311.9,488.7,314.3z M465.8,314.3c0,2.5,3.2,4.4,7.3,4.4c4,0,7.3-2,7.3-4.4s-3.3-4.4-7.3-4.4
				C469.1,309.9,465.8,311.9,465.8,314.3z"></path>
		</g>
		<path fill="#231F20" d="M536.6,280.4l-0.1,0c-0.1-9.3-0.1-21.2,0.1-28.7c0.7-23.1,7.5-32.9,2.1-33.9c-5.4-1-17.3-3.5-42-3.5
			c-22.1,0-38.8,3.1-44,4.2c-5.2,1,3.7,19.8,5.2,33.3c0.7,6.4,0.8,16,0.6,24.5c-18,3.1-28.5,10.8-30.8,17.8h155
			C582.9,293.8,569.6,287,536.6,280.4L536.6,280.4z"></path>
		<path fill="#363534" d="M477,370.3c16.7,17.9,56.2,15,58.7-13.2c0.7-8.3-2.7-2.2-5.8,0.3c-4.7,3.7-13.6,3.8-18.3,0.1
			c-8.2-6.4-22.1-26.1-34.5-11.6c-12.7-14.5-26.9,5.2-35.2,11.6c-4.8,3.7-13.9,3.6-18.6-0.1c-3.2-2.5-6.7-8.6-5.9-0.3
			C419.8,385.3,460,388.2,477,370.3z"></path>
		<polygon fill="#BE8862" points="535.7,293.8 455.8,293.8 453.1,301.9 535.7,301.9 		"></polygon>
	</g>
	<path fill="#D39C76" d="M389,420.5l-2.7-1.2c0,0-2.3,0.3-3.3-0.2c-1.4-0.7-3.9-2.6-5.4-4c-1.5-1.4-2.4-3.2-2.7-4.2
		c-0.5-1.8,2.7-6.7,4.9-7.1c2.2-0.4,8.1,4.4,8.1,4.4s-0.7-2.3-0.9-3.4c-0.1-1.1,1.4-2.5,2.9-1.3c1.5,1.2,1.9,3.5,2.3,5
		c0.4,1.5,0.2,3.9,0.2,3.9l0.9,2.2L389,420.5L389,420.5z"></path>
</g>
<g>
	<path fill="#B48A2E" d="M181.1,100c-9.8,0-17.6-3.1-23.4-9.3c-5.8-6.2-8.6-14.7-8.6-25.6c0-10.3,3-18.6,9-24.9
		c6-6.3,13.9-9.4,23.6-9.4c7.9,0,14.5,1.8,20,5.5l-3.9,9.4c-5.2-3.2-10.5-4.8-15.8-4.8c-6.2,0-11.1,2.2-14.7,6.7
		c-3.6,4.5-5.4,10.4-5.4,17.9c0,7.8,1.7,13.8,5.2,18c3.5,4.3,8.4,6.4,14.8,6.4c5.6,0,11.2-1.4,16.8-4.2l1.7,9.7
		C195.3,98.4,188.8,100,181.1,100z"></path>
	<path fill="#B48A2E" d="M211.5,99V31.8h12.4v27.5h30.4V31.8h12.4V99h-12.4V69.1h-30.4V99H211.5z"></path>
	<path fill="#B48A2E" d="M273.8,99l24.7-67.3h13.5L336.5,99h-12.8l-6.7-19h-23.5l-6.7,19H273.8z M296.7,70.7h17.3
		c-5.5-17.7-8.3-26.8-8.5-27.4L296.7,70.7z"></path>
	<path fill="#B48A2E" d="M342.9,99V31.6h24.9c3.4,0,6.3,0.2,8.8,0.5c2.5,0.3,4.9,0.9,7.1,1.7c2.2,0.8,4.1,1.9,5.5,3.3
		c1.4,1.4,2.5,3.2,3.3,5.4c0.8,2.2,1.2,4.8,1.2,7.9c0,8.9-4.1,14.8-12.2,17.6c1.7,1.9,3.7,5.3,6.2,10.4l10,20.7h-13.6l-7.8-17.6
		c-3-6.3-4.8-10-5.5-11.2c-0.5,0-2.2,0-5.2,0l-10.4-0.1V99H342.9z M368.9,61.2c4.8,0,8.2-0.8,10.3-2.5c2.1-1.7,3.1-4.4,3.1-8.2
		c0-3.3-1.1-5.7-3.2-7.3s-5.3-2.3-9.7-2.3h-14.3v20.3c0.5,0,2.7,0,6.8,0C366.1,61.2,368.4,61.2,368.9,61.2z"></path>
	<path fill="#B48A2E" d="M420.2,99V41.7h-19.6v-10h51.6v10h-19.5V99H420.2z"></path>
	<path fill="#B48A2E" d="M460.4,99V31.8h12.4V99H460.4z"></path>
	<path fill="#B48A2E" d="M506.6,99.9c-8.1,0-15.4-1.9-21.8-5.6l3-9.9c2.9,1.6,6,2.9,9.4,3.9c3.4,1,6.7,1.5,9.9,1.5
		c3.9,0,6.9-0.8,9-2.5s3-4.1,3-7.3c0-4.2-2.8-7.1-8.4-8.8c-0.4-0.1-1.5-0.5-3.4-1c-1.8-0.5-3.6-1.1-5.2-1.6
		c-1.6-0.5-2.8-0.9-3.5-1.2c-9-3.2-13.5-9.1-13.5-17.8c0-6.1,2.2-10.8,6.5-14.1c4.3-3.3,10.1-5,17.2-5c8.1,0,15.1,1.7,21,5l-3.8,9.1
		c-6-2.7-11.6-4-16.7-4c-3.7,0-6.5,0.7-8.4,2c-1.9,1.3-2.9,3.5-3,6.5c0,3.7,1.9,6.2,5.6,7.3c0.7,0.3,2.5,0.9,5.4,1.8
		c2.9,0.9,4.7,1.5,5.6,1.8c6.2,2,10.5,4.5,13.2,7.5c2.6,3,4,7.2,4,12.5c0,6.4-2.3,11.3-6.8,14.8C520.3,98.2,514.2,99.9,506.6,99.9z"></path>
	<path fill="#B48A2E" d="M555.3,99V41.7h-19.6v-10h51.6v10h-19.5V99H555.3z"></path>
	<path fill="#B48A2E" d="M596.9,99.8c-2,0-3.7-0.7-5-2.1s-2.1-3-2.1-4.9c0-1.9,0.7-3.6,2-5c1.4-1.4,3.1-2.1,5.1-2.1
		c2,0,3.6,0.7,5,2.1c1.3,1.4,2,3.1,2,5c0,1.9-0.7,3.5-2,4.9C600.5,99.1,598.9,99.8,596.9,99.8z"></path>
	<path fill="#B48A2E" d="M604,113.7l-0.5-9.8c1.5,0.2,3.1,0.4,4.8,0.4c3.4,0,5.7-0.9,6.9-2.6s1.8-4.6,1.8-8.6V31.6h12.5v60.7
		c0,3.9-0.3,7.1-1,9.8c-0.7,2.6-1.9,4.9-3.5,6.7c-1.6,1.9-3.8,3.2-6.5,4.1c-2.7,0.9-6.1,1.3-10.1,1.3
		C606.7,114.1,605.3,114,604,113.7z"></path>
	<path fill="#B48A2E" d="M662.6,99.9c-8.1,0-15.4-1.9-21.8-5.6l3-9.9c2.9,1.6,6,2.9,9.4,3.9c3.4,1,6.7,1.5,9.9,1.5
		c3.9,0,6.9-0.8,9-2.5s3-4.1,3-7.3c0-4.2-2.8-7.1-8.4-8.8c-0.4-0.1-1.5-0.5-3.4-1c-1.8-0.5-3.6-1.1-5.2-1.6
		c-1.6-0.5-2.8-0.9-3.5-1.2c-9-3.2-13.5-9.1-13.5-17.8c0-6.1,2.2-10.8,6.5-14.1c4.3-3.3,10.1-5,17.2-5c8.1,0,15.1,1.7,21,5l-3.8,9.1
		c-6-2.7-11.6-4-16.7-4c-3.7,0-6.5,0.7-8.4,2c-1.9,1.3-2.9,3.5-3,6.5c0,3.7,1.9,6.2,5.6,7.3c0.7,0.3,2.5,0.9,5.4,1.8
		c2.9,0.9,4.7,1.5,5.6,1.8c6.2,2,10.5,4.5,13.2,7.5c2.6,3,4,7.2,4,12.5c0,6.4-2.3,11.3-6.8,14.8C676.3,98.2,670.2,99.9,662.6,99.9z"></path>
	<path fill="#B48A2E" d="M252.8,143.9c-2.1,0-4-0.5-5.7-1.5l0.8-2.6c0.8,0.4,1.6,0.8,2.5,1s1.8,0.4,2.6,0.4c1,0,1.8-0.2,2.4-0.7
		c0.5-0.4,0.8-1.1,0.8-1.9c0-1.1-0.7-1.9-2.2-2.3c-0.1,0-0.4-0.1-0.9-0.3s-0.9-0.3-1.4-0.4c-0.4-0.1-0.7-0.2-0.9-0.3
		c-2.4-0.8-3.6-2.4-3.6-4.7c0-1.6,0.6-2.8,1.7-3.7c1.1-0.9,2.6-1.3,4.5-1.3c2.1,0,4,0.4,5.5,1.3l-1,2.4c-1.6-0.7-3-1.1-4.4-1.1
		c-1,0-1.7,0.2-2.2,0.5c-0.5,0.3-0.8,0.9-0.8,1.7c0,1,0.5,1.6,1.5,1.9c0.2,0.1,0.7,0.2,1.4,0.5s1.2,0.4,1.5,0.5
		c1.6,0.5,2.8,1.2,3.5,2c0.7,0.8,1,1.9,1,3.3c0,1.7-0.6,3-1.8,3.9C256.4,143.4,254.8,143.9,252.8,143.9z"></path>
	<path fill="#B48A2E" d="M262.2,143.6v-17.7h3.3v17.7H262.2z"></path>
	<path fill="#B48A2E" d="M269.4,143.6v-17.7h3.9l5.3,12.8l5.4-12.8h3.8v17.7h-3v-8.7l0.1-5l-0.4,1.3l-4.5,11.2h-2.8l-4.4-11.3
		l-0.4-1.3l0.1,5.1v8.7H269.4z"></path>
	<path fill="#B48A2E" d="M291.6,143.6v-17.7h5.9c1.4,0,2.6,0.2,3.6,0.5s1.8,0.9,2.3,1.7c0.6,0.8,0.9,1.8,0.9,3
		c0,0.8-0.1,1.6-0.3,2.3c-0.2,0.7-0.6,1.3-1.1,1.8c-0.5,0.5-1.2,0.9-2.1,1.2c-0.9,0.3-2,0.4-3.3,0.4c-1.1,0-2,0-2.7-0.1v6.8H291.6z
		 M297.1,134.5c0.7,0,1.2-0.1,1.7-0.2c0.5-0.1,0.9-0.3,1.2-0.5c0.3-0.2,0.5-0.5,0.7-0.7c0.2-0.3,0.3-0.6,0.3-0.9
		c0.1-0.3,0.1-0.6,0.1-0.9c0-1-0.3-1.7-0.9-2.2c-0.6-0.5-1.5-0.8-2.7-0.8h-2.7v6.2C294.9,134.5,295.6,134.5,297.1,134.5z"></path>
	<path fill="#B48A2E" d="M306.7,143.6v-17.7h3.3V141h7.4l-0.1,2.6H306.7z"></path>
	<path fill="#B48A2E" d="M319.6,143.6v-17.7h10.7l-0.1,2.6h-7.3v4.6h7v2.6h-7v5.3h7.6l-0.1,2.6H319.6z"></path>
	<path fill="#B48A2E" d="M339.9,143.6v-17.7h6.6c0.9,0,1.7,0,2.3,0.1c0.7,0.1,1.3,0.2,1.9,0.4c0.6,0.2,1.1,0.5,1.4,0.9
		c0.4,0.4,0.7,0.8,0.9,1.4c0.2,0.6,0.3,1.3,0.3,2.1c0,2.3-1.1,3.9-3.2,4.6c0.4,0.5,1,1.4,1.6,2.7l2.6,5.5h-3.6l-2.1-4.6
		c-0.8-1.7-1.3-2.6-1.4-2.9c-0.1,0-0.6,0-1.4,0l-2.7,0v7.6H339.9z M346.8,133.7c1.3,0,2.2-0.2,2.7-0.7c0.5-0.4,0.8-1.2,0.8-2.2
		c0-0.9-0.3-1.5-0.8-1.9c-0.6-0.4-1.4-0.6-2.5-0.6h-3.8v5.3c0.1,0,0.7,0,1.8,0C346.1,133.7,346.7,133.7,346.8,133.7z"></path>
	<path fill="#B48A2E" d="M356.7,143.6v-17.7h10.7l-0.1,2.6H360v4.6h7v2.6h-7v5.3h7.6l-0.1,2.6H356.7z"></path>
	<path fill="#B48A2E" d="M375.6,143.9c-2.1,0-4-0.5-5.7-1.5l0.8-2.6c0.8,0.4,1.6,0.8,2.5,1s1.8,0.4,2.6,0.4c1,0,1.8-0.2,2.4-0.7
		c0.5-0.4,0.8-1.1,0.8-1.9c0-1.1-0.7-1.9-2.2-2.3c-0.1,0-0.4-0.1-0.9-0.3s-0.9-0.3-1.4-0.4c-0.4-0.1-0.7-0.2-0.9-0.3
		c-2.4-0.8-3.6-2.4-3.6-4.7c0-1.6,0.6-2.8,1.7-3.7c1.1-0.9,2.6-1.3,4.5-1.3c2.1,0,4,0.4,5.5,1.3l-1,2.4c-1.6-0.7-3-1.1-4.4-1.1
		c-1,0-1.7,0.2-2.2,0.5c-0.5,0.3-0.8,0.9-0.8,1.7c0,1,0.5,1.6,1.5,1.9c0.2,0.1,0.7,0.2,1.4,0.5c0.8,0.2,1.2,0.4,1.5,0.5
		c1.6,0.5,2.8,1.2,3.5,2c0.7,0.8,1,1.9,1,3.3c0,1.7-0.6,3-1.8,3.9C379.2,143.4,377.6,143.9,375.6,143.9z"></path>
	<path fill="#B48A2E" d="M384.9,143.6v-17.7h5.9c1.4,0,2.6,0.2,3.6,0.5c1,0.4,1.8,0.9,2.3,1.7c0.6,0.8,0.9,1.8,0.9,3
		c0,0.8-0.1,1.6-0.3,2.3c-0.2,0.7-0.6,1.3-1.1,1.8c-0.5,0.5-1.2,0.9-2.1,1.2c-0.9,0.3-2,0.4-3.3,0.4c-1.1,0-2,0-2.7-0.1v6.8H384.9z
		 M390.4,134.5c0.7,0,1.2-0.1,1.7-0.2c0.5-0.1,0.9-0.3,1.2-0.5c0.3-0.2,0.5-0.5,0.7-0.7c0.2-0.3,0.3-0.6,0.3-0.9
		c0.1-0.3,0.1-0.6,0.1-0.9c0-1-0.3-1.7-0.9-2.2c-0.6-0.5-1.5-0.8-2.7-0.8h-2.7v6.2C388.2,134.5,389,134.5,390.4,134.5z"></path>
	<path fill="#B48A2E" d="M407.9,143.9c-2.7,0-4.8-0.8-6.3-2.4c-1.5-1.6-2.3-3.8-2.3-6.7c0-2.9,0.8-5.1,2.3-6.7
		c1.5-1.6,3.6-2.4,6.3-2.4c2.7,0,4.8,0.8,6.3,2.4c1.5,1.6,2.3,3.8,2.3,6.7c0,2.8-0.8,5-2.3,6.7C412.7,143.1,410.6,143.9,407.9,143.9
		z M404,139.5c0.9,1.1,2.2,1.7,3.9,1.7c1.7,0,3-0.6,3.9-1.7c0.9-1.1,1.3-2.7,1.3-4.7c0-2.1-0.4-3.7-1.3-4.8
		c-0.9-1.1-2.2-1.7-3.9-1.7c-1.7,0-3,0.6-3.9,1.7c-0.9,1.1-1.3,2.7-1.3,4.8C402.7,136.8,403.2,138.4,404,139.5z"></path>
	<path fill="#B48A2E" d="M419.6,143.6v-17.7h3.5c0.6,1,1.9,3,3.8,5.9c1.9,3,3.1,4.8,3.5,5.4c0.1,0.2,0.3,0.5,0.6,0.9
		c0.3,0.4,0.5,0.8,0.6,0.9c-0.1-2.8-0.1-4.2-0.1-4.3v-8.9h3v17.7h-3.5l-8-12.4l-0.6-1c0.1,2.1,0.1,3.6,0.1,4.5v8.9H419.6z"></path>
	<path fill="#B48A2E" d="M443.4,143.9c-2.1,0-4-0.5-5.7-1.5l0.8-2.6c0.8,0.4,1.6,0.8,2.5,1c0.9,0.3,1.8,0.4,2.6,0.4
		c1,0,1.8-0.2,2.4-0.7c0.5-0.4,0.8-1.1,0.8-1.9c0-1.1-0.7-1.9-2.2-2.3c-0.1,0-0.4-0.1-0.9-0.3s-0.9-0.3-1.4-0.4
		c-0.4-0.1-0.7-0.2-0.9-0.3c-2.4-0.8-3.6-2.4-3.6-4.7c0-1.6,0.6-2.8,1.7-3.7c1.1-0.9,2.6-1.3,4.5-1.3c2.1,0,4,0.4,5.5,1.3l-1,2.4
		c-1.6-0.7-3-1.1-4.4-1.1c-1,0-1.7,0.2-2.2,0.5c-0.5,0.3-0.8,0.9-0.8,1.7c0,1,0.5,1.6,1.5,1.9c0.2,0.1,0.7,0.2,1.4,0.5
		c0.8,0.2,1.2,0.4,1.5,0.5c1.6,0.5,2.8,1.2,3.5,2c0.7,0.8,1,1.9,1,3.3c0,1.7-0.6,3-1.8,3.9C447,143.4,445.4,143.9,443.4,143.9z"></path>
	<path fill="#B48A2E" d="M452.8,143.6v-17.7h3.3v17.7H452.8z"></path>
	<path fill="#B48A2E" d="M464.5,143.6l-6.4-17.7h3.4l3.7,10.9c0.1,0.4,0.5,1.5,1,3.3c0-0.1,0.2-0.7,0.4-1.6c0.3-0.9,0.4-1.5,0.5-1.7
		c0.1-0.3,0.7-2.1,1.8-5.5c1.1-3.4,1.7-5.2,1.8-5.5h3.3l-6.3,17.7H464.5z"></path>
	<path fill="#B48A2E" d="M475.8,143.6v-17.7h10.7l-0.1,2.6h-7.3v4.6h7v2.6h-7v5.3h7.6l-0.1,2.6H475.8z"></path>
	<path fill="#B48A2E" d="M504,143.9c-2.6,0-4.6-0.8-6.1-2.4c-1.5-1.6-2.3-3.9-2.3-6.7c0-2.7,0.8-4.9,2.4-6.5
		c1.6-1.6,3.7-2.5,6.2-2.5c2.1,0,3.8,0.5,5.3,1.4l-1,2.5c-1.4-0.8-2.8-1.3-4.2-1.3c-1.6,0-2.9,0.6-3.9,1.8c-0.9,1.2-1.4,2.7-1.4,4.7
		c0,2,0.5,3.6,1.4,4.7c0.9,1.1,2.2,1.7,3.9,1.7c1.5,0,2.9-0.4,4.4-1.1l0.4,2.6C507.7,143.5,506,143.9,504,143.9z"></path>
	<path fill="#B48A2E" d="M512,143.6v-17.7h3.3v7.2h8v-7.2h3.3v17.7h-3.3v-7.9h-8v7.9H512z"></path>
	<path fill="#B48A2E" d="M528.4,143.6l6.5-17.7h3.6l6.4,17.7h-3.4l-1.7-5h-6.2l-1.8,5H528.4z M534.4,136.2h4.5
		c-1.4-4.6-2.2-7-2.2-7.2L534.4,136.2z"></path>
	<path fill="#B48A2E" d="M546.5,143.6v-17.7h6.6c0.9,0,1.7,0,2.3,0.1c0.7,0.1,1.3,0.2,1.9,0.4c0.6,0.2,1.1,0.5,1.4,0.9
		c0.4,0.4,0.7,0.8,0.9,1.4c0.2,0.6,0.3,1.3,0.3,2.1c0,2.3-1.1,3.9-3.2,4.6c0.4,0.5,1,1.4,1.6,2.7l2.6,5.5h-3.6l-2.1-4.6
		c-0.8-1.7-1.3-2.6-1.4-2.9c-0.1,0-0.6,0-1.4,0l-2.7,0v7.6H546.5z M553.4,133.7c1.3,0,2.2-0.2,2.7-0.7c0.5-0.4,0.8-1.2,0.8-2.2
		c0-0.9-0.3-1.5-0.8-1.9c-0.6-0.4-1.4-0.6-2.5-0.6h-3.8v5.3c0.1,0,0.7,0,1.8,0S553.2,133.7,553.4,133.7z"></path>
	<path fill="#B48A2E" d="M566.8,143.6v-15.1h-5.2v-2.6h13.6v2.6h-5.1v15.1H566.8z"></path>
	<path fill="#B48A2E" d="M582.3,143.9c-2.1,0-4-0.5-5.7-1.5l0.8-2.6c0.8,0.4,1.6,0.8,2.5,1c0.9,0.3,1.8,0.4,2.6,0.4
		c1,0,1.8-0.2,2.4-0.7c0.5-0.4,0.8-1.1,0.8-1.9c0-1.1-0.7-1.9-2.2-2.3c-0.1,0-0.4-0.1-0.9-0.3c-0.5-0.1-0.9-0.3-1.4-0.4
		c-0.4-0.1-0.7-0.2-0.9-0.3c-2.4-0.8-3.6-2.4-3.6-4.7c0-1.6,0.6-2.8,1.7-3.7c1.1-0.9,2.6-1.3,4.5-1.3c2.1,0,4,0.4,5.5,1.3l-1,2.4
		c-1.6-0.7-3-1.1-4.4-1.1c-1,0-1.7,0.2-2.2,0.5c-0.5,0.3-0.8,0.9-0.8,1.7c0,1,0.5,1.6,1.5,1.9c0.2,0.1,0.7,0.2,1.4,0.5
		c0.8,0.2,1.2,0.4,1.5,0.5c1.6,0.5,2.8,1.2,3.5,2c0.7,0.8,1,1.9,1,3.3c0,1.7-0.6,3-1.8,3.9C585.9,143.4,584.3,143.9,582.3,143.9z"></path>
</g>
<g>
	<path fill="#FFFFFF" d="M178.1,98c-9.8,0-17.6-3.1-23.4-9.3c-5.8-6.2-8.6-14.7-8.6-25.6c0-10.3,3-18.6,9-24.9
		c6-6.3,13.9-9.4,23.6-9.4c7.9,0,14.5,1.8,20,5.5l-3.9,9.4c-5.2-3.2-10.5-4.8-15.8-4.8c-6.2,0-11.1,2.2-14.7,6.7s-5.4,10.4-5.4,17.9
		c0,7.8,1.7,13.8,5.2,18c3.5,4.3,8.4,6.4,14.8,6.4c5.6,0,11.2-1.4,16.8-4.2l1.7,9.7C192.3,96.4,185.8,98,178.1,98z"></path>
	<path fill="#FFFFFF" d="M208.5,97V29.8h12.4v27.5h30.4V29.8h12.4V97h-12.4V67.1h-30.4V97H208.5z"></path>
	<path fill="#FFFFFF" d="M270.8,97l24.7-67.3h13.5L333.5,97h-12.8l-6.7-19h-23.5l-6.7,19H270.8z M293.7,68.7h17.3
		c-5.5-17.7-8.3-26.8-8.5-27.4L293.7,68.7z"></path>
	<path fill="#FFFFFF" d="M339.9,97V29.6h24.9c3.4,0,6.3,0.2,8.8,0.5c2.5,0.3,4.9,0.9,7.1,1.7c2.2,0.8,4.1,1.9,5.5,3.3
		s2.5,3.2,3.3,5.4c0.8,2.2,1.2,4.8,1.2,7.9c0,8.9-4.1,14.8-12.2,17.6c1.7,1.9,3.7,5.3,6.2,10.4l10,20.7h-13.6l-7.8-17.6
		c-3-6.3-4.8-10-5.5-11.2c-0.5,0-2.2,0-5.2,0l-10.4-0.1V97H339.9z M365.9,59.2c4.8,0,8.2-0.8,10.3-2.5c2.1-1.7,3.1-4.4,3.1-8.2
		c0-3.3-1.1-5.7-3.2-7.3s-5.3-2.3-9.7-2.3h-14.3v20.3c0.5,0,2.7,0,6.8,0C363.1,59.2,365.4,59.2,365.9,59.2z"></path>
	<path fill="#FFFFFF" d="M417.2,97V39.7h-19.6v-10h51.6v10h-19.5V97H417.2z"></path>
	<path fill="#FFFFFF" d="M457.4,97V29.8h12.4V97H457.4z"></path>
	<path fill="#FFFFFF" d="M503.6,97.9c-8.1,0-15.4-1.9-21.8-5.6l3-9.9c2.9,1.6,6,2.9,9.4,3.9c3.4,1,6.7,1.5,9.9,1.5
		c3.9,0,6.9-0.8,9-2.5s3-4.1,3-7.3c0-4.2-2.8-7.1-8.4-8.8c-0.4-0.1-1.5-0.5-3.4-1c-1.8-0.5-3.6-1.1-5.2-1.6
		c-1.6-0.5-2.8-0.9-3.5-1.2c-9-3.2-13.5-9.1-13.5-17.8c0-6.1,2.2-10.8,6.5-14.1c4.3-3.3,10.1-5,17.2-5c8.1,0,15.1,1.7,21,5l-3.8,9.1
		c-6-2.7-11.6-4-16.7-4c-3.7,0-6.5,0.7-8.4,2c-1.9,1.3-2.9,3.5-3,6.5c0,3.7,1.9,6.2,5.6,7.3c0.7,0.3,2.5,0.9,5.4,1.8
		c2.9,0.9,4.7,1.5,5.6,1.8c6.2,2,10.5,4.5,13.2,7.5c2.6,3,4,7.2,4,12.5c0,6.4-2.3,11.3-6.8,14.8C517.3,96.2,511.2,97.9,503.6,97.9z"></path>
	<path fill="#FFFFFF" d="M552.3,97V39.7h-19.6v-10h51.6v10h-19.5V97H552.3z"></path>
	<path fill="#FFFFFF" d="M593.9,97.8c-2,0-3.7-0.7-5-2.1s-2.1-3-2.1-4.9c0-1.9,0.7-3.6,2-5c1.4-1.4,3.1-2.1,5.1-2.1
		c2,0,3.6,0.7,5,2.1c1.3,1.4,2,3.1,2,5c0,1.9-0.7,3.5-2,4.9C597.5,97.1,595.9,97.8,593.9,97.8z"></path>
	<path fill="#FFFFFF" d="M601,111.7l-0.5-9.8c1.5,0.2,3.1,0.4,4.8,0.4c3.4,0,5.7-0.9,6.9-2.6s1.8-4.6,1.8-8.6V29.6h12.5v60.7
		c0,3.9-0.3,7.1-1,9.8c-0.7,2.6-1.9,4.9-3.5,6.7c-1.6,1.9-3.8,3.2-6.5,4.1c-2.7,0.9-6.1,1.3-10.1,1.3
		C603.7,112.1,602.3,112,601,111.7z"></path>
	<path fill="#FFFFFF" d="M659.6,97.9c-8.1,0-15.4-1.9-21.8-5.6l3-9.9c2.9,1.6,6,2.9,9.4,3.9c3.4,1,6.7,1.5,9.9,1.5
		c3.9,0,6.9-0.8,9-2.5s3-4.1,3-7.3c0-4.2-2.8-7.1-8.4-8.8c-0.4-0.1-1.5-0.5-3.4-1c-1.8-0.5-3.6-1.1-5.2-1.6
		c-1.6-0.5-2.8-0.9-3.5-1.2c-9-3.2-13.5-9.1-13.5-17.8c0-6.1,2.2-10.8,6.5-14.1c4.3-3.3,10.1-5,17.2-5c8.1,0,15.1,1.7,21,5l-3.8,9.1
		c-6-2.7-11.6-4-16.7-4c-3.7,0-6.5,0.7-8.4,2c-1.9,1.3-2.9,3.5-3,6.5c0,3.7,1.9,6.2,5.6,7.3c0.7,0.3,2.5,0.9,5.4,1.8
		c2.9,0.9,4.7,1.5,5.6,1.8c6.2,2,10.5,4.5,13.2,7.5c2.6,3,4,7.2,4,12.5c0,6.4-2.3,11.3-6.8,14.8C673.3,96.2,667.2,97.9,659.6,97.9z"></path>
	<path fill="#FFFFFF" d="M251.6,142.7c-2.1,0-4-0.5-5.7-1.5l0.8-2.6c0.8,0.4,1.6,0.8,2.5,1c0.9,0.3,1.8,0.4,2.6,0.4
		c1,0,1.8-0.2,2.4-0.7c0.5-0.4,0.8-1.1,0.8-1.9c0-1.1-0.7-1.9-2.2-2.3c-0.1,0-0.4-0.1-0.9-0.3s-0.9-0.3-1.4-0.4
		c-0.4-0.1-0.7-0.2-0.9-0.3c-2.4-0.8-3.6-2.4-3.6-4.7c0-1.6,0.6-2.8,1.7-3.7c1.1-0.9,2.6-1.3,4.5-1.3c2.1,0,4,0.4,5.5,1.3l-1,2.4
		c-1.6-0.7-3-1.1-4.4-1.1c-1,0-1.7,0.2-2.2,0.5c-0.5,0.3-0.8,0.9-0.8,1.7c0,1,0.5,1.6,1.5,1.9c0.2,0.1,0.7,0.2,1.4,0.5
		c0.8,0.2,1.2,0.4,1.5,0.5c1.6,0.5,2.8,1.2,3.5,2c0.7,0.8,1,1.9,1,3.3c0,1.7-0.6,3-1.8,3.9C255.2,142.2,253.6,142.7,251.6,142.7z"></path>
	<path fill="#FFFFFF" d="M261.1,142.4v-17.7h3.3v17.7H261.1z"></path>
	<path fill="#FFFFFF" d="M268.2,142.4v-17.7h3.9l5.3,12.8l5.4-12.8h3.8v17.7h-3v-8.7l0.1-5l-0.4,1.3l-4.5,11.2H276l-4.4-11.3
		l-0.4-1.3l0.1,5.1v8.7H268.2z"></path>
	<path fill="#FFFFFF" d="M290.4,142.4v-17.7h5.9c1.4,0,2.6,0.2,3.6,0.5c1,0.4,1.8,0.9,2.3,1.7c0.6,0.8,0.9,1.8,0.9,3
		c0,0.8-0.1,1.6-0.3,2.3c-0.2,0.7-0.6,1.3-1.1,1.8c-0.5,0.5-1.2,0.9-2.1,1.2c-0.9,0.3-2,0.4-3.3,0.4c-1.1,0-2,0-2.7-0.1v6.8H290.4z
		 M295.9,133.4c0.7,0,1.2-0.1,1.7-0.2c0.5-0.1,0.9-0.3,1.2-0.5c0.3-0.2,0.5-0.5,0.7-0.7c0.2-0.3,0.3-0.6,0.3-0.9
		c0.1-0.3,0.1-0.6,0.1-0.9c0-1-0.3-1.7-0.9-2.2c-0.6-0.5-1.5-0.8-2.7-0.8h-2.7v6.2C293.7,133.4,294.5,133.4,295.9,133.4z"></path>
	<path fill="#FFFFFF" d="M305.5,142.4v-17.7h3.3v15.1h7.4l-0.1,2.6H305.5z"></path>
	<path fill="#FFFFFF" d="M318.4,142.4v-17.7h10.7l-0.1,2.6h-7.3v4.6h7v2.6h-7v5.3h7.6l-0.1,2.6H318.4z"></path>
	<path fill="#FFFFFF" d="M338.8,142.4v-17.7h6.6c0.9,0,1.7,0,2.3,0.1c0.7,0.1,1.3,0.2,1.9,0.4c0.6,0.2,1.1,0.5,1.4,0.9
		c0.4,0.4,0.7,0.8,0.9,1.4c0.2,0.6,0.3,1.3,0.3,2.1c0,2.3-1.1,3.9-3.2,4.6c0.4,0.5,1,1.4,1.6,2.7l2.6,5.5h-3.6l-2.1-4.6
		c-0.8-1.7-1.3-2.6-1.4-2.9c-0.1,0-0.6,0-1.4,0l-2.7,0v7.6H338.8z M345.6,132.5c1.3,0,2.2-0.2,2.7-0.7c0.5-0.4,0.8-1.2,0.8-2.2
		c0-0.9-0.3-1.5-0.8-1.9c-0.6-0.4-1.4-0.6-2.5-0.6H342v5.3c0.1,0,0.7,0,1.8,0C344.9,132.5,345.5,132.5,345.6,132.5z"></path>
	<path fill="#FFFFFF" d="M355.5,142.4v-17.7h10.7l-0.1,2.6h-7.3v4.6h7v2.6h-7v5.3h7.6l-0.1,2.6H355.5z"></path>
	<path fill="#FFFFFF" d="M374.4,142.7c-2.1,0-4-0.5-5.7-1.5l0.8-2.6c0.8,0.4,1.6,0.8,2.5,1c0.9,0.3,1.8,0.4,2.6,0.4
		c1,0,1.8-0.2,2.4-0.7c0.5-0.4,0.8-1.1,0.8-1.9c0-1.1-0.7-1.9-2.2-2.3c-0.1,0-0.4-0.1-0.9-0.3s-0.9-0.3-1.4-0.4
		c-0.4-0.1-0.7-0.2-0.9-0.3c-2.4-0.8-3.6-2.4-3.6-4.7c0-1.6,0.6-2.8,1.7-3.7c1.1-0.9,2.6-1.3,4.5-1.3c2.1,0,4,0.4,5.5,1.3l-1,2.4
		c-1.6-0.7-3-1.1-4.4-1.1c-1,0-1.7,0.2-2.2,0.5c-0.5,0.3-0.8,0.9-0.8,1.7c0,1,0.5,1.6,1.5,1.9c0.2,0.1,0.7,0.2,1.4,0.5
		c0.8,0.2,1.2,0.4,1.5,0.5c1.6,0.5,2.8,1.2,3.5,2c0.7,0.8,1,1.9,1,3.3c0,1.7-0.6,3-1.8,3.9C378,142.2,376.4,142.7,374.4,142.7z"></path>
	<path fill="#FFFFFF" d="M383.7,142.4v-17.7h5.9c1.4,0,2.6,0.2,3.6,0.5c1,0.4,1.8,0.9,2.3,1.7c0.6,0.8,0.9,1.8,0.9,3
		c0,0.8-0.1,1.6-0.3,2.3c-0.2,0.7-0.6,1.3-1.1,1.8c-0.5,0.5-1.2,0.9-2.1,1.2c-0.9,0.3-2,0.4-3.3,0.4c-1.1,0-2,0-2.7-0.1v6.8H383.7z
		 M389.3,133.4c0.7,0,1.2-0.1,1.7-0.2c0.5-0.1,0.9-0.3,1.2-0.5c0.3-0.2,0.5-0.5,0.7-0.7c0.2-0.3,0.3-0.6,0.3-0.9
		c0.1-0.3,0.1-0.6,0.1-0.9c0-1-0.3-1.7-0.9-2.2c-0.6-0.5-1.5-0.8-2.7-0.8h-2.7v6.2C387,133.4,387.8,133.4,389.3,133.4z"></path>
	<path fill="#FFFFFF" d="M406.7,142.7c-2.7,0-4.8-0.8-6.3-2.4c-1.5-1.6-2.3-3.8-2.3-6.7c0-2.9,0.8-5.1,2.3-6.7
		c1.5-1.6,3.6-2.4,6.3-2.4c2.7,0,4.8,0.8,6.3,2.4c1.5,1.6,2.3,3.8,2.3,6.7c0,2.8-0.8,5-2.3,6.7S409.4,142.7,406.7,142.7z
		 M402.9,138.4c0.9,1.1,2.2,1.7,3.9,1.7c1.7,0,3-0.6,3.9-1.7c0.9-1.1,1.3-2.7,1.3-4.7c0-2.1-0.4-3.7-1.3-4.8
		c-0.9-1.1-2.2-1.7-3.9-1.7c-1.7,0-3,0.6-3.9,1.7c-0.9,1.1-1.3,2.7-1.3,4.8C401.5,135.7,402,137.2,402.9,138.4z"></path>
	<path fill="#FFFFFF" d="M418.5,142.4v-17.7h3.5c0.6,1,1.9,3,3.8,5.9c1.9,3,3.1,4.8,3.5,5.4c0.1,0.2,0.3,0.5,0.6,0.9
		c0.3,0.4,0.5,0.8,0.6,0.9c-0.1-2.8-0.1-4.2-0.1-4.3v-8.9h3v17.7h-3.5l-8-12.4l-0.6-1c0.1,2.1,0.1,3.6,0.1,4.5v8.9H418.5z"></path>
	<path fill="#FFFFFF" d="M442.2,142.7c-2.1,0-4-0.5-5.7-1.5l0.8-2.6c0.8,0.4,1.6,0.8,2.5,1c0.9,0.3,1.8,0.4,2.6,0.4
		c1,0,1.8-0.2,2.4-0.7c0.5-0.4,0.8-1.1,0.8-1.9c0-1.1-0.7-1.9-2.2-2.3c-0.1,0-0.4-0.1-0.9-0.3s-0.9-0.3-1.4-0.4
		c-0.4-0.1-0.7-0.2-0.9-0.3c-2.4-0.8-3.6-2.4-3.6-4.7c0-1.6,0.6-2.8,1.7-3.7c1.1-0.9,2.6-1.3,4.5-1.3c2.1,0,4,0.4,5.5,1.3l-1,2.4
		c-1.6-0.7-3-1.1-4.4-1.1c-1,0-1.7,0.2-2.2,0.5c-0.5,0.3-0.8,0.9-0.8,1.7c0,1,0.5,1.6,1.5,1.9c0.2,0.1,0.7,0.2,1.4,0.5
		c0.8,0.2,1.2,0.4,1.5,0.5c1.6,0.5,2.8,1.2,3.5,2c0.7,0.8,1,1.9,1,3.3c0,1.7-0.6,3-1.8,3.9C445.8,142.2,444.2,142.7,442.2,142.7z"></path>
	<path fill="#FFFFFF" d="M451.6,142.4v-17.7h3.3v17.7H451.6z"></path>
	<path fill="#FFFFFF" d="M463.3,142.4l-6.4-17.7h3.4l3.7,10.9c0.1,0.4,0.5,1.5,1,3.3c0-0.1,0.2-0.7,0.4-1.6c0.3-0.9,0.4-1.5,0.5-1.7
		c0.1-0.3,0.7-2.1,1.8-5.5c1.1-3.4,1.7-5.2,1.8-5.5h3.3l-6.3,17.7H463.3z"></path>
	<path fill="#FFFFFF" d="M474.6,142.4v-17.7h10.7l-0.1,2.6h-7.3v4.6h7v2.6h-7v5.3h7.6l-0.1,2.6H474.6z"></path>
	<path fill="#FFFFFF" d="M502.8,142.7c-2.6,0-4.6-0.8-6.1-2.4c-1.5-1.6-2.3-3.9-2.3-6.7c0-2.7,0.8-4.9,2.4-6.5
		c1.6-1.6,3.7-2.5,6.2-2.5c2.1,0,3.8,0.5,5.3,1.4l-1,2.5c-1.4-0.8-2.8-1.3-4.2-1.3c-1.6,0-2.9,0.6-3.9,1.8c-0.9,1.2-1.4,2.7-1.4,4.7
		c0,2,0.5,3.6,1.4,4.7c0.9,1.1,2.2,1.7,3.9,1.7c1.5,0,2.9-0.4,4.4-1.1l0.4,2.6C506.5,142.3,504.8,142.7,502.8,142.7z"></path>
	<path fill="#FFFFFF" d="M510.8,142.4v-17.7h3.3v7.2h8v-7.2h3.3v17.7H522v-7.9h-8v7.9H510.8z"></path>
	<path fill="#FFFFFF" d="M527.2,142.4l6.5-17.7h3.6l6.4,17.7h-3.4l-1.7-5h-6.2l-1.8,5H527.2z M533.2,135h4.5c-1.4-4.6-2.2-7-2.2-7.2
		L533.2,135z"></path>
	<path fill="#FFFFFF" d="M545.3,142.4v-17.7h6.6c0.9,0,1.7,0,2.3,0.1c0.7,0.1,1.3,0.2,1.9,0.4c0.6,0.2,1.1,0.5,1.4,0.9
		c0.4,0.4,0.7,0.8,0.9,1.4c0.2,0.6,0.3,1.3,0.3,2.1c0,2.3-1.1,3.9-3.2,4.6c0.4,0.5,1,1.4,1.6,2.7l2.6,5.5h-3.6l-2.1-4.6
		c-0.8-1.7-1.3-2.6-1.4-2.9c-0.1,0-0.6,0-1.4,0l-2.7,0v7.6H545.3z M552.2,132.5c1.3,0,2.2-0.2,2.7-0.7c0.5-0.4,0.8-1.2,0.8-2.2
		c0-0.9-0.3-1.5-0.8-1.9c-0.6-0.4-1.4-0.6-2.5-0.6h-3.8v5.3c0.1,0,0.7,0,1.8,0C551.5,132.5,552.1,132.5,552.2,132.5z"></path>
	<path fill="#FFFFFF" d="M565.7,142.4v-15.1h-5.2v-2.6h13.6v2.6h-5.1v15.1H565.7z"></path>
	<path fill="#FFFFFF" d="M581.1,142.7c-2.1,0-4-0.5-5.7-1.5l0.8-2.6c0.8,0.4,1.6,0.8,2.5,1c0.9,0.3,1.8,0.4,2.6,0.4
		c1,0,1.8-0.2,2.4-0.7c0.5-0.4,0.8-1.1,0.8-1.9c0-1.1-0.7-1.9-2.2-2.3c-0.1,0-0.4-0.1-0.9-0.3c-0.5-0.1-0.9-0.3-1.4-0.4
		c-0.4-0.1-0.7-0.2-0.9-0.3c-2.4-0.8-3.6-2.4-3.6-4.7c0-1.6,0.6-2.8,1.7-3.7c1.1-0.9,2.6-1.3,4.5-1.3c2.1,0,4,0.4,5.5,1.3l-1,2.4
		c-1.6-0.7-3-1.1-4.4-1.1c-1,0-1.7,0.2-2.2,0.5c-0.5,0.3-0.8,0.9-0.8,1.7c0,1,0.5,1.6,1.5,1.9c0.2,0.1,0.7,0.2,1.4,0.5
		c0.8,0.2,1.2,0.4,1.5,0.5c1.6,0.5,2.8,1.2,3.5,2c0.7,0.8,1,1.9,1,3.3c0,1.7-0.6,3-1.8,3.9C584.7,142.2,583.1,142.7,581.1,142.7z"></path>
</g>
<g>
</g>
<g>
</g>
<g>
</g>
<g>
</g>
<g>
</g>
<g>
</g>
</svg>
