<svg width="108" height="81" viewBox="0 0 108 81" xmlns="http://www.w3.org/2000/svg"><title>logo grey</title><g fill="#E5E5E5" fill-rule="evenodd"><path d="M28.78 34.547c1.84 1.085 4.323.153 5.548-2.08 1.225-2.236.73-4.928-1.11-6.014-1.838-1.085-4.32-.154-5.546 2.08-1.225 2.236-.73 4.928 1.11 6.014z"/><path d="M107.97 54.78c-.28-2.386-2.305-1.37-3.273-.148-.575.726-5.84 6.472-5.905.97-.056-4.82 3.056-7.985 4.298-12.387 1.087-3.85-.03-8.077-4.523-5.62-3.523 1.924-6.744 5.81-9.494 9.553-.41.56-.855.86-.706.337.824-2.904 4.774-9.428 5.98-12.1 2.055-4.56 4.126-9.418 4.757-14.426.68-5.386-2.17-9.94-8.037-7.347-5.004 2.212-7.295 8.594-8.55 13.486-1.852 7.206-2.82 13.688-3.563 22.518-.072.866-.198 2.134-.287 3.564-2.56 2.79-6.382 5.63-10.157 5.63-5.157 0-5.15-6.466-4.163-9.843.534-1.827 1.646-4.832 3.318-5.968 2.057-1.396 2.987.112 2.536 1.934-.274 1.072-.686 1.83-.446 2.587.654 2.058 3.31 2.79 5.153-.145 5.59-8.89-7.237-13.275-13.26-6.408-3.63 4.14-5.238 11.73-3.2 17.047-1.904.848-3.97 1.452-5.183.793-2.697-1.468.324-10.266 1.135-13.217 1.275-4.643-1.192-9.808-6.386-6.126-2.167 1.535-3.89 3.61-4.692 4.7-.543.742-.656.56-.656.56.036-.578.384-2.176.62-4.36.107-.996.044-2.296-.822-2.75-.89-.468-2.596-.615-3.738.163-.962.655-1.443 2.794-1.63 3.796-.95 5.145-1.978 10.706-2.422 14.704-2.29 1.685-5.03 3.444-6.704 2.356-2.036-1.323.042-7.58.56-9.27.898-2.94 1.946-6.407 2.832-9.576.67-2.395-1.433-2.842-4.166-2.32-1.44.274-2.394 1.684-2.79 2.88-.023.07-.046.14-.07.207-2.062.792-6.267 2.13-12.593 1.393.048-.997.158-1.825.237-2.227 7.045-31.895 29.05-44.85 26.574-20.035-.065.66-.352 2.784.388 3.61.563.63 2.12.855 2.946-.303.952-1.334 2.315-5.147 2.535-9.67.716-14.67-24.1-29.235-38.29 26.738l-.058.168c-.015.056-.06.263-.126.56-.818-.228-1.66-.49-2.528-.79-1.847-.636-3.316 1.26-3.417 3.227-.1 1.966 1.333 3.165 2.996 3.56.52.124 1.036.236 1.55.338-.04.16-.074.307-.103.416-.493 2.375-2.374 12.806-2.624 18.047-.04.826-.25 3.762.174 6.803.157 1.123.348 2.198.637 3.217.29 1.02.67 1.918 1.14 2.698.47.78 1.56 2.546 4.243 2.687 2.417.127 4.328-1.334 4.983-1.965 3.218-3.1 3.976-7.064 4.427-9.224.6-2.874.443-6.58-.07-8.8-.403-1.746-2.09-8.555-4.558-13.17 3.492-.114 6.804-.79 9.86-2.01-1.225 4.133-2.152 8.317-2.152 12.75 0 8.17 8.6 5.23 13.922 1.93.063 1.584.475 3.142 2.073 3.328.343.042.496.12 1.14-.076.455-.14 1.09-.45 1.59-1.596.618-1.414 2.118-4.83 2.953-6.564 2.055-4.27 3.935-6.5 5.99-8.37.5-.454.778-.126.655.642-1.483 6.953-3.866 19.35 6.91 15.86 1.233-.4 3.082-1.404 4.606-2.58 1.582 1.71 3.88 2.79 7.028 2.79 3.82 0 7.318-2.5 9.945-5.07.468-.455.893-.84 1.28-1.18.127 2.603.622 5.003 1.938 6.024 3.588 2.782 6.973-7.694 8.502-10.222 1.586-2.62 4.017-6.55 6.357-7.65.222-.104.41.15 0 .647-3.422 5.153-5.795 17.647 2.414 17.7 3.614.025 7.03-2.755 8.524-4.54 1.19-1.422 1.81-3.392 1.637-4.864zM10.28 72.683c-.46 1.085-1.693 2.627-2.227 2.264-1.117-.758-1.186-6.783-.92-10.87C7.4 59.93 8.806 53.02 8.924 52.61c.12-.41.216-.614.292-.61.23.012 1.248 1.876 1.704 3.508.905 3.247 1.092 7.92 1.08 8.845-.013.927-.09 4.462-1.722 8.33zM85.074 45c-.434-.015 1.138-10.307 2.325-15.186C87.882 27.822 90.64 18 93.385 18c2.03 0-1.558 10.653-2.278 12.674.23-.6.572-1.484-.103.283-1.87 4.723-5.498 14.058-5.93 14.043z"/></g></svg>