<svg width="240" height="152" viewBox="0 0 240 152" xmlns="http://www.w3.org/2000/svg"><title>logo</title><g fill="none" fill-rule="evenodd"><path d="M162.188 65.926s-5.286-4.955 8.217-8.104c2.376-.555 3.793-.775 4.422-.815 1.01-.065-6.436 5.385 2.945 8.336 0 0-12.875 6.25-15.584.583" fill="#DE761F"/><path d="M197.348 78.353c-1.235-1.128-2.105-1.894-2.732-2.425-2.407-2.04-5.57-5.478-6.498-6.743-1.4-1.91-1.31-2.728-4.364-5.072-2.132-1.636-5.33-.177-7.155.712-10.828 5.268-13.437 3.037-15.078.1.172 2.202 2.727 6.32 10.375 3.418 12.926-4.907 1.542 9.282-11.087 21.43-.138.132 30.718-.6 31.074-.976.955-1.01 1.947-1.967 2.936-2.9 3.557-3.35 4.073-6.023 2.528-7.544" fill="#F78A33"/><path d="M173.218 67.474c-3.08.864-6.733 2.395-9.82.742l8.236 10.47s8.387-8.98 6.425-11.048c-.92-.97-2.964-.868-4.842-.164" fill="#CE6A21"/><path d="M183.31 63.847c1.47 2.23.122 6.246-5.726 14.19-1.93 2.624 4.48-3.844 6.295-6.295 1.93-2.608 2.212-3.822 1.93-5.796-.06-.413-2.62-2.278-2.5-2.1" fill="#DE761F"/><path d="M174.844 57.006c.877 0-8.235 5.057 1.087 7.99 0 0 .354-.063.67-.17 1.327-.456 3.218-1.402 4.964-1.402.647 0 1.274.13 1.845.463l.157.104.187.123.114.09c.69.5 1.775 1.364 1.92 1.69 1.098 1.158 1.354 1.96 2.33 3.292.927 1.265 4.09 4.702 6.498 6.743.627.53 1.497 1.297 2.732 2.425 1.545 1.52 1.028 4.193-2.528 7.544-.99.932-1.98 1.89-2.936 2.9-.327.345-26.403.992-30.528.992-.364 0-.558-.006-.546-.017 3.85-3.705 7.714-7.595 10.824-11.087l-7.68-10.3s-.926-1-1.156-1.245c0 0-5.896-6.17 7.607-9.318 2.376-.555 3.793-.775 4.422-.815h.017m0-2l-.146.004c-.93.06-2.617.367-4.747.864-5.956 1.39-9.294 3.55-10.204 6.605-.782 2.624.642 5.033 1.606 6.043l1.06 1.14 6.636 8.9c-2.586 2.827-5.817 6.105-9.625 9.768-.588.567-.774 1.434-.47 2.19.51 1.27 1.695 1.27 2.403 1.27 2.162 0 9.987-.173 16.746-.37 14.447-.417 14.49-.464 15.234-1.248 1.005-1.06 2.054-2.064 2.855-2.82 2.618-2.465 3.957-4.81 3.98-6.968.015-1.332-.476-2.527-1.42-3.456l-.053-.05c-1.118-1.023-2.056-1.855-2.788-2.475-2.4-2.034-5.406-5.346-6.18-6.4-.33-.452-.564-.83-.81-1.23-.398-.64-.808-1.304-1.525-2.088-.27-.386-.857-1.013-2.32-2.077l-.1-.078c-.097-.075-.192-.137-.288-.197l-.227-.147-.044-.026c-.836-.488-1.796-.736-2.852-.736-1.714 0-3.357.642-4.678 1.157-.312.123-.607.238-.878.333-2.08-.737-2.307-1.38-2.308-1.387-.03-.138.026-.724 1.966-2.422.606-.53 1.62-1.418 1.11-2.78-.302-.8-1.06-1.318-1.93-1.318" fill="#CE6A21"/><path d="M210.56 100.21c-.38 0-1.27.16-2.773.536-12.59 3.147-33.995 3.777-33.995 3.777 2.916.897 6.27 1.254 9.744 1.254 6.85 0 14.168-1.392 19.49-2.783 5.324-1.393 8.655-2.785 7.535-2.784" fill="#EEC7C1"/><path d="M215.28 92.13c.16-2.364.198-4.62-.42-6.79-.988-3.48-8.852-5.16-10.745-5.894-1.74-.675-5.037-2.098-7.394-3.764-.158 1.354 1.745 3 6.594 5.01 23.227 9.62-45.445 10.383-45.445 10.383-3.036-.02-3.047-1.313-2.02 3.27 2.073 9.25.778 20.613.842 22.25.03.78 1.65 10.274 4.5 10.415.2.01.775-.52.866-.725 3.49-7.817 27.113-16.04 47.228-17.157 4.88-.27 7.524-1.458 6.795-4.14-.634-1.724-.812-3.013-.95-3.823-.524-3.112.043-7.472.15-9.036" fill="#F78A33"/><path d="M204.64 81.12c-2.914-1.325-6.283-2.29-7.92-5.1l-.517 12.653s12.256-1.462 12.088-4.308c-.077-1.334-1.762-2.574-3.65-3.246M215.2 86.82s.9 6.897-14.725 8.85c-4.197.525 14.21.96 14.584-1.47.786-5.114.14-7.38.14-7.38M157.943 109.845c-.25 3.5-.14 6.132-.25 6.75-.27 1.5 1.65 10.274 4.5 10.415.2.01.724-.283.866-.724.34-1.062 1.256-2.043 2.34-3.06 6.56-6.218 20.467-9.89 32.056-12.723" fill="#DE761F"/><path d="M196.72 75.682c2.36 1.666 5.655 3.09 7.395 3.764 1.894.735 9.757 2.414 10.746 5.893.156.544.27 1.094.35 1.65-.002-.11-.01-.17-.01-.17s.58 2.044-.033 6.62c-.183 2.022-.452 5.262-.036 7.725.138.81.316 2.1.95 3.823.73 2.682-1.915 3.87-6.794 4.14-3.905.217-7.94.704-11.937 1.402-11.57 2.83-25.41 6.497-31.95 12.697-1.084 1.015-2 1.997-2.34 3.058-.14.435-.65.725-.856.725h-.01c-.22-.01-.434-.09-.642-.196-.14.108-.275.196-.354.196h-.005c-2.85-.14-4.47-9.635-4.5-10.415-.065-1.637 1.23-13-.842-22.25-.653-2.916-.887-3.454-.19-3.454.4 0 1.105.177 2.21.185 0 0 23.476-.262 38.333-2.402h.002-.002l.518-12.653.01.014c-.016-.12-.023-.237-.01-.352m0-2c-.277 0-.555.057-.816.174-.645.29-1.09.897-1.17 1.6-.02.178-.026.36-.014.55l-.447 10.912c-14.57 1.893-36.2 2.155-36.426 2.157-.523-.004-.952-.06-1.33-.11-.308-.04-.573-.074-.855-.074-1.06 0-1.653.546-1.912.87-.78.98-.55 1.98-.09 3.97l.24 1.053c1.6 7.148 1.114 15.61.88 19.677-.07 1.21-.102 1.81-.087 2.213.005.12 1.284 12.082 6.4 12.335l.105.002c.168 0 .326-.02.473-.052.142.026.283.043.424.05l.11.003c1.166 0 2.377-.928 2.758-2.112.213-.662 1.077-1.53 1.805-2.21 6.05-5.735 19.16-9.305 30.992-12.2 4.02-.7 7.934-1.158 11.637-1.363 4.24-.236 6.787-1.14 8.02-2.85.54-.75 1.08-2.018.593-3.812l-.052-.165c-.513-1.394-.688-2.455-.816-3.23l-.04-.236c-.384-2.284-.093-5.56.053-7.17.64-4.818.04-7.137-.03-7.386l-.01-.032c-.087-.5-.198-.987-.33-1.452-1.106-3.892-7.004-5.685-10.528-6.756-.613-.186-1.142-.347-1.42-.454-1.02-.397-4.542-1.823-6.962-3.534-.343-.242-.748-.366-1.155-.366M124.724 32.773l-.995-.535c-12.183-6.548-23.488-9.868-33.6-9.868-6.84 0-11.562 1.536-14.317 2.824l-1.385-2.66 14.517-8.36c2.297-1.106 5.26-1.666 8.806-1.666 7.717 0 17.69 2.648 26.68 7.083l.81.402.024.905c.025.918.228 2.578.45 3.804.183-.04.356-.055.51-.055 1.032 0 1.79.658 2.295 1.093l.25.212c1.19.366 1.798.56 2.167.854.64.21 1.242.31 1.818.31l.185-.004 5.703-.217-4.858 2.993c-.28.172-.533.365-.755.574l-.144.137-.176.094c-.838.45-2.2.986-3.94.986-.876 0-1.75-.14-2.604-.413-.128.128-.284.295-.47.5l-.183.2-.79.81M90.13 19.37c10.327 0 21.76 3.257 34.002 9.685.197-.193.392-.364.59-.506-1.697-.313-2.266-3.58-2.42-6.658-8.275-3.95-17.606-6.384-24.55-6.384-3.067 0-5.575.453-7.46 1.345l-4.76 2.745c1.422-.145 2.955-.228 4.597-.228m36.01 8.735h.12l.34.125c.14.058.28.11.42.157-.162-.12-.313-.25-.463-.38l-.19-.163c-.07.096-.145.183-.227.26M146.816 55.7l-.524-3.346 1.297-.447.626 1.415 1.207-.243-1.2.256.578 1.306-.56-.923.164.453.256.544-1.844.982zm.434-3.63l.705 1.323-.705-1.323z" fill="#CE6A21"/><path d="M130.708 126.655l-1.96-2.272.013-.01c10.606-9.062 16.725-22.843 18.188-40.96.704-8.72.252-18.418-1.27-27.458h-.313l-.306-1.1c-.147-.53-.02-.93.203-1.233l-.03-.167.463-.254c.152-.112.303-.203.427-.277l1.863-1.116.017.092c2.19-1.27 5.54-3.282 7.797-4.86l1.87-1.31.46 2.237c4.76 23.243 4.09 55.593-26.124 77.71-.583.426-1.03.748-1.298.978zm17.855-71.617c1.74 10.13 4.734 36.623-6.476 57.397 13.673-15.766 18.22-36.43 13.534-61.664-2.487 1.614-5.388 3.32-7.057 4.268z" fill="#CE6A21"/><path d="M145.133 16.654l1.086-3.56.073-.193c.325-1.127-.766-2.202-3.648-3.59-2.248-1.084-5.316-2.208-8.64-3.163-4.45-1.28-8.6-2.045-11.1-2.045-.692 0-2.526 0-2.892 1.225L118.87 9.07c-5.108-.988-6.998-.844-7.387.512l-2.098 6.953c-.23.788-.472 1.845-.132 2.912.163.53.484 1.022.883 1.403.198.194.42.355.644.5.24.155.424.24.637.362.83.452 1.686.913 2.565 1.33 1.76.84 3.586 1.49 5.302 2.042.858.28 1.693.53 2.484.762.792.233 1.542.445 2.236.636.694.19 1.33.362 1.894.515l1.463.387 1.277.333-1.252-.414c-.397-.133-16.025-6.668-16.25-8.512-.096-.33-.11-.692-.066-1.057.043-.37 1.3-4.628 1.725-6.087.88.575 2.262 1.256 4.365 2.12 3.508 1.44 8.255 3.044 13.366 4.514 4.783 1.376 9.344 2.477 12.974 3.14 1.766.216 2.738.545 4.127.563.567.007.93.09 1.346.142l-.488 1.744c.14.036 1.676.5 1.757.525l1.04-3.366c.26-.903-.03-1.92-6.15-4.376M122.907 5.937c2.303 0 6.363.755 10.593 1.972 5.905 1.698 9.445 3.465 10.62 4.364-.182.02-.42.032-.725.032-2.304 0-6.364-.756-10.593-1.972-5.906-1.7-9.447-3.466-10.623-4.365.182-.02.42-.033.726-.033m-8.893 4.324c.748.017 2.056.146 4.318.574l-.387 1.27c-1.81-.738-3.14-1.37-3.93-1.843m5.642 2.52l1.594-5.224c.588.43 1.382.884 2.406 1.378 2.247 1.083 5.315 2.206 8.64 3.162 4.448 1.28 8.598 2.044 11.1 2.044h.006c.154 0 .357 0 .585-.013l-1.592 5.216c-3.033-.61-6.88-1.537-11.36-2.825-4.614-1.327-8.454-2.622-11.38-3.74m24.552 6.91l.39-1.273c2.035.824 3.247 1.426 3.96 1.838-.97-.042-2.444-.226-4.35-.565" fill="#EE7928"/><path d="M61.443 97.984c6.61 14.495 19.738 24.574 24.87 28.115 2.973-.085 6.433 1.596 9.904 3.278 3.697 1.79 7.407 3.58 10.555 3.24 9.35-1.4 11.45-2.328 20.336-5.558 4.04-1.823 12.997-12.842 16.692-15.285.703-.59 1.387-1.197 2.062-1.813 3.285-12.49 6.756-24.942 8.85-37.69.7-6.083 1.057-12.186 1.08-18.316.006-2.18.3-4.288.827-6.3l-.028-.083.06-.05c3.62-3.723 4.457-6.953 5.015-9.68-.002-1.587-.39-3.31-1.385-5.122.1-1.29-6.464-8.755-14.312-8.37-3.09.15-6.33 1.226-9.116 2.438-5.297 2.304-6.393-4.338-15.61-7.96-.423-.165-.868-.328-1.322-.49h-.005c-6.53-.236-13.057-.45-19.59-.502-1.27.328-2.59.503-3.936.503-.22 0-.435-.024-.653-.033-.104.042-.227.086-.39.137-.996.284-2.07.162-3.36.04-2.268-.214-5.203-.43-9.537 1.572-1.065.49-7.992 3.13-8.017 3.137-13.865 10.592-21.628 26.63-21.628 26.81 0 1.592-.3 13.798.09 14.075-3.193 1.91-11 6.757-11 15 0 10.712 6.923 18.993 17.66 18.993.638 0 1.267-.03 1.888-.086" fill="#CAEBF8"/><path d="M148.097 53.317l-.145.057.003.02.142-.077" fill="#E96E24"/><path d="M146.893 54.21c.718 4.002 9.272 48.738-17.17 71.314 3.644-3.124 38.054-22.972 26.937-77.256-4.197 2.937-11.98 7.267-9.767 5.942" fill="#F78A33"/><path d="M53.64 67.756c-.018 0 .08.036.338.115l-.01-.023c-.19-.058-.312-.09-.33-.09M113.8 19.105l.06.033.05-.028-.11-.005" fill="#B3E2F1"/><path d="M53.19 34.7l-.13.264c-.105.227-.235.446-.32.68-.082.236-.167.47-.255.704-.074.237-.12.48-.183.722-.074.24-.078.49-.116.737-.014.123-.035.247-.043.37l-.003.376c-.003.148-.004.297 0 .447.277-1.655.63-3.076 1.05-4.3m6.757-6.864c-.2.058-.402.12-.6.186.2-.065.4-.122.6-.186m.023-.007l-.022.005c.007 0 .014-.004.022-.006m.645-.18c-.067.014-.133.03-.2.05l.105-.027.095-.024m2.036-.417c-.397.058-.793.126-1.184.212-.288.055-.57.13-.85.204.07-.018.143-.034.216-.047.3-.06.597-.126.897-.175l.907-.107.153-.01-.14-.077" fill="#D6F0F7"/><path d="M93.59 12.61c-.125-1.556-4.028-4.68-5.95-4.463-.48.054-.82.288-1.06.608-.717.962-.92 1.25-1.52-.405-.82-2.268-2.036-4.912-3.18-4.704-9.285-.09-23.454 5.046-22.324 7.92 1.98 5.042-4.32 7.562-4.32 7.562l5.87.927c3.34.434 5.817 1.578 8.576 3.484.776.535 1.405.862 2.137 1.44 5.358-2.223 22.588-6.6 23.003-6.406-.437-1.236-1.133-4.687-1.234-5.963" fill="#E34E25"/><path d="M94.823 18.574c-.437-1.236-1.133-4.687-1.234-5.963-.125-1.556-4.028-4.68-5.95-4.463-.48.054-.82.288-1.06.608-.717.962-.92 1.25-1.52-.405-.82-2.268-2.036-4.912-3.18-4.704-9.285-.09-23.454 5.046-22.324 7.92 1.98 5.042-4.32 7.562-4.32 7.562l5.87.927c3.34.434 5.817 1.578 8.576 3.484.776.535 1.405.862 2.137 1.44.202-.116.413-.228.627-.34l.03.018.378-.225c7.763-3.883 21.572-6.045 21.968-5.86" fill="#F78A33"/><path d="M93.912 14.187h-.102l.008.045.1-.045h-.006" fill="#D16428"/><path d="M93.81 14.188l.008.044-.008-.044" fill="#DE532B"/><path d="M93.81 14.188c-1.174.022-11.77.46-20.03 9.092l20.038-9.048-.008-.044" fill="#E97733"/><path d="M86.284 20.14c1.117-1.817 5.512-4.62 7.32-5.882.477-.333-2.044-4.13-1.54-4.404 1.35-2.047-1.938-1.064-2.662-1.008-.482.038-1.183-.258-1.433.054-.75.937-.523-.018-1.153.06-2.054.26-1.963-3.576-2.623-4.565-1.604 1.59-1.888 1.746-4.033 2.547-.156 2.99-.47 4.407-.628 6.925-.068 1.08 4.758-2.2 4.406-.944 2.52 2.203-3.2 4.538.054 5.665.595-1.123 1.438 2.515 2.292 1.55" fill="#DE761F"/><path d="M143.194 61.71l-.31-1.253c-.19-.826-.415-1.614-.615-2.375-.43-1.514-.836-2.9-1.235-4.12-.393-1.22-.763-2.276-1.073-3.145-.323-.864-.568-1.548-.754-2.006l-.287-.703s.55.905 1.377 2.567c.403.834.898 1.85 1.394 3.042.515 1.188 1.05 2.546 1.583 4.05.523 1.505 1.076 3.145 1.54 4.915.26.88.46 1.8.7 2.73.21.94.417 1.902.594 2.887.17.986.355 1.987.48 3.01.068.512.15 1.025.205 1.544l.142 1.567c.108 1.048.12 2.113.186 3.177.004 1.068.04 2.14 0 3.212-.056 1.072-.083 2.145-.212 3.21l-.16 1.592-.24 1.574c-.3 2.095-.835 4.116-1.405 6.047-.125.487-.312.953-.473 1.42-.17.466-.335.926-.5 1.382-.35.904-.767 1.76-1.132 2.604-.808 1.658-1.646 3.187-2.544 4.52l-.635.99-.675.898c-.446.578-.852 1.138-1.262 1.64-.865.97-1.597 1.83-2.255 2.486-1.345 1.284-2.12 1.998-2.12 1.998s.668-.828 1.846-2.24c.578-.717 1.2-1.65 1.966-2.668.357-.53.705-1.113 1.09-1.716l.588-.925.55-1.01c.777-1.357 1.483-2.897 2.193-4.532.312-.837.672-1.68.965-2.568.26-.9.604-1.793.842-2.735.504-1.877.916-3.843 1.204-5.862l.218-1.52.138-1.54c.115-1.027.127-2.066.175-3.103.05-1.036.025-2.076.032-3.11-.053-1.035-.053-2.067-.15-3.088-.143-2.043-.356-4.053-.65-5.988-.14-.97-.328-1.913-.478-2.844" fill="#68C8CD"/><path d="M69.638 11.17c-1.347.16 1.54-.37 1.424-.34.886-.23 1.774-.465 2.637-.776.923-.333 1.82-.72 3.134-1.443 2.61-1.435 4.303-2.61 6.24-4.285-.393-.478-.798-.75-1.195-.68-9.285-.088-23.454 5.047-22.324 7.922.05.124.088.245.127.366.256-.026.513-.04.773-.042 2.37-.01 4.673-.09 6.936-.244.723-.224 1.477-.384 2.246-.475M60.996 41.092c0-4.376 3.826-7.777 8.1-7.777.452 0 .896.045 1.333.118-.047-.32-.072-.648-.072-.982 0-2.353 1.113-4.42 2.8-5.83-3.237-2.604-6.995-5.157-6.98-5.22-9.34-1.812-17.44-1.867-19.697 10.67-.606 3.376 3.882 9.174 9.453 12.38.177-.237.368-.46.57-.676l.1-.104c.177-.182.362-.355.554-.52l.125-.106c.21-.172.428-.335.654-.486l.066-.047c.258-.168.525-.324.8-.464l.026-.012c.252-.126.51-.238.774-.34l.237-.082c.2-.07.4-.132.607-.187.096-.025.19-.05.287-.07.09-.02.183-.034.274-.05l-.012-.213" fill="#CAEBF8"/><path d="M66.563 30.373c-2.27-1.76-6.526-4.07-10.492-.78-3.602 3.12-.716 6.677-.716 6.677s2.105-9.816 10.83-5.577c.126-.11.248-.22.38-.32" fill="#ACDFEF"/><path d="M61.77 35.7c-.235-.142-.458-.323-.706-.475-.28-.157-.502-.4-.764-.594l-.19-.152-.17-.177-.338-.35c-.123-.108-.197-.253-.3-.377-.086-.133-.213-.242-.278-.387-.076-.138-.156-.273-.237-.407-.087-.132-.125-.283-.195-.42-.14-.273-.21-.565-.31-.837-.05-.282-.14-.55-.17-.807-.086-.513-.106-.963-.117-1.283-.01-.32 0-.512 0-.512s-.118.153-.255.458c-.07.152-.146.34-.215.565-.062.225-.138.484-.166.775-.055.29-.05.61-.05.952.046.336.053.707.178 1.067.083.373.25.73.43 1.09.08.188.213.342.325.51.123.16.224.344.37.485l.427.426.217.208.24.17c.322.22.625.465.965.602.263.12.516.244.766.34.12-.322.3-.618.542-.867" fill="#ACDFEF"/><path d="M61.176 36.107c.257-.05.6-.295.834-.52l-.31-.303c-.226-.198-.42-.448-.65-.667-.244-.212-.41-.493-.627-.738l-.156-.19-.127-.207-.26-.413c-.098-.132-.14-.288-.216-.43-.057-.15-.16-.282-.193-.437-.045-.15-.096-.3-.148-.446-.058-.147-.064-.302-.105-.45-.08-.297-.09-.597-.132-.884.01-.286-.025-.566 0-.824.02-.52.093-.966.148-1.28.057-.317.105-.502.105-.502s-.147.125-.343.395c-.1.134-.213.304-.326.51-.108.207-.236.444-.322.723-.113.273-.175.587-.243.922-.025.338-.094.703-.046 1.08.004.384.095.768.198 1.157.04.2.138.377.212.566.088.182.15.383.262.55l.33.505.17.247.2.217c.27.28.518.582.822.786.293.217.57.437.858.598.022.012.268.09.064.033" fill="#68C8CD"/><path d="M67.027 30.444c-.313-.317-.69-.666-1.143-1.02-.402-.314-.855-.64-1.372-.933-.516-.29-1.084-.575-1.714-.778-.627-.205-1.306-.37-2.017-.407-.71-.04-1.444.024-2.153.204-.707.19-1.37.507-1.97.88-.603.368-1.12.828-1.575 1.35-.455.513-.788 1.108-.994 1.71-.204.605-.265 1.215-.21 1.755.04.542.187 1.013.35 1.404.162.393.356.705.524.95.167.25.326.42.432.538.108.115.17.17.17.17s-.17-.292-.365-.83c-.19-.534-.41-1.33-.343-2.24.035-.454.16-.924.368-1.38.223-.45.537-.89.928-1.284.386-.39.874-.75 1.385-1.055.512-.307 1.064-.545 1.637-.7.573-.158 1.17-.225 1.76-.206.592.02 1.182.095 1.744.243.56.15 1.103.33 1.605.545.5.222.97.45 1.394.685.48.267.898.526 1.262.763.086-.13.184-.253.295-.366" fill="#68C8CD"/><path d="M151.562 36.02c-5.616-6.636-14.34.122-14.34.122 6.297-2.726 9.426-1.45 11.29.952-.058.13.05.49 0 .63-.17.29-.18.665-.394.95-.108.14-.183.306-.308.44-.12.135-.24.273-.354.416-.104.152-.272.25-.398.386-.142.12-.256.27-.42.37l-.457.332-.226.168-.25.136c-.34.17-.64.4-.995.524-.346.135-.662.32-.99.436-.333.103-.645.22-.936.332-.29.118-.568.193-.814.266-.247.07-.462.146-.64.205-.36.122-.567.21-.567.21s.213.046.59.094c.19.022.423.054.69.072.266.024.57.057.898.017.33-.02.69-.045 1.07-.092.38-.05.774-.166 1.184-.273.416-.087.813-.306 1.226-.49l.31-.148c.098-.06.193-.127.29-.193l.575-.4c.194-.132.346-.32.52-.48.162-.17.345-.32.474-.516.277-.375.542-.75.713-1.16.135-.24.217-.496.29-.746 2.145 2.053 1.433 5.218 1.433 5.218s4.02-3.48.536-7.78" fill="#ACDFEF"/><path d="M74.29 23.518c-1.61.753-2.483 1.297-2.483 1.297l2.483-1.297" fill="#E77654"/><path d="M81.614 55.576c.105-.888.203-1.8.298-2.668l.315-2.72c.12-.89.296-1.758.423-2.62l.8-4.982c.706-3.15 1.204-6.09 1.91-8.627.613-2.567 1.288-4.763 1.817-6.59.61-1.79 1.036-3.23 1.416-4.174.346-.96.568-1.46.568-1.46s-.29.46-.773 1.362c-.508.894-1.178 2.237-1.99 3.974-.75 1.76-1.72 3.884-2.577 6.414-.977 2.495-1.783 5.398-2.728 8.56l-1.21 4.992c-.206.865-.427 1.744-.602 2.644l-.48 2.75c-.264 1.58-.56 3.212-.822 4.864 1.175-.633 2.382-1.216 3.636-1.72" fill="#CAEBF8"/><path d="M132.998 28.61c-.947.035-1.893-.142-2.797-.473-.674-.247.745.052-1.983-.788-.723-.223-1.89-2.31-3.043-.42-.665 1.09-1.365-4.352-1.41-5.994-11.933-5.89-26.758-8.975-34.17-5.41l-14.417 8.31c6.973-3.26 23.398-6.82 49.263 7.08.2-.207 1.23-1.447 1.587-1.3 2.54 1.05 4.73.42 5.974-.246.305-.287.64-.54.998-.76" fill="#F78A33"/><path d="M148.097 53.317l-.145.057.003.02.142-.077" fill="#CE6A21"/><path d="M158.868 55.927c-.34-2.55-1.608-5.13-2.166-7.855-.584.377-1.328 1.37-1.925 1.7-.654.362-1.296.718-1.92 1.06-.625.337-1.21.697-1.805.964l-1.653.798c-.525.253-3.03.834-3.453 1.04.196 1.087 1.182 2.307 2.44 11.54 4.066-4.564 7.45-5.556 10.48-9.247" fill="#CE6A21"/><path d="M92.284 43.376s-.24.668-.557 1.77c.344-1.07.557-1.77.557-1.77" fill="#BDE6F4"/><path d="M153.45 38.548c-.11-.73-.372-1.478-.787-2.158-.415-.69-.912-1.32-1.53-1.862-.607-.55-1.3-1.046-2.07-1.41-.774-.348-1.602-.57-2.42-.67-.822-.1-1.632-.05-2.39.057-.76.104-1.47.314-2.118.542-.65.23-1.235.51-1.758.79-1.05.554-1.836 1.148-2.364 1.58-.525.44-.79.725-.79.725s.342-.186.95-.472c.61-.284 1.485-.673 2.55-1.038.535-.182 1.12-.348 1.734-.5.618-.146 1.276-.24 1.947-.297.673-.055 1.363-.023 2.043.076 1.75 2.79-.687 5.668-.687 5.668l-.188.21-.217.186c-.297.236-.544.524-.866.717-.31.203-.582.45-.88.63-.304.17-.585.348-.848.517-.26.175-.515.305-.74.427-.228.12-.424.238-.587.333-.325.192-.51.32-.51.32s2.08.433 5.398-1.816l.273-.206.244-.248.48-.51c.165-.17.275-.385.412-.576.124-.2.273-.383.358-.603.196-.425.378-.845.462-1.28.13-.423.127-.855.167-1.247-.01-.397-.018-.768-.09-1.103-.04-.305-.123-.575-.198-.816.62.294 1.197.676 1.716 1.125.522.454 1.006.965 1.37 1.488.366.53.635 1.097.8 1.657.145.564.192 1.126.14 1.65-.107 1.056-.52 1.922-.846 2.494-.333.575-.586.876-.586.876s.082-.05.23-.162c.144-.112.36-.276.602-.525.242-.247.526-.565.79-.982.268-.413.53-.922.687-1.534.173-.606.228-1.316.116-2.048" fill="#68C8CD"/><path d="M66.732 51.08l-.038-.083c-2.474-.345-3.563 1.672-3.557 3.514l-.104.05c-.025.133-.043.266-.054.403-.085 1.05.462 3.18 1.112 3.962 2.082-.125 3.476.16 5.57.614.678-.596 1.683-2.6 1.81-3.532-1.97-1.2-3.634-2.824-4.74-4.928" fill="#85D0D4"/><path d="M68.68 55.45c.16 1.075-.563 1.8-1.463 1.885-.9.083-1.64-.506-1.798-1.58-.16-1.076.44-2.015 1.34-2.1.9-.083 1.76.72 1.92 1.795" fill="#509EA6"/><path d="M61.89 54.036c-.222.126.786.67.54.698l-.464 2.635 5.2-1.8-4.785-3.463c-.417.226-.077 1.695-.49 1.93" fill="#CAEBF9"/><path d="M67.94 52.36c-.226-.148-.453-.296-.687-.437-.636-.384-1.302-.73-1.982-1.04-1.36-.61-2.79-1.03-4.15-1.22-.68-.094-1.34-.14-1.964-.153-.625-.008-1.214.035-1.754.085-.54.054-1.032.14-1.464.224-.433.083-.806.18-1.11.262-.307.08-.544.16-.706.21l-.248.082.257-.02c.168-.018.413-.04.724-.06.31-.03.69-.045 1.12-.063.432-.02.92-.018 1.447-.005.53.014 1.1.045 1.698.12.598.063 1.226.162 1.866.306 1.284.278 2.62.734 3.904 1.342.645.298 1.274.642 1.885 1 .413.246.813.503 1.205.764-.1-.454-.112-.935-.037-1.396" fill="#68C8CD"/><path d="M58.39 49.96c-.305-.027-1.715.01-1.998 0-2.046 5.456 1.66 10.548 1.696 10.597l.665-.52c-.036-.046-2.514-5.04-.363-10.077M63.198 45.234s.134.248.343.69l.173.365.22.413c.157.294.32.625.532.976l.317.547.366.57c.235.396.537.78.818 1.194.315.392.612.814.966 1.203.334.404.705.787 1.072 1.174.383.37.757.752 1.158 1.094.387.358.796.678 1.183 1.002l.59.452c.19.152.383.293.575.426.378.272.735.533 1.078.757.338.23.654.437.937.618.282.182.527.347.735.47.412.258.645.42.645.42s-.274-.06-.747-.19c-.238-.062-.524-.148-.844-.267l-.515-.18c-.18-.068-.363-.155-.558-.236-.193-.086-.397-.17-.604-.266l-.63-.32c-.218-.11-.433-.235-.65-.368-.22-.13-.444-.267-.667-.41-.436-.305-.894-.612-1.32-.978-.445-.342-.85-.747-1.263-1.14l-.58-.63c-.2-.204-.36-.44-.54-.656l-.26-.33c-.083-.112-.157-.23-.236-.343-.152-.228-.31-.45-.448-.68-.263-.466-.53-.908-.722-1.36-.1-.223-.203-.436-.29-.65l-.22-.625c-.156-.393-.244-.78-.33-1.113-.04-.167-.084-.322-.114-.466l-.063-.4c-.076-.482-.105-.762-.105-.762" fill="#68C8CD"/><path d="M83.647 95.84s11 8.626 22.875 6.75c11.875-1.874 18.875-11.5 16.75-23.874-.25 11.376-11.125 26.25-39.625 17.125" fill="#85D0D4"/><path d="M60.897 98.78l.546-.796s8.08 1.295 16.516-6.518c1.812 1.5 9.562 5.813 16.312 6.313-3.938.81-2.188 2.874-2.188 2.874s-8.937-3.688-13.625-8c-2.313 3.312-8.688 8.937-12.688 10.25-2.625-1.438-4.875-4.125-4.875-4.125" fill="#85D0D4"/><path d="M76.33 93.572l-.338.255c-.38.306-.842.59-1.332.91-.483.334-1.04.634-1.627.968-1.19.63-2.57 1.274-4.148 1.742-1.57.476-3.323.81-5.187.895-1.863.082-3.83-.113-5.795-.594-1.965-.48-3.91-1.3-5.708-2.41-1.794-1.112-3.465-2.507-4.797-4.18-1.353-1.65-2.444-3.526-3.08-5.526l-.236-.748c-.075-.25-.115-.496-.18-.74-.054-.254-.13-.477-.17-.752l-.18-1.172-.032-.386-.063-.768c-.017-.51-.028-1.018-.015-1.52.087-2.002.476-3.93 1.23-5.613.727-1.696 1.756-3.148 2.842-4.368 1.115-1.197 2.273-2.186 3.378-2.96 1.106-.77 2.127-1.373 2.995-1.82 1.738-.897 2.814-1.248 2.814-1.248s-.275.054-.785.193c-.51.142-1.257.357-2.178.723-.922.363-2.026.86-3.225 1.564-1.203.697-2.496 1.616-3.752 2.814-1.236 1.21-2.456 2.7-3.33 4.526-.91 1.803-1.464 3.913-1.603 6.11-.03.55-.036 1.106-.032 1.663l.044.837.02.42.055.438c.066.536.125 1.07.264 1.662.062.287.117.582.196.862l.252.83c.687 2.226 1.872 4.314 3.347 6.145 1.485 1.832 3.33 3.34 5.298 4.534 1.968 1.21 4.128 1.996 6.26 2.467 2.14.476 4.273.57 6.26.387 1.988-.174 3.824-.653 5.436-1.267.398-.165.8-.3 1.17-.48.37-.18.733-.354 1.086-.525.35-.175.672-.384.994-.565.32-.188.633-.362.915-.567.57-.397 1.12-.743 1.574-1.138.465-.378.9-.712 1.254-1.06.12-.113 1.058-1.293 1.17-1.395l-1.064.855" fill="#68C8CD"/><path d="M56.7 63.537s-1.075.35-2.813 1.248c-.868.447-1.89 1.05-2.995 1.82-1.105.774-2.263 1.763-3.378 2.96-1.086 1.22-2.115 2.672-2.84 4.368-.756 1.684-1.145 3.61-1.232 5.613-.013.502-.002 1.01.015 1.52l.063.768.03.386.183 1.172c.038.275.115.498.17.75.064.246.104.493.18.742l.234.748c.637 2 1.728 3.877 3.08 5.526 1.333 1.673 3.004 3.068 4.798 4.18 1.8 1.11 3.743 1.93 5.708 2.41 1.674.41 3.35.613 4.964.613.28 0 .556-.006.83-.018 1.865-.085 3.617-.42 5.188-.895 1.577-.468 2.958-1.11 4.148-1.742.586-.334 1.144-.634 1.627-.967.49-.322.952-.605 1.332-.91l.338-.256.012.005c.123 0 .913-.864 1.04-.864l.01.004c-.11.102-1.05 1.282-1.168 1.394-.354.35-.79.684-1.255 1.062-.455.395-1.004.74-1.575 1.138-.282.205-.596.38-.915.567-.322.18-.643.39-.994.565l-1.086.526c-.37.18-.772.314-1.17.48-1.613.613-3.45 1.092-5.438 1.266-.62.057-1.254.087-1.9.087-1.42 0-2.887-.145-4.358-.473-2.133-.47-4.293-1.258-6.26-2.468-1.97-1.196-3.814-2.703-5.3-4.535-1.474-1.83-2.66-3.92-3.346-6.144l-.252-.83c-.08-.28-.134-.576-.197-.863-.14-.59-.2-1.126-.265-1.662l-.054-.437-.02-.42-.045-.84c-.004-.556 0-1.112.032-1.66.14-2.2.693-4.31 1.603-6.112.874-1.825 2.094-3.315 3.33-4.525 1.256-1.197 2.55-2.116 3.752-2.813 1.2-.705 2.303-1.2 3.225-1.564.92-.366 1.67-.58 2.178-.723.51-.14.786-.193.786-.193m-.047-.245s-.282.055-.804.197c-.633.175-1.336.385-2.205.73-1.163.458-2.23.975-3.26 1.582-1.37.793-2.648 1.752-3.798 2.848-1.497 1.465-2.602 2.968-3.382 4.598-.923 1.827-1.486 3.974-1.628 6.204-.034.612-.035 1.22-.032 1.68l.044.848.022.42.072.59c.06.492.12 1 .252 1.554l.045.214c.048.222.095.445.155.66l.254.836c.67 2.172 1.81 4.267 3.39 6.228 1.415 1.745 3.22 3.29 5.363 4.59 1.85 1.138 3.982 1.98 6.337 2.5 1.43.318 2.915.48 4.413.48.64 0 1.286-.03 1.922-.09 1.84-.16 3.692-.592 5.503-1.28.145-.06.285-.115.423-.168.256-.098.52-.2.77-.322l.08-.038 1.005-.487c.237-.118.458-.25.675-.378.112-.067.222-.133.333-.196l.16-.093c.274-.158.533-.31.78-.488l.394-.27c.43-.294.84-.57 1.196-.88l.268-.217c.364-.292.707-.568 1-.857.06-.056.242-.277.615-.73.21-.258.498-.61.55-.66l.202-.196-.217-.18-.07-.055-.098-.004c-.148 0-.264.096-.698.505-.093.088-.217.205-.31.286l-.015-.016-.18.135-.27.203-.068.05c-.3.242-.65.47-1.023.71l-.297.193c-.384.264-.816.507-1.273.765l-.34.193c-1.476.782-2.78 1.33-4.096 1.72-1.676.507-3.4.805-5.127.885-.27.01-.545.018-.82.018-1.616 0-3.266-.203-4.904-.605-1.955-.478-3.852-1.278-5.637-2.38-1.9-1.177-3.49-2.564-4.732-4.123-1.416-1.724-2.437-3.556-3.038-5.446l-.236-.747c-.04-.137-.07-.275-.1-.412-.025-.107-.048-.213-.076-.32-.018-.083-.04-.174-.065-.265-.04-.145-.077-.29-.1-.455l-.182-1.176-.03-.368-.062-.768c-.014-.436-.028-.964-.014-1.493.09-2.07.497-3.928 1.21-5.518.634-1.483 1.575-2.93 2.8-4.304 1.04-1.116 2.162-2.1 3.333-2.92 1.003-.698 2-1.306 2.967-1.803 1.696-.875 2.766-1.23 2.777-1.233l-.127-.482" fill="#68C8CD"/><path d="M57.606 75.583s-.236-.033-.68-.063c-.44-.047-1.092-.053-1.915-.094-.826-.003-1.825-.023-2.972.027-1.146.007-2.436.15-3.838.23l-2.18.262c-.376.05-.76.08-1.147.136-.386.065-.778.13-1.176.194-.793.135-1.61.253-2.44.41-.825.19-1.67.36-2.53.542-.427.093-.862.175-1.295.28l-1.3.352c-.87.24-1.75.477-2.643.704-.884.26-1.763.564-2.65.846l-1.333.43c-.445.142-.89.285-1.322.467l-2.622.996c-.87.337-1.75.64-2.58 1.044-1.668.788-3.37 1.436-4.94 2.23-1.56.813-3.085 1.57-4.532 2.293l-3.963 2.248-1.77.997c-.564.315-1.065.665-1.555.966l-2.528 1.584c-1.41.87-2.23 1.356-2.23 1.356s.724-.61 2.015-1.653c.65-.518 1.44-1.147 2.345-1.87.46-.35.93-.754 1.463-1.125.538-.365 1.104-.748 1.694-1.15 1.185-.792 2.455-1.682 3.846-2.546 1.42-.815 2.917-1.68 4.483-2.546.77-.46 1.614-.808 2.438-1.22.83-.402 1.672-.8 2.527-1.195.842-.42 1.736-.74 2.62-1.094.888-.35 1.778-.698 2.668-1.047.443-.18.9-.322 1.358-.46l1.37-.428c.91-.278 1.81-.577 2.718-.833.914-.23 1.824-.446 2.723-.656l1.34-.314c.446-.09.894-.16 1.336-.24.884-.153 1.752-.313 2.604-.447.856-.114 1.7-.188 2.515-.28l1.208-.128c.397-.034.79-.046 1.178-.064.773-.03 1.52-.06 2.235-.09 1.435.018 2.746.01 3.907.12 1.16.055 2.166.208 2.99.31.825.133 1.467.253 1.902.36.435.093.662.16.662.16M60.6 85.812s-.234.048-.662.167c-.43.103-1.048.315-1.837.552-.78.273-1.728.588-2.793 1.02-1.077.39-2.245.955-3.54 1.5l-1.967.974c-.337.173-.69.33-1.035.512l-1.044.575c-.702.392-1.433.777-2.162 1.203-.714.453-1.455.896-2.202 1.355-.373.23-.755.454-1.128.696l-1.107.767c-.74.516-1.49 1.035-2.256 1.547-.745.54-1.47 1.12-2.214 1.683l-1.11.852c-.374.282-.746.565-1.092.88l-2.138 1.817c-.708.607-1.436 1.186-2.084 1.845-1.308 1.3-2.695 2.48-3.91 3.753-1.198 1.287-2.383 2.51-3.505 3.675l-2.984 3.444-1.334 1.53c-.426.485-.782.983-1.143 1.43l-1.855 2.34c-1.04 1.29-1.65 2.022-1.65 2.022s.48-.816 1.35-2.232l1.585-2.545c.317-.485.625-1.023 1.003-1.55l1.212-1.65c.852-1.143 1.752-2.406 2.774-3.686 1.065-1.243 2.186-2.56 3.373-3.9.57-.69 1.25-1.3 1.89-1.963.646-.656 1.307-1.314 1.98-1.97.654-.68 1.39-1.28 2.106-1.908l2.163-1.88c.358-.317.742-.602 1.126-.887l1.145-.86c.767-.566 1.516-1.15 2.284-1.693.784-.523 1.57-1.03 2.347-1.528l1.157-.744c.39-.235.79-.45 1.178-.673.783-.44 1.547-.88 2.305-1.292.77-.393 1.54-.744 2.278-1.103l1.095-.525c.363-.165.73-.31 1.09-.454l2.074-.83c1.36-.463 2.59-.91 3.722-1.194 1.113-.335 2.11-.528 2.924-.707.82-.15 1.466-.253 1.91-.298.443-.056.68-.07.68-.07M62.18 80.18s-.24-.002-.682.028c-.442.013-1.09.095-1.91.166-.82.107-1.814.222-2.944.427-1.134.163-2.393.478-3.77.747l-2.127.553c-.365.1-.74.182-1.117.29-.374.114-.754.23-1.14.35-.768.24-1.562.467-2.363.736-.792.297-1.607.58-2.432.876-.412.15-.83.29-1.246.45l-1.24.526c-.832.354-1.673.71-2.526 1.054-.84.377-1.67.797-2.512 1.196l-1.26.607c-.423.2-.846.4-1.25.64l-2.463 1.34c-.817.45-1.648.87-2.417 1.38-1.546 1.007-3.145 1.88-4.593 2.878-1.437 1.015-2.846 1.97-4.182 2.882l-3.625 2.763-1.618 1.226c-.517.388-.967.803-1.41 1.167l-2.293 1.912c-1.28 1.052-2.028 1.643-2.028 1.643s.637-.7 1.776-1.91l2.072-2.167c.408-.41.82-.874 1.298-1.314l1.523-1.366c1.068-.946 2.206-2 3.468-3.042 1.297-1 2.664-2.06 4.1-3.128.7-.56 1.488-1.018 2.25-1.538.767-.51 1.55-1.02 2.342-1.524.778-.53 1.62-.97 2.45-1.438l2.502-1.396c.415-.24.85-.44 1.283-.64l1.298-.606c.865-.4 1.718-.817 2.58-1.193.876-.352 1.748-.688 2.61-1.017l1.286-.492c.43-.15.865-.28 1.292-.418.855-.27 1.694-.546 2.52-.794.833-.228 1.658-.415 2.455-.616l1.18-.29c.39-.087.777-.153 1.158-.222l2.2-.39c1.425-.176 2.723-.363 3.888-.41 1.158-.1 2.175-.085 3.006-.094.834.02 1.486.052 1.93.098.445.035.68.07.68.07M85.716 40.225s.324.388.958.94c.308.285.728.57 1.19.872.483.268 1.04.512 1.638.627.606.08 1.232.042 1.864-.18.627-.25 1.267-.608 1.875-1.143l1.016-.872.536-.465c.184-.156.422-.31.633-.466l.658-.465c.223-.14.45-.27.678-.4.45-.274.926-.502 1.41-.72.964-.438 1.99-.753 3.02-.967.518-.098 1.042-.155 1.555-.207.522-.002 1.033-.047 1.54.003 1.008.077 1.978.26 2.846.585.435.165.857.31 1.23.536.378.214.753.39 1.063.646.312.248.635.444.886.702.248.254.485.495.707.72.414.474.713.933.96 1.294.426.784.626 1.23.626 1.23s-.4-.32-1.028-.877c-.344-.25-.758-.548-1.228-.864l-.787-.44c-.27-.155-.59-.26-.895-.4-.3-.153-.648-.234-.99-.34-.336-.125-.705-.18-1.077-.25-.74-.146-1.537-.174-2.352-.152-.407.01-.823.084-1.24.115-.416.085-.837.158-1.258.254-.834.232-1.68.49-2.485.873-.41.177-.815.36-1.198.59l-.587.317-.538.343c-.182.12-.354.213-.545.35l-.572.42c-.18.13-.4.3-.543.394l-.64.442c-.835.586-1.824.99-2.806 1.182-1.007.178-2 .004-2.796-.317-.8-.335-1.376-.842-1.827-1.3-.432-.48-.74-.937-.95-1.33-.227-.384-.345-.716-.433-.932-.082-.222-.11-.343-.11-.343M108.722 34.535s-.157-.092-.438-.228c-.28-.138-.69-.314-1.19-.477-.247-.094-.53-.152-.814-.24-.295-.058-.598-.14-.922-.18-.16-.023-.324-.053-.49-.07l-.505-.036c-.338-.043-.685-.004-1.03-.01-.345.017-.69.052-1.03.085-.333.07-.668.11-.988.175-.314.09-.622.165-.916.238-.29.084-.556.19-.81.27-.25.086-.487.155-.684.246l-.52.215c-.292.118-.465.18-.465.18s.143-.11.402-.292c.13-.09.29-.2.473-.324.18-.135.398-.254.643-.375.245-.12.504-.272.796-.387.295-.11.607-.227.935-.337.333-.083.68-.168 1.038-.242.36-.044.73-.09 1.1-.116.37.014.742-.017 1.104.036.365.03.72.09 1.057.172.34.058.655.187.957.28.293.12.573.226.813.362.248.12.462.255.647.38.186.122.34.24.466.337.25.198.37.335.37.335" fill="#68C8CD"/><path d="M85.852 66.906c-1.918-2.382-.864-6.677-.292-8.49-.658 1.87-2.235 6.11-2.636 5.05-.51-1.352-.838-15.14-.838-15.14S79.63 64 79.54 61.577c-.087-2.4-1.875-2.387-2.257-4.81.212 1.616.943 8.26-.535 9.878 1.197.627 2.327 1.415 3.36 2.41.82.79.943 1.706.657 2.496l7.427 1.836s.134-3.408-2.34-6.482" fill="#E8F7FB"/><path d="M89.917 69.534c-.453-.373-5.765-4.277-8.62-5.383-.506-.196-1.067-.245-1.08-.244-.01 0-.45.01-1.08.245-2.864 1.075-8.164 5.01-8.617 5.384-3.152 2.596-3.46 6.578-.378 7.835.455.185 1.674.8 2.81-.402.54-.57.826-1.013 2.272.473.135.14 2.623 2.197 2.987 2.467.987.73 2.002.73 2.008.73 0 0 .888.02 2.008-.73.376-.252 2.852-2.326 2.987-2.466 1.446-1.485 1.732-1.042 2.27-.472 1.137 1.203 2.357.587 2.812.4 3.083-1.256 2.774-5.238-.378-7.834" fill="#509EA6"/><path d="M82.455 66.875c.366.968.556 2.017.51 3.117-.092 2.22-1.102 4.162-2.62 5.577h.028c1.433 0 7.077-5.454 7.08-5.517-1.502-1.132-3.463-2.417-4.998-3.178" fill="#68ADB6"/><path d="M123.94 79.69c.013-.687-.09-1.367-.16-2.037-.125-.664-.243-1.323-.453-1.948-.386-1.257-.914-2.433-1.572-3.46-5.436-8.487-14.7-9.67-15.415-9.882-.726-.173-1.45-.357-2.17-.503-.723-.118-1.427-.28-2.12-.354-.696-.064-1.36-.183-2-.194l-.12-.004c.072.1.138.2.2.304.6.052 1.22.192 1.865.286.68.108 1.37.306 2.077.46.702.182 1.408.402 2.115.61.697.247 1.4.465 2.08.733.677.268 1.348.52 1.98.806.183.076.356.155.532.233.448.223.908.46 1.39.73 1.362.77 2.863 1.715 4.33 2.957 1.467 1.235 2.904 2.784 3.982 4.69.55.943.963 2 1.25 3.107.16.55.234 1.13.335 1.705.04.586.12 1.173.09 1.776.017.6-.058 1.206-.115 1.814l-.01.115-.003.026-.144.765c-.06.323-.114.66-.208.922l-.248.846c-.102.285-.224.57-.335.857l-.168.43-.206.416c-.14.276-.267.56-.415.83-1.232 2.16-2.934 4.08-4.932 5.596-1.973 1.55-4.176 2.796-6.47 3.68-2.29.886-4.636 1.52-6.95 1.846-2.313.324-4.582.41-6.727.272-2.144-.138-4.166-.474-5.994-.96-.926-.205-1.777-.536-2.608-.783l-1.187-.45-.57-.216-.54-.244c-.71-.32-1.38-.617-1.973-.945-.415-.217-2.463-1.295-2.652-1.28.393.292 1.9 1.522 2.372 1.836.57.404 1.23.754 1.93 1.148l.533.3c.186.088.374.18.565.272l1.183.57c.412.176.84.338 1.28.514.433.183.888.34 1.357.486.928.33 1.92.576 2.946.84 1.036.213 2.112.415 3.23.535 2.233.256 4.62.3 7.067.013 2.444-.285 4.96-.828 7.406-1.77 2.452-.923 4.835-2.23 7-3.903 2.16-1.676 4.046-3.817 5.422-6.286.166-.31.312-.636.468-.953l.23-.477.187-.5c.12-.335.248-.662.36-1 .092-.357.185-.712.278-1.066.106-.365.146-.682.2-1.007l.115-.727.01-.06.01-.084.003-.033.01-.13c.048-.693.11-1.38.077-2.068" fill="#68C8CD"/><path d="M99.93 61.308l.12.004c.64.01 1.304.13 2 .194.693.073 1.397.236 2.12.354.72.146 1.444.33 2.17.503.716.213 9.98 1.395 15.415 9.883.658 1.026 1.186 2.202 1.572 3.46.21.624.328 1.283.453 1.947.07.67.173 1.35.16 2.036.034.688-.03 1.374-.078 2.067l-.01.13-.002.032.002-.007-.012.09-.01.06-.116.727c-.053.325-.093.642-.2 1.007l-.278 1.065c-.11.34-.24.666-.36 1.002l-.186.5-.23.477c-.156.318-.302.643-.468.954-1.376 2.47-3.26 4.61-5.422 6.286-2.165 1.674-4.548 2.98-7 3.902-2.445.943-4.96 1.486-7.405 1.77-1.158.137-2.304.2-3.426.2-1.248 0-2.466-.077-3.642-.21-1.118-.12-2.194-.323-3.23-.535-1.027-.265-2.018-.512-2.946-.84-.47-.147-.924-.304-1.36-.487-.436-.176-.865-.338-1.277-.515l-1.183-.57-.565-.272c-.18-.1-.36-.2-.534-.3-.698-.393-1.36-.743-1.93-1.147-.47-.314-1.978-1.544-2.37-1.835h.003c.216 0 2.236 1.064 2.648 1.28.594.33 1.262.626 1.972.946l.54.245c.188.07.378.144.57.217l1.188.45c.83.247 1.682.578 2.608.783 1.828.486 3.85.822 5.994.96.655.042 1.322.063 1.998.063 1.537 0 3.122-.11 4.73-.335 2.313-.325 4.66-.96 6.95-1.845 2.293-.885 4.496-2.132 6.47-3.68 1.997-1.517 3.7-3.438 4.93-5.596.15-.272.277-.555.417-.83l.207-.416.168-.43c.11-.286.233-.572.335-.857l.248-.846c.094-.263.148-.6.208-.922l.143-.764v-.025l.012-.115c.057-.608.132-1.214.115-1.814.03-.603-.05-1.19-.09-1.777-.1-.577-.174-1.156-.334-1.706-.288-1.108-.7-2.164-1.25-3.108-1.08-1.905-2.516-3.454-3.982-4.69-1.467-1.24-2.968-2.187-4.33-2.957-.482-.27-.942-.507-1.39-.73-.177-.08-.35-.158-.532-.234-.633-.287-1.304-.538-1.982-.805-.678-.267-1.382-.485-2.08-.733-.706-.207-1.412-.427-2.114-.61-.706-.153-1.397-.35-2.077-.46-.645-.093-1.265-.233-1.864-.285-.062-.104-.128-.205-.2-.304m-.496-.265l.294.41c.067.094.13.19.19.29l.065.107.127.012c.365.03.738.096 1.133.165.235.042.474.083.715.12.426.066.853.17 1.306.28.25.06.502.12.755.175.504.13 1.02.285 1.54.44l.557.165c.236.084.486.17.736.254.438.15.89.303 1.32.473l.44.172c.535.21 1.04.406 1.532.63.137.056.264.113.39.17l.143.063c.516.258.955.488 1.372.72 1.703.963 3.066 1.895 4.29 2.93 1.66 1.4 2.98 2.953 3.924 4.62.52.894.933 1.918 1.227 3.05.12.41.19.828.26 1.27l.07.414c.008.127.02.28.035.433.036.422.074.858.053 1.29.013.5-.035.984-.085 1.494l-.03.307-.01.114-.052.286-.09.483-.024.133c-.05.267-.1.542-.174.75l-.252.86c-.057.16-.127.332-.197.506l-.13.33-.17.43-.196.395c-.052.103-.103.208-.154.313-.084.17-.167.343-.258.51-1.2 2.104-2.884 4.013-4.863 5.515-1.954 1.534-4.11 2.76-6.408 3.647-2.33.9-4.65 1.515-6.896 1.83-1.574.22-3.154.333-4.694.333-.666 0-1.333-.02-1.982-.063-2.07-.133-4.07-.453-5.946-.952-.607-.134-1.18-.322-1.732-.504-.293-.096-.582-.19-.87-.276l-.413-.158-.754-.287-.38-.143-.19-.073-.274-.124-.253-.115-.153-.068c-.648-.292-1.26-.568-1.802-.868-2.494-1.31-2.666-1.31-2.77-1.31h-.757l.605.45c.145.107.44.343.782.612.607.48 1.295 1.027 1.6 1.23.472.335 1.006.633 1.57.948l.375.21.05.027.485.27.2.098.38.183.648.313.534.257c.293.127.586.242.883.36l.41.162c.388.164.827.32 1.377.493.86.305 1.768.538 2.73.785l.23.06c1.018.208 2.11.416 3.265.54 1.23.14 2.463.21 3.667.21 1.165 0 2.328-.066 3.455-.2 2.696-.313 5.208-.914 7.466-1.785 2.543-.955 4.92-2.28 7.063-3.937 2.236-1.734 4.134-3.934 5.487-6.362.115-.215.218-.43.322-.648l.153-.317.23-.48.196-.518.12-.33c.085-.226.168-.45.244-.683l.283-1.08c.092-.317.137-.603.18-.88l.023-.15.126-.788.013-.104.03-.43c.045-.597.09-1.215.06-1.83.01-.538-.052-1.086-.113-1.615l-.048-.436-.03-.154c-.115-.614-.234-1.248-.436-1.848-.398-1.296-.936-2.48-1.598-3.514-2.29-3.574-6.786-8.196-15.202-9.91-.174-.036-.294-.06-.352-.077l-.572-.138c-.542-.13-1.082-.26-1.62-.37-.263-.044-.514-.09-.764-.137-.454-.085-.922-.172-1.38-.22-.248-.023-.49-.053-.725-.082-.447-.055-.87-.107-1.295-.114l-.06-.002-.057-.002-.504-.015M70.768 62.163l-.656-.18c-.206-.062-.46-.125-.748-.198-.287-.074-.613-.153-.97-.224-.352-.078-.736-.157-1.144-.216-.407-.068-.836-.12-1.28-.17-.443-.036-.9-.078-1.365-.082-.464-.02-.935 0-1.404.016-.483.034-.967.068-1.444.1-.48.027-.985.024-1.454.013l-.695-.042c-.227-.02-.45-.053-.666-.08-.215-.026-.426-.07-.628-.112-.202-.04-.398-.085-.583-.145-.186-.05-.363-.11-.53-.177l-.24-.092-.223-.11c-.285-.14-.52-.304-.69-.46-.173-.16-.28-.31-.33-.423-.052-.114-.052-.18-.052-.18l.12.128c.09.07.232.15.42.226.196.065.43.138.713.178.14.02.29.045.45.06.16.02.327.032.505.035.176.008.36.023.552.02.192 0 .387.013.593.003.407 0 .84-.014 1.286-.03.224 0 .45-.02.677-.03.23-.008.46-.012.703-.033l.727-.037c.25-.01.5-.02.75-.028 1.02-.017 2.04.094 2.97.293.93.198 1.763.496 2.456.783.69.3 1.237.6 1.61.826.372.227.572.373.572.373" fill="#68C8CD"/><path d="M104.23 50.75c-2.326-.72-6.254-.358-6.884 3.643l-.134.062c-.034.167-.06.338-.077.512-.13 1.34.31 2.617 1.123 3.63 2.662-.114 5.364.22 8.032.845.944-.802 1.586-1.923 1.712-3.226.235-2.437-1.39-4.68-3.773-5.467" fill="#85D0D4"/><path d="M104.406 55.713c.18 1.377-.757 2.288-1.91 2.376-1.152.086-2.08-.683-2.262-2.06-.18-1.376.607-2.563 1.76-2.65 1.15-.088 2.232.957 2.412 2.333" fill="#509EA6"/><path d="M96.247 53.996c-.286.156.506.637.192.666l-.652 3.356 6.682-2.186-5.953-3.933c-.54.278.263 1.806-.27 2.096" fill="#CAEBF9"/><path d="M87.134 54.032l.276.207c.184.125.454.307.817.46.362.15.813.286 1.307.244.49-.024 1.005-.224 1.504-.58.248-.18.496-.394.733-.645.252-.267.55-.553.836-.84.603-.585 1.267-1.182 1.985-1.753.72-.573 1.503-1.13 2.356-1.615.85-.492 1.77-.91 2.742-1.208.972-.292 1.992-.457 2.992-.458 1-.012 1.97.137 2.87.36 1.805.454 3.335 1.184 4.615 1.824.64.323 1.213.643 1.723.92.51.275.945.535 1.308.74.722.417 1.13.666 1.13.666s-.46-.128-1.25-.38c-.395-.132-.878-.282-1.423-.47-.545-.187-1.16-.395-1.83-.623-.67-.223-1.393-.464-2.157-.687-.764-.22-1.57-.427-2.4-.564-.83-.144-1.688-.21-2.545-.164-.855.05-1.71.203-2.543.476-.834.264-1.64.643-2.412 1.073-.77.436-1.51.92-2.198 1.44-.35.248-.682.52-1.013.774l-.94.78c-.315.27-.596.53-.912.783-.333.266-.68.5-1.048.678-.727.367-1.53.485-2.186.356-.66-.13-1.15-.434-1.485-.725-.338-.293-.543-.57-.67-.764-.128-.194-.18-.304-.18-.304M90.956 62.82s.325-.2.905-.518c.296-.15.663-.326 1.09-.52.43-.172.917-.38 1.467-.55l.86-.262c.298-.097.618-.144.94-.22.647-.16 1.348-.223 2.07-.315.727-.026 1.483-.09 2.25-.02l.577.035.267.015.28.022 1.122.09c.72.023 1.43.058 2.152.033l.536-.01c.177-.01.353-.02.53-.032.35-.023.697-.038 1.036-.08.68-.064 1.335-.16 1.956-.265l.902-.174.84-.192.766-.21c.243-.072.473-.14.69-.206.213-.072.412-.146.6-.204l.51-.187c.3-.122.544-.216.705-.29l.247-.113s-.068.066-.203.183c-.14.114-.34.282-.616.474-.14.093-.293.197-.46.31-.17.107-.36.214-.563.334l-.657.35c-.236.115-.49.224-.753.344-.268.107-.548.22-.837.334-.293.108-.602.2-.918.303-.637.183-1.318.356-2.034.475-.355.077-.722.112-1.093.157l-.56.067-.568.028c-.757.06-1.55.027-2.33.006l-2.223-.203c-.707-.09-1.41-.07-2.09-.1-.68.038-1.343.028-1.967.11-.63.044-1.22.134-1.768.213-.277.03-.533.1-.784.14-.25.048-.49.086-.71.133-.438.11-.83.184-1.15.26-.64.17-1.012.253-1.012.253" fill="#68C8CD"/><path d="M89.546 63.384l1.28-.778s.33-.2.915-.523c.305-.155.676-.334 1.106-.528l.25-.1c.37-.15.787-.32 1.247-.462l.862-.263c.197-.063.407-.107.622-.152.11-.022.22-.045.332-.072.528-.13 1.08-.196 1.662-.266l.434-.053.486-.022c.594-.027 1.202-.054 1.817.002l2.59.172c.593.02 1.18.042 1.776.02l1.277-.055c.27-.017.54-.032.8-.065.746-.07 1.432-.177 1.948-.264l1.906-.41 1.466-.434c.137-.048.267-.094.394-.133l.725-.276c.19-.076.346-.14.46-.19l1.51-.695-.98.983s-.073.072-.218.197c-.145.12-.353.292-.635.49l-.463.31c-.12.076-.24.147-.368.22l-.875.48c-.16.077-.32.15-.485.223l-.397.173-.733.292c-.2.074-.398.138-.602.202l-.33.107c-.783.226-1.438.38-2.07.485-.29.063-.597.1-.896.134l-.77.09-.585.032c-.664.054-1.38.034-2.083.013l-.267-.006-2.24-.205c-.478-.062-.955-.072-1.417-.082-.222-.005-.442-.01-.66-.02-.21.014-.44.022-.67.03-.44.013-.855.027-1.254.08-.563.04-1.08.114-1.578.185l-.187.027c-.166.018-.317.05-.464.08-.107.023-.212.045-.316.06l-.25.047c-.156.027-.306.053-.447.084-.244.06-.482.113-.7.16-.16.035-.308.067-.444.1-.64.17-1.016.253-1.016.253l-1.464.32zm10.223-2.75c-.34 0-.674.015-1.005.03l-.47.02-.414.052c-.566.068-1.102.132-1.602.256-.12.028-.235.052-.35.076-.197.04-.39.08-.573.14l-.865.263c-.44.136-.847.302-1.207.447l-.24.097-.24.11.254-.06c.156-.034.31-.062.47-.09l.255-.045c.103-.018.2-.04.3-.06.162-.033.328-.067.503-.086l.178-.026c.508-.073 1.032-.148 1.6-.188.408-.054.834-.068 1.286-.082.224-.008.453-.015.683-.028.24.01.455.014.673.018.475.01.967.02 1.463.084l2.463.21c.684.02 1.375.04 2.036-.013l1.33-.12c.3-.036.582-.07.858-.13.625-.104 1.262-.253 2.018-.47l.325-.106c.198-.063.39-.124.576-.192l1.103-.455c.16-.072.316-.142.465-.214l.85-.464.034-.02-.043.014-.915.285-1.623.402-.91.177c-.53.087-1.23.197-1.982.267-.264.033-.543.05-.825.067l-1.295.056c-.592.02-1.203 0-1.806-.02l-.683-.04-1.928-.134c-.258-.024-.506-.032-.753-.032z" fill="#68C8CD"/><path d="M110.913 13.81l-.195-.043-.025.16c-.058.725-.38 1.883-.73 2.98 7.803.578 6.203 10.33 16.578 10.23.523.24 4.867-.02 5.337.23.738-.583 1.997-1.614 2.778-2.154 2.78-1.922 5.14-3.057 8.772-3.784l5.917-.934s-6.35-2.54-4.354-7.62c1.138-2.897-13.14-8.073-22.497-7.983-1.154-.21-2.378 2.455-3.206 4.74-.604 1.67-.81 1.38-1.532.41-.24-.324-.584-.56-1.068-.614-1.6-.18-4.557 1.933-5.61 3.56l.068.02" fill="#F78A33"/><path d="M134.83 12.477c1.357.16-1.554-.374-1.435-.343-.894-.233-1.788-.47-2.658-.783-.93-.334-1.836-.725-3.16-1.453-2.63-1.447-4.336-2.63-6.29-4.32.398-.48.806-.756 1.206-.684 9.357-.09 23.635 5.086 22.497 7.983-.05.125-.09.247-.128.368-.258-.025-.517-.04-.78-.04-2.388-.014-4.71-.094-6.99-.248-.727-.226-1.488-.387-2.262-.48" fill="#CAEBF8"/><path d="M149.71 19.992c-.126-.027-.242-.03-.354-.022-.532-.394-1.435-.728-1.72-.896-.368-.217-.725-.785-1.064-.686-1.016.3-.37-.277-.865-.537-1.617-.85.388-3.58.41-4.63-1.965.34-3.72.68-5.678.175-.184.296-3.316 2.668-5.293 4.35.828.765 1.276.917 1.882 1.84.62-.107 1.427.4 2.07.418 2.226.064 4.156.576 6.225 1.145-.434.125-.7.26-.313.33-.31-.04-.618-.095-.918-.17l-.036-.003c-.21.022-.415.05-.616.087-.34.113-6.076-1.716-6.413-1.597-.64.22-5.247 3.567-11.018 7.03-4.44-1.31-12.722-3.928-16.89-7.135 0 0 4.562 4.407 6.45 5.51 8.517 4.967 8.562 5.65 8.562 5.65l4.31-3.048c.78.126 1.474.234 2.08.807.002 0-.71 3.02-.433 1.86.657-.46 4.397-3.026 5.186-3.22.893-.834 2.044-1.395 3.287-1.58.94-.577 2.04-.912 3.187-.912.41 0 .814.045 1.208.126 2.17-.136 5.36-.856 5.92-.956l1.203-1.528c-.438-.077.065-2.316-.37-2.408" fill="#DE761F"/><path d="M123.64 32.186c-.22-.14-22.394-13.856-46.565-8.875l-.606-2.938c25.382-5.228 47.827 8.682 48.77 9.276l-1.6 2.538" fill="#68C8CD"/><path d="M71.6 10.353l-7.974-1.26.2-1.26 7.973 1.26-.2 1.26M77.863 8.046l-8.356-1.26.19-1.262 8.356 1.26-.19 1.262M133.703 12.222l-7.66-5.875.777-1.013 7.66 5.876-.777 1.012M139.893 12.957l-8.078-6.19.776-1.013 8.08 6.19-.777 1.013" fill="#FFF"/><path d="M145.133 16.653l1.086-3.558.073-.193c.325-1.13-.766-2.204-3.648-3.593-2.248-1.085-5.316-2.208-8.64-3.163-4.45-1.28-8.6-2.045-11.1-2.045-.692 0-2.526 0-2.892 1.225L118.87 9.07c-5.108-.988-6.998-.844-7.387.512l-2.098 6.953c-.23.788-.472 1.845-.132 2.912.163.53.484 1.022.883 1.403.198.194.42.355.644.5.24.155.424.24.637.362.83.452 1.686.913 2.565 1.33 1.76.84 3.586 1.49 5.302 2.042.858.28 1.693.53 2.484.762.792.233 1.542.445 2.236.636.694.19 1.33.362 1.894.515l1.463.387 1.277.333-1.252-.414c-.397-.133-16.025-6.668-16.25-8.512-.096-.33-.11-.692-.066-1.057.043-.37 1.3-4.628 1.725-6.087.88.575 2.262 1.256 4.365 2.12 3.508 1.44 8.255 3.044 13.367 4.514 4.78 1.376 9.343 2.477 12.973 3.14 1.766.216 2.738.545 4.127.563.567.007.93.09 1.346.142l-.488 1.744c.14.036 1.676.5 1.757.525l1.04-3.366c.26-.903-.03-1.92-6.15-4.377zM122.906 5.937c2.303 0 6.363.755 10.593 1.972 5.905 1.698 9.445 3.465 10.62 4.364-.182.02-.42.032-.725.032-2.304 0-6.364-.756-10.593-1.972-5.906-1.7-9.447-3.466-10.623-4.365.182-.02.42-.033.726-.033zm-8.893 4.324c.748.017 2.056.146 4.318.574l-.387 1.27c-1.81-.738-3.14-1.37-3.93-1.843zm5.642 2.52l1.594-5.224c.588.43 1.382.884 2.406 1.378 2.247 1.083 5.315 2.206 8.64 3.162 4.448 1.28 8.598 2.044 11.1 2.044h.006c.154 0 .357 0 .585-.013l-1.592 5.216c-3.033-.61-6.88-1.537-11.36-2.825-4.614-1.327-8.454-2.622-11.38-3.74zm24.552 6.908l.39-1.273c2.035.824 3.247 1.426 3.96 1.838-.97-.042-2.444-.226-4.35-.565zM92.385 14.55c.544-.136 1.252-.27 1.94-.316l-1.52-5.932v-.004c-.387-1.345-2.262-1.488-7.33-.508l-1.133-3.714c-.365-1.214-2.185-1.215-2.872-1.215-2.482 0-6.6.76-11.014 2.03-3.298.948-6.343 2.063-8.573 3.138-2.86 1.378-3.943 2.444-3.62 3.564l.02.056h-.002l1.295 3.603c-6.225 2.484-6.522 3.504-6.262 4.407.08.275.228.904.566 1.135.578-.228 1.517-.538 2.122-.7l.104-.025c.314-.08.626-.166.946-.228 1.088-.24 1.773.034 2.912.034.233 0 .58.04.813.052l-.603.027.157.21c.51.037 1.627-.368 2.57-.484 3.247-.667 7.044-1.61 11.008-2.75 5.07-1.46 9.782-3.05 13.263-4.48 2.036-.835 3.39-1.498 4.264-2.06l.95 4.16zM70.958 6.64c4.198-1.21 8.226-1.96 10.512-1.96.303 0 .54.014.72.033-1.166.892-4.68 2.646-10.54 4.33-4.197 1.21-8.225 1.96-10.51 1.96h-.002c-.303 0-.538-.014-.72-.033 1.167-.892 4.68-2.646 10.54-4.33zM56.015 18.886c.737-.425 2.007-1.054 4.176-1.922l.47 1.302c-2.05.375-3.626.576-4.645.62zm17.39-3.706c-4.282 1.232-7.983 2.13-10.938 2.737l-1.834-5.104c.193.01.364.01.495.01h.01c2.483 0 6.6-.76 11.015-2.03 3.298-.948 6.343-2.063 8.572-3.138 1.017-.49 1.805-.94 2.39-1.367l1.58 5.183c-2.903 1.11-6.713 2.394-11.29 3.71zm12.99-4.378l-.386-1.26c2.244-.426 3.542-.554 4.284-.57-.785.47-2.103 1.096-3.9 1.83z" fill="#CE6A21"/><path d="M85.43 45.764c.21.13.45.203.665.305.226.08.456.124.67.188.214.063.43.062.623.098.196.026.377.06.54.056l.42.01c.236.008.373.02.373.02s-.13.032-.362.078l-.424.08c-.164.042-.352.046-.56.047-.205-.005-.433.03-.67-.015-.234-.043-.49-.063-.744-.137-.244-.098-.52-.153-.76-.3-.243-.14-.5-.268-.71-.46-.23-.173-.42-.385-.603-.595-.184-.21-.322-.448-.46-.67-.254-.46-.42-.92-.516-1.322-.19-.806-.145-1.355-.145-1.355s.03.133.098.358c.058.228.177.542.323.908.08.18.163.378.27.575.094.204.23.397.35.605.14.197.286.4.453.585l1.17.94" fill="#68C8CD"/><path d="M86.99 46.905c-.108 0-.22-.007-.33-.028l-.216-.033c-.18-.026-.37-.055-.555-.11-.102-.04-.185-.066-.27-.094-.18-.06-.368-.12-.55-.23l-.127-.072c-.21-.12-.43-.242-.623-.42-.23-.172-.434-.4-.62-.615-.173-.194-.303-.406-.43-.61l-.055-.092c-.246-.443-.433-.92-.547-1.393-.198-.837-.155-1.41-.153-1.434l.128-1.58.365 1.543c0 .004.03.13.094.343.062.24.195.58.316.886l.042.094c.064.145.132.3.216.454.066.144.145.27.224.396l.123.202c.113.158.258.36.422.543l1.14.914c.097.057.23.11.36.163l.258.11c.103.036.233.07.36.1.093.025.185.05.274.076.116.033.235.045.35.057l.247.034.132.02c.116.015.226.032.327.032l.462.01c.245.01.387.02.387.02l1.485.122-1.444.37s-.135.034-.377.08l-.425.082c-.174.045-.377.05-.604.05l-.197.004-.19.005zm-2.853-1.86c.157.18.316.35.502.49.17.153.354.258.55.368l.054.03-1.107-.888zM54.77 44.05l.17-.167c-.403-.338-.803-.68-1.194-1.03-.8-.734-1.58-1.484-2.306-2.28-.363-.4-.72-.8-1.063-1.212-.338-.415-.668-.835-.976-1.27-.303-.436-.604-.874-.872-1.328-.14-.225-.275-.45-.392-.685-.12-.234-.257-.46-.356-.7-.103-.24-.22-.473-.314-.715l-.266-.727-.206-.74c-.068-.247-.1-.5-.155-.747-.063-.247-.06-.5-.092-.75-.035-.25-.028-.5-.023-.75l.003-.376c.008-.124.03-.248.043-.37.04-.247.044-.498.117-.738.064-.24.11-.485.183-.722.09-.234.174-.468.255-.704.085-.234.215-.453.32-.68.055-.113.106-.227.166-.338l.205-.32c.14-.213.26-.435.413-.64l.473-.603c.15-.208.334-.39.51-.58l.498-.526.644-.448c.227-.16.446-.333.688-.467.473-.286.94-.586 1.44-.817.486-.266 1-.46 1.51-.666.253-.108.52-.17.78-.258.262-.084.523-.167.793-.218.267-.057.532-.13.8-.182l.815-.123c.27-.048.547-.046.82-.072l.41-.03.414.004c.552-.014 1.102.04 1.653.088l.824.116c.274.038.544.106.818.158.275.048.543.128.813.198.273.068.542.145.807.238.537.164 1.06.375 1.584.583l.78.336.766.367c.505.26 1.005.533 1.495.825.492.29.977.594 1.454.913.475.32.938.658 1.4 1.002l.18.144c.118-.082.232-.17.354-.247l-.242-.24c-.42-.406-.866-.787-1.316-1.162-.453-.37-.917-.73-1.394-1.076-.48-.34-.976-.66-1.478-.97l-.77-.444-.786-.414c-.534-.26-1.077-.505-1.637-.713-.276-.114-.56-.213-.845-.3-.285-.093-.568-.194-.86-.263-.58-.164-1.17-.284-1.765-.387-.6-.073-1.202-.15-1.81-.157l-.455-.017-.456.014c-.303.018-.61.008-.91.05l-.91.108c-.3.05-.598.115-.897.175-.3.055-.592.142-.883.232-.29.093-.59.16-.87.276-.567.22-1.14.433-1.675.717-.556.25-1.07.57-1.59.877-.52.308-.994.68-1.488 1.026l-.042.03-.617.666c-.194.21-.393.417-.562.654l-.526.69c-.17.233-.31.492-.468.737l-.228.373c-.07.13-.13.265-.193.397-.12.268-.265.525-.364.803l-.282.84c-.08.286-.128.58-.19.87-.075.287-.077.587-.11.88-.012.148-.03.295-.035.443l.01.442c.003.295.008.59.056.88.043.29.056.586.133.867.07.282.12.57.206.847l.275.822.34.79c.116.262.257.51.385.763.124.258.283.492.426.736.14.245.3.478.46.71.31.47.66.907 1.015 1.34.358.43.734.84 1.115 1.243.39.394.78.788 1.194 1.155.822.737 1.675 1.436 2.57 2.075.42.303.854.59 1.29.867" fill="#68C8CD"/><path d="M54.84 44.687l-.337-.215c-.446-.284-.887-.574-1.316-.883-.853-.61-1.708-1.3-2.61-2.11-.41-.362-.797-.752-1.185-1.142-.43-.453-.812-.872-1.175-1.31-.353-.43-.723-.887-1.05-1.385-.16-.23-.326-.476-.475-.734l-.135-.226c-.108-.177-.216-.355-.307-.543l-.13-.247c-.09-.174-.18-.348-.262-.528l-.343-.798-.29-.86c-.064-.208-.11-.41-.154-.61l-.062-.28c-.055-.2-.083-.42-.11-.64l-.033-.27c-.055-.324-.06-.656-.063-.948l-.01-.44c.005-.134.014-.24.024-.35l.037-.41c.02-.236.04-.47.1-.7l.054-.263c.04-.206.083-.412.14-.614l.29-.866c.075-.21.167-.402.26-.593l.186-.39c.046-.098.092-.196.143-.29l.398-.653c.108-.176.215-.353.336-.52l.534-.698c.147-.207.328-.405.51-.6l.78-.828.48-.342c.353-.256.706-.51 1.082-.732l.215-.128c.453-.27.92-.548 1.423-.775.476-.253 1.004-.458 1.515-.655l.184-.072c.192-.078.4-.14.608-.2l.29-.087c.316-.098.628-.19.948-.248l.187-.038c.24-.05.478-.1.72-.14l.93-.11c.203-.028.42-.035.637-.04l.77-.028.492.016c.584.007 1.17.078 1.738.147l.112.013c.747.13 1.325.256 1.842.403.222.05.46.13.697.207l.18.058c.296.092.592.196.883.315.504.188 1.038.42 1.666.727l1.585.874c.525.325 1.028.65 1.517.996.49.354.962.72 1.423 1.097.463.387.916.776 1.346 1.19l.696.684-.534.34-.237.163-.4.285-.47-.372c-.45-.334-.907-.668-1.375-.983-.468-.313-.945-.612-1.428-.897-.483-.29-.975-.555-1.47-.81l-1.514-.69c-.56-.222-1.038-.414-1.532-.564-.27-.095-.523-.17-.78-.233l-.198-.053c-.192-.05-.384-.103-.58-.137l-.31-.063c-.164-.035-.327-.07-.493-.093l-.96-.127c-.426-.036-.85-.073-1.276-.073l-.16.002-.428-.003-.373.026c-.092.01-.196.016-.3.022-.157.01-.313.017-.466.045l-.828.125c-.128.025-.274.06-.42.095l-.352.082c-.262.05-.503.127-.744.205-.093.03-.194.062-.295.092-.15.044-.3.088-.445.15l-.243.098c-.43.172-.836.336-1.22.547-.424.196-.794.422-1.187.662l-.237.143c-.173.096-.32.204-.466.31l-.795.558-.55.584c-.133.14-.268.278-.378.433l-.488.622c-.082.108-.158.233-.234.357l-.354.56-.078.16-.064.134-.122.25c-.063.124-.127.248-.174.38-.08.232-.168.47-.258.71-.033.108-.065.247-.098.386l-.07.285c-.045.152-.057.288-.072.423l-.033.264-.016.13-.023.196-.002.348c-.005.256-.01.467.018.676.013.102.02.197.028.29.012.138.02.275.054.41l.06.306c.027.144.053.288.092.43l.205.738.256.69c.053.14.118.28.183.42l.12.268c.062.153.137.29.212.428l.13.245c.11.223.24.436.37.648.27.453.562.88.86 1.306.3.423.623.834.953 1.242.335.4.686.796 1.044 1.19.625.686 1.327 1.38 2.274 2.247.383.345.778.682 1.178 1.016l.427.356-.85.83zm3.73-24.54l-.418.017c-.1.006-.21.01-.323.012-.18.005-.36.01-.538.034l-.92.108c-.204.034-.428.08-.653.128l-.203.04c-.292.054-.564.137-.836.22l-.312.095c-.174.05-.35.1-.516.17l-.194.074c-.505.196-.983.38-1.435.62-.48.22-.902.47-1.35.737l-.218.13c-.35.207-.677.444-1.004.682-.15.11-.3.218-.452.324l-.66.715c-.153.166-.307.33-.44.515l-.536.704c-.098.133-.19.286-.282.44l-.386.628-.106.222-.192.402c-.077.158-.155.316-.214.482l-.28.833c-.042.152-.078.335-.115.517l-.062.3c-.048.19-.06.367-.075.546l-.038.424-.02.26.01.418c.003.273.007.552.05.808.016.107.028.208.04.31.02.17.038.342.084.508l.072.312c.038.175.076.35.13.52l.27.81.326.753c.07.154.15.31.232.465l.14.27c.08.167.173.315.263.463l.148.25c.135.233.286.454.438.672.307.47.658.904.992 1.31l.098.117-.093-.13c-.314-.45-.62-.9-.896-1.364-.14-.23-.284-.467-.408-.715l-.117-.218c-.092-.17-.183-.34-.255-.515l-.108-.24c-.074-.16-.148-.32-.21-.486l-.27-.734-.218-.778c-.047-.17-.08-.343-.11-.514l-.052-.26c-.044-.174-.06-.367-.076-.56l-.022-.235c-.036-.256-.033-.52-.028-.783l.004-.41c.007-.115.018-.203.03-.292l.046-.37c.022-.2.046-.396.106-.59l.057-.236c.038-.165.076-.328.127-.488.096-.257.18-.486.26-.717.062-.174.142-.336.223-.496l.113-.23.064-.133.118-.235.365-.58c.092-.15.185-.3.292-.44l.478-.613c.125-.177.29-.352.455-.526l.66-.684.823-.577c.18-.13.36-.258.55-.365l.218-.133c.4-.244.813-.496 1.257-.7.407-.225.86-.407 1.3-.583l.23-.094c.172-.073.358-.13.543-.185l.267-.082c.288-.093.57-.18.86-.235l.316-.074c.16-.038.32-.076.483-.108l.833-.126c.18-.032.375-.045.57-.056.093-.005.185-.01.277-.02l.424-.03.45.002.17-.002c.454 0 .907.038 1.36.077l1.015.133c.186.027.372.066.558.105l.283.058c.22.037.44.096.662.156l.186.048c.28.07.565.153.844.25.507.154 1.02.358 1.514.555l.855.365-.74-.388c-.585-.286-1.09-.506-1.58-.688-.278-.115-.546-.208-.818-.293l-.19-.063c-.21-.07-.42-.14-.637-.19-.512-.145-1.04-.26-1.736-.38l-.09-.01c-.564-.07-1.098-.135-1.64-.14l-.47-.02z" fill="#68C8CD"/><path d="M80.076 23.655c.383-.16.768-.308 1.157-.447.388-.14.778-.272 1.17-.398l.667-.214-.532.464c-.76.662-1.536 1.302-2.338 1.912l.02-.15c.13.212.26.422.385.637.122.215.25.427.366.647-.164-.186-.317-.38-.475-.572-.157-.192-.308-.39-.458-.585l-.06-.077.08-.073c.742-.68 1.51-1.332 2.295-1.962l.134.25c-.397.11-.796.212-1.197.308-.402.097-.807.183-1.214.26" fill="#86CAD6"/><path d="M162.658 37.512c-.013-.343-.01-.69-.04-1.03l-.154-1.02c-.057-.34-.17-.66-.253-.993-.046-.165-.087-.33-.14-.493l-.185-.473c-.128-.313-.238-.637-.385-.94l-.462-.894c-.145-.306-.33-.58-.51-.862 0 0-1.157-1.662-2.105-2.404-.533-.458-1.055-.927-1.638-1.326-.556-.434-1.166-.792-1.77-1.16-.297-.188-.626-.328-.938-.493-.314-.162-.63-.322-.963-.445-.33-.13-.656-.266-.99-.383l-1.017-.307c-.336-.11-.688-.16-1.03-.242l-.52-.11-.523-.074c-.697-.116-1.4-.15-2.1-.187-.703-.004-1.403.013-2.098.084-.348.02-.692.078-1.037.125-.346.043-.69.098-1.028.172-.682.125-1.353.295-2.016.484l-.984.314-.97.352c-.637.252-1.268.518-1.886.808-.616.298-1.22.615-1.813.948-.59.338-1.176.682-1.74 1.06-1.13.75-2.793 1.793-3.62 2.816 1.118-.754 2.696-1.75 3.884-2.362.597-.3 1.196-.592 1.804-.862.61-.267 1.227-.516 1.847-.747.62-.235 1.247-.444 1.877-.64l.95-.266.96-.224c.642-.132 1.282-.267 1.93-.345.32-.05.644-.085.968-.107.324-.026.647-.063.97-.062.324-.003.647-.025.97-.013l.965.034c.64.06 1.28.11 1.907.236l.473.08.464.118c.31.085.625.14.924.25l.905.305c.296.113.584.25.88.37.296.113.58.26.86.41.28.154.573.28.84.454.54.34 1.09.666 1.59 1.07.526.364 1 .802 1.482 1.225 2.022 1.51 2.908 4.115 3.024 4.386l.168.408c.046.14.08.28.122.42.073.28.177.558.226.843.046.286.095.57.15.856.036.286.038.575.062.863.035.29-.01.577-.017.866-.01.144-.01.29-.027.433l-.072.43c-.045.286-.088.574-.18.853-.085.28-.135.57-.255.84-.112.272-.2.554-.33.82l-.385.806-.452.778c-.155.258-.337.5-.504.753-.163.256-.365.485-.55.728-.18.244-.382.475-.587.703-.398.465-.83.905-1.267 1.342-.44.434-.904.847-1.374 1.255-.478.4-.966.787-1.462 1.168-.883.682-1.81 1.31-2.753 1.916-4.94 2.774-6.956 2.58-7.414 2.873 7.196-.31 13.46-6.062 13.79-6.342.493-.42.984-.85 1.433-1.326.23-.23.458-.466.67-.718.212-.25.442-.486.635-.755.198-.265.41-.52.597-.795l.548-.835.483-.884c.154-.3.27-.618.407-.928.146-.306.22-.642.33-.964.114-.322.18-.658.244-.995l.1-.506c.025-.17.033-.34.05-.512.022-.343.08-.686.054-1.03" fill="#68C8CD"/><path d="M141.49 54.678l1.556-1c.195-.125.436-.173.837-.253.966-.195 2.976-.6 6.6-2.635 1.062-.683 1.926-1.283 2.695-1.875.49-.377.973-.76 1.446-1.155.454-.395.91-.8 1.343-1.228.408-.41.843-.85 1.24-1.31.2-.227.392-.446.566-.678l.198-.255c.116-.145.23-.29.33-.443l.197-.29c.103-.15.207-.298.3-.452l.45-.773.366-.77c.075-.154.135-.316.194-.477.04-.106.08-.212.122-.317.074-.166.113-.326.155-.484.027-.105.054-.21.087-.315.08-.25.118-.498.156-.747l.08-.47.01-.212.01-.172c.002-.08.007-.18.014-.28.012-.163.026-.326.005-.49l-.023-.363c-.01-.166-.018-.333-.04-.498-.05-.26-.1-.55-.146-.84-.026-.157-.076-.316-.124-.476-.032-.106-.064-.213-.092-.32l-.04-.142-.073-.247-.204-.496c-.888-2.276-2.02-3.46-2.814-4.054l-.274-.24c-.4-.355-.78-.69-1.192-.977-.433-.346-.87-.62-1.333-.907l-.238-.148c-.164-.107-.33-.19-.495-.272-.107-.055-.215-.11-.32-.167-.257-.137-.52-.276-.798-.38-.142-.06-.27-.115-.4-.172-.16-.07-.32-.14-.482-.202l-.886-.3c-.186-.068-.366-.11-.544-.152-.12-.028-.236-.056-.352-.09l-.888-.185c-.55-.112-1.092-.16-1.667-.213l-.202-.018-1.12-.037c-.133 0-.267.005-.4.01l-.363.008c-.25 0-.478.022-.71.042l-.224.02c-.316.02-.623.053-.93.103-.607.074-1.182.19-1.79.316l-1.063.248-.93.26c-.608.19-1.225.395-1.836.626-.613.23-1.22.474-1.82.738-.603.266-1.193.556-1.784.85-1.168.603-2.743 1.6-3.826 2.33l-2.765 1.868 2.095-2.596c.8-.99 2.246-1.94 3.408-2.705l.324-.214c.583-.39 1.194-.75 1.768-1.078.607-.34 1.22-.662 1.843-.964.633-.297 1.273-.567 1.922-.823l1.985-.676c.778-.222 1.452-.384 2.077-.5.337-.072.695-.13 1.055-.175l.216-.032c.284-.04.57-.08.856-.096.56-.058 1.19-.086 1.958-.086l.326.008c.66.037 1.342.074 2.022.187l1.065.19c.126.03.24.052.356.076.245.05.49.102.727.18l1.005.302c.283.1.54.202.797.304l.233.092c.35.13.676.295 1.008.467.11.058.215.11.322.163.223.11.445.22.655.352l.2.122c.538.327 1.095.665 1.61 1.067.502.342.98.755 1.44 1.155l.216.185c.978.765 2.14 2.427 2.188 2.498l.096.148c.163.255.325.51.456.786l.454.88c.11.22.195.444.28.666l.313.792c.046.143.077.256.108.37l.138.502c.067.235.133.47.174.713l.154 1.027c.027.267.033.508.038.75l.01.335c.02.265-.005.53-.03.785l-.04.47c-.01.128-.02.255-.04.382l-.104.526c-.062.327-.134.7-.264 1.065-.03.09-.06.19-.088.29-.075.246-.15.49-.26.722l-.125.298c-.09.218-.183.436-.29.645l-.488.895-.57.87c-.135.197-.274.378-.415.56l-.2.26c-.136.188-.294.367-.452.546l-.2.23c-.222.263-.46.51-.7.75-.462.49-.976.937-1.463 1.352-1.692 1.486-7.52 6.178-14.092 6.46l-1.847.08zm4.21-29.975l1.413.058c.576.053 1.172.107 1.76.226l.96.203c.117.03.223.056.328.08.22.053.438.106.648.184l.89.3c.197.076.372.152.546.228.12.053.24.106.363.156.306.115.608.272.907.43.102.056.2.105.295.154.2.1.398.2.585.324l.227.14c.467.293.95.594 1.402.957.433.3.852.67 1.256 1.027l.24.213c.87.647 2.144 1.97 3.118 4.467l.208.515c.044.13.072.227.1.326l.04.143c.028.11.057.205.085.3.06.198.12.396.154.598.047.29.095.57.148.85.03.22.04.41.05.602l.02.314c.026.206.014.433-.002.66l-.013.257-.01.17c-.003.104-.008.207-.02.31l-.076.454c-.05.32-.096.62-.195.925-.027.083-.05.174-.073.264-.055.212-.113.424-.203.626l-.106.273c-.07.188-.142.377-.23.56l-.384.805-.473.813c-.106.18-.222.346-.338.513l-.182.265c-.11.177-.247.35-.383.52l-.182.233c-.19.255-.4.497-.614.736-.413.48-.864.936-1.29 1.36-.45.445-.92.866-1.398 1.28-.396.332-.795.652-1.198.966 1.218-.842 2.133-1.604 2.634-2.045.538-.46 1.028-.885 1.467-1.35.232-.233.45-.457.652-.698l.217-.25c.137-.153.274-.307.396-.476l.215-.28c.127-.164.255-.33.372-.5l.545-.83.462-.85c.09-.174.17-.367.25-.56l.14-.33c.092-.198.15-.396.21-.595.033-.108.066-.217.102-.325.107-.3.168-.62.227-.93l.1-.507c.012-.082.02-.187.03-.293l.013-.172c.006-.092.017-.202.027-.31.02-.21.043-.422.026-.633l-.012-.37c-.005-.22-.01-.437-.03-.652l-.148-.992c-.034-.197-.09-.397-.15-.596-.03-.115-.064-.23-.094-.347l-.045-.167c-.027-.1-.054-.2-.085-.297l-.303-.768c-.075-.195-.15-.39-.24-.577l-.458-.886c-.12-.254-.26-.47-.402-.688l-.086-.135s-1.114-1.593-1.99-2.28l-.237-.202c-.46-.4-.897-.776-1.377-1.104-.494-.384-1.002-.692-1.54-1.02l-.207-.125c-.186-.117-.378-.21-.57-.305-.115-.056-.23-.113-.343-.173-.292-.15-.59-.302-.903-.418l-.246-.1c-.244-.097-.488-.194-.736-.28l-.995-.3c-.212-.07-.42-.112-.628-.154-.125-.026-.25-.052-.375-.082l-.994-.175c-.64-.107-1.294-.142-1.927-.177l-.134-.007h-.138c-.732 0-1.33.026-1.88.083-.283.014-.538.05-.793.088l-.228.032c-.336.042-.664.095-.99.166-.607.112-1.25.266-1.983.476l-1.92.654c-.322.127-.646.26-.968.398.332-.113.666-.22 1-.325l2.077-.528c.6-.124 1.223-.25 1.85-.328.318-.05.657-.088.996-.11l.21-.02c.26-.02.52-.043.78-.043l.348-.008c.145-.004.288-.01.433-.01zM110.28 50.867c.306-.005 1.71.525 1.992.537 1.62 5.597-2.463 10.005-2.504 10.05l-.623-.57c.04-.04 2.893-4.83 1.135-10.017" fill="#68C8CD"/><path d="M80.688 124.592s18.96 12.624 33.908 9.967c20.894-3.716 36.112-26.773 39.425-36.297 2.52-7.24 3.786-3.798 4.095 5.338.308 9.137-3.53 12.745 2.71 19.625 6.24 6.88-3.376 13.962-13.092 18.846-8.276 4.16-44.378 13.52-67.045-17.478" fill="#F78A33"/><path d="M157.377 112.725c-5.134 6.645-26.008 27.452-46.46 26.952-13.646-.333-18.67-3.948-23.56-8.105 24.894 25.953 52.463 14.45 60.385 10.468 9.715-4.883 19.53-12.153 13.09-18.845-3.582-3.724-3.858-7.658-3.455-10.47" fill="#DE761F"/><path d="M120.517 148.434c-16.697 0-29.85-8.206-42.65-26.605-.315-.455-.203-1.078.25-1.393.455-.316 1.077-.202 1.392.25v.002c.917 1.31 13.996 13.384 29.566 13.384h.003c1.808 0 3.6-.167 5.33-.498 21.053-4.02 35.368-26.16 38.666-35.64 1.145-3.293 2.055-4.575 3.246-4.575 1.51 0 2.505 1.708 2.792 10.207.1 2.99-.226 5.38-.514 7.488-.084.616-.165 1.208-.23 1.783-.06.527-.103 1-.125 1.465l-.007.194c-.045 2.966 1.07 5.67 3.316 8.004 2.207 2.295 3.978 6.073-.114 11.045-1.305 1.618-6.15 7.108-13.396 9.476-11.45 3.744-19.94 5.414-27.527 5.414zM84.835 127.71c10.737 12.887 21.987 18.723 35.68 18.724 7.37 0 15.666-1.64 26.908-5.314 5.343-1.747 9.943-5.71 12.466-8.838 2.612-3.174 2.68-5.838.222-8.394-2.623-2.727-3.927-5.908-3.873-9.455l.006-.21c.025-.522.073-1.038.132-1.567.072-.632.155-1.24.24-1.87.278-2.03.593-4.332.498-7.152-.174-5.143-.618-7.16-.893-7.933-.263.413-.684 1.242-1.258 2.89-3.417 9.825-18.28 32.767-40.18 36.95-1.852.355-3.77.533-5.706.535h-.003c-9.8 0-18.518-4.425-24.242-8.365z" fill="#CE6A21"/><path d="M99.84 78.057s.238 0 .682.03c.442.012 1.09.094 1.91.165.82.108 1.814.223 2.944.427 1.134.16 2.392.477 3.77.746.682.177 1.392.36 2.126.552.366.1.742.182 1.118.29l1.14.35c.767.24 1.562.468 2.362.736.792.298 1.607.58 2.432.877.413.15.832.29 1.247.452l1.24.525c.83.354 1.673.71 2.526 1.054.84.378 1.67.797 2.51 1.196l1.263.607c.42.2.843.402 1.247.64l2.463 1.34c.817.45 1.648.87 2.416 1.382 1.547 1.005 3.145 1.878 4.594 2.877 1.436 1.015 2.846 1.97 4.18 2.882l3.627 2.762 1.618 1.227c.517.387.966.802 1.41 1.167l2.293 1.91c1.28 1.052 2.027 1.644 2.027 1.644s-.636-.7-1.775-1.91l-2.072-2.167c-.41-.41-.82-.874-1.298-1.314l-1.523-1.366c-1.068-.946-2.206-2-3.468-3.043-1.298-1-2.665-2.058-4.1-3.127-.7-.56-1.49-1.02-2.25-1.538-.767-.51-1.55-1.02-2.342-1.526-.778-.53-1.62-.968-2.45-1.437l-2.502-1.397c-.415-.238-.85-.44-1.284-.64l-1.297-.606c-.866-.398-1.718-.817-2.582-1.192-.874-.352-1.747-.688-2.61-1.017l-1.284-.493c-.43-.15-.866-.28-1.292-.418-.856-.27-1.694-.545-2.52-.794-.833-.227-1.66-.414-2.455-.615l-1.18-.29c-.39-.088-.778-.153-1.158-.222l-2.2-.39c-1.426-.177-2.724-.363-3.89-.41-1.156-.1-2.173-.085-3.005-.095-.834.02-1.486.053-1.93.1-.445.034-.68.07-.68.07M101.42 83.69s.234.05.662.168c.43.103 1.048.316 1.837.553.78.274 1.728.59 2.792 1.02 1.077.39 2.245.955 3.54 1.5.63.313 1.288.638 1.968.974.337.173.69.33 1.035.512l1.043.575c.703.394 1.435.78 2.164 1.205.714.453 1.454.895 2.202 1.354.372.23.755.452 1.128.695l1.106.767c.74.516 1.492 1.035 2.257 1.547.746.54 1.472 1.12 2.215 1.682l1.11.852c.373.282.746.565 1.092.88l2.138 1.816c.708.607 1.436 1.187 2.084 1.845 1.308 1.3 2.695 2.48 3.91 3.754 1.198 1.286 2.383 2.51 3.504 3.674l2.986 3.444 1.333 1.53c.427.486.783.984 1.144 1.43l1.854 2.34c1.04 1.29 1.65 2.022 1.65 2.022s-.48-.816-1.348-2.23l-1.587-2.547c-.317-.485-.625-1.022-1.003-1.55l-1.213-1.65c-.852-1.143-1.75-2.406-2.773-3.685-1.065-1.242-2.186-2.56-3.373-3.898-.57-.69-1.25-1.3-1.89-1.965-.646-.656-1.308-1.314-1.98-1.97-.655-.678-1.39-1.28-2.106-1.908l-2.163-1.877c-.358-.318-.742-.604-1.126-.888l-1.146-.86c-.766-.566-1.515-1.15-2.284-1.693-.784-.524-1.57-1.03-2.347-1.53l-1.157-.744c-.39-.235-.79-.45-1.18-.673-.78-.44-1.545-.88-2.304-1.29-.77-.394-1.538-.745-2.277-1.105l-1.096-.524c-.364-.165-.73-.31-1.09-.454l-2.075-.832c-1.358-.463-2.59-.91-3.722-1.194-1.112-.335-2.11-.527-2.923-.706-.82-.15-1.466-.252-1.91-.298-.443-.056-.68-.07-.68-.07M104.414 73.46s.235-.032.678-.062c.44-.046 1.094-.053 1.917-.093.826-.004 1.825-.024 2.972.027 1.145.007 2.435.15 3.837.23l2.18.26c.375.052.76.082 1.146.138l1.176.193c.794.135 1.612.253 2.44.41.826.19 1.672.36 2.53.542.428.093.862.175 1.295.278l1.3.354c.87.238 1.752.476 2.644.703.884.26 1.762.564 2.65.846l1.332.432c.445.14.89.283 1.323.465l2.622.997c.87.336 1.75.64 2.58 1.042 1.668.788 3.37 1.437 4.94 2.23 1.56.814 3.085 1.57 4.53 2.293l3.966 2.25 1.77.996c.563.315 1.064.666 1.554.967l2.53 1.584c1.41.87 2.23 1.356 2.23 1.356s-.725-.608-2.017-1.653l-2.346-1.868c-.46-.352-.93-.755-1.463-1.127L153.04 86.1c-1.186-.793-2.456-1.683-3.846-2.547-1.42-.815-2.917-1.68-4.484-2.547-.768-.46-1.612-.808-2.436-1.22-.83-.402-1.673-.8-2.527-1.195-.843-.42-1.737-.74-2.62-1.093l-2.67-1.046c-.442-.18-.9-.32-1.357-.46l-1.367-.426c-.91-.278-1.812-.578-2.718-.833-.914-.23-1.824-.445-2.723-.655l-1.34-.315c-.447-.09-.895-.16-1.336-.24-.884-.153-1.752-.312-2.604-.447-.856-.113-1.7-.187-2.515-.28-.41-.042-.812-.085-1.208-.127-.398-.034-.792-.047-1.178-.064-.773-.03-1.52-.06-2.235-.09-1.435.018-2.746.008-3.907.12-1.16.055-2.166.207-2.99.31-.825.133-1.467.253-1.902.358-.435.095-.662.16-.662.16" fill="#68C8CD"/><path d="M109.022 134.34c-12.634 0-25.008-5.93-35.785-17.147-8.075-8.406-12.37-16.694-12.55-17.042l2.67-1.37c.166.327 17.072 32.56 45.665 32.56 10.273 0 19.262-4.37 25.996-12.64 11.64-14.294 15.345-38.52 9.91-64.805l2.937-.607c5.617 27.16 1.684 52.32-10.52 67.307-7.324 8.993-17.118 13.746-28.323 13.746" fill="#68C8CD"/><path d="M85.392 29.635c-.214-.98-.328-1.997-.328-3.044 0-2.217.517-4.3 1.415-6.174l-3.16.598 1.134-6.796L73.78 23.54c11.894-.783 4.836 13.856 4.836 13.856l6.776-7.76" fill="#CAEBF8"/><path d="M83.087 26.656l8.374-9.375.44 10.437" fill="#CAEBF8"/><path d="M93.51 11.75L91.9 27.718 90 21l-6.913 5.656L93.51 11.75z" fill="#68C8CD"/><path d="M124.344 30.85c-.113.5.97-.295.806.183 1.287.335 1.217 3.265 2.372 3.892l3.822-8.386-7 4.31" fill="#CAEBF8"/><path d="M131.556 25.583c-1.32.81-2.104 1.31-3.533 2.268-.834.565-5.107 3.987-5.92 4.588-.023.104 7.822-4.796 8.583-5.22-.57 1.21-.267.29-1.486 5.484.376-.857.608-1.387.64-1.448.853-1.654 1.67-3.325 2.433-5.02l.68-1.506-1.397.855" fill="#68C8CD"/><path d="M122.115 32.94h-.01l-1.506-.007 1.206-.897c.317-.233 1.16-.897 2.118-1.65 1.545-1.217 3.296-2.595 3.818-2.95 1.433-.958 2.23-1.47 3.554-2.28l2.78-1.703-1.347 2.986c-.735 1.627-1.535 3.277-2.445 5.043-.04.077-.207.46-.477 1.077l-.15.343-.944-.316c.29-1.238.494-2.128.643-2.782.153-.664.25-1.092.328-1.4-.635.39-1.442.89-2.272 1.4-5 3.083-5.093 3.135-5.298 3.135zm9.688-6.917l-.813 1.72c-.11.228-.174.356-.242.577.373-.775.728-1.536 1.07-2.292l.01-.026-.01.007-.1.06.085-.047zM52.715 65.22c-.09-.242-2.2-5.988-2.005-11.423.158-4.42 3.602-10.694 10.53-19.183l.09-.1L86.848 9.347l-2.215 14.065-2.47-.388 1.034-6.563-20.06 19.786C55.1 46.102 53.3 51.28 53.207 53.886c-.175 4.93 1.83 10.41 1.85 10.464l-2.343.87" fill="#68C8CD"/><path d="M78.083 25.655l8.374-6.373-.56 9.436" fill="#CAEBF8"/><path d="M89.01 14.582l-3.113 14.136V21l-7.814 4.655L89.01 14.582z" fill="#68C8CD"/><path d="M83.022 34.898l4.502-3.426-.302 5.073" fill="#CAEBF8"/><path d="M89.457 27.925l-2.235 8.62v-4.31l-4.2 2.663 6.435-6.973z" fill="#68C8CD"/><path d="M155.272 125.84s-1.75-10.374.25-15.624.75-15.125.75-15.125 3.46 8.644 1.105 17.635c-2.355 8.99-2.105 13.116-2.105 13.116M194.855 86.466c-4.76-.548-9.802-.313-9.802-.313s3.173.127 9.802 1.98v-1.667" fill="#CE6A21"/><path d="M73.272 102.925s4.916-2.5 10.583.333 10 3.083 10 3.083-2.5 2.085-7.833.168c-5.334-1.917-8.5-3.333-12.75-3.583" fill="#68C8CD"/><path d="M90.23 107.444c-1.31 0-2.74-.276-4.25-.82-.852-.304-1.648-.597-2.403-.876-3.924-1.445-6.76-2.49-10.313-2.698l-.46-.027.41-.21c.022-.01 2.065-1.032 4.984-1.032 1.98 0 3.9.46 5.712 1.367 5.576 2.787 9.91 3.067 9.952 3.07l.316.018-.243.202c-.05.04-1.236 1.007-3.706 1.007zm-16.437-4.608c3.353.278 6.116 1.295 9.87 2.678.755.277 1.55.57 2.4.877 1.484.533 2.886.804 4.166.804 1.71 0 2.786-.485 3.26-.76-1.152-.13-4.986-.712-9.69-3.065-1.778-.888-3.662-1.338-5.602-1.338-2.052 0-3.655.51-4.405.804zM141.334 53.466s6.063-.375 9.563-2.5c-4 3.438-3.938 5.313-3.938 5.313l1.062 30.478-3.25 5.5s2.63-10.107 1.147-20.93c-1.482-10.82-4.586-17.862-4.586-17.862" fill="#68C8CD"/></g></svg>