<svg xmlns="http://www.w3.org/2000/svg" width="841.9" height="595.3" viewBox="0 0 841.9 595.3"><path fill="#EADCC5" d="M216.7 337.7h196.6v137.6H216.7z"/><path fill="#8D5833" d="M417.1 333.8H212.7v145.5H279l-24 63.1c-1.9 5.1-1 10.1 2.2 11.3 3.1 1.2 7.2-2 9.2-7 0 0 19-49.8 25.7-67.4H338l25.7 67.4c1.9 5.1 6 8.2 9.2 7 3.1-1.2 4.1-6.3 2.2-11.3l-24-63.1h66.3V333.8zm-7.8 137.6H220.5V341.6H409.3v129.8z"/><g opacity=".5" fill="#8D5833"><path d="M255.6 464.4h-1.1v-6.8c-.3.2-.6.5-1 .7-.4.2-.8.4-1.1.5v-1c.6-.3 1.1-.6 1.6-1 .4-.4.8-.8.9-1.2h.7v8.8zM258.2 462.6l1-.2c.1.4.2.7.5 1 .3.2.6.3 1.1.3.5 0 .8-.1 1.1-.3.2-.2.4-.4.4-.7 0-.2-.1-.4-.3-.6-.1-.1-.5-.2-1.1-.4-.8-.2-1.3-.4-1.6-.5-.3-.1-.5-.3-.7-.6-.2-.3-.2-.5-.2-.8 0-.3.1-.5.2-.8.1-.2.3-.4.5-.6.2-.1.4-.2.7-.3.3-.1.6-.1.9-.1.5 0 .9.1 1.3.2s.6.3.8.6c.2.2.3.6.4 1l-1 .1c0-.3-.2-.6-.4-.8-.2-.2-.5-.3-1-.3s-.8.1-1 .2c-.2.2-.3.3-.3.6 0 .1 0 .3.1.4.1.1.2.2.4.3.1 0 .4.1.9.3.8.2 1.3.4 1.6.5.3.1.5.3.7.6.2.2.3.5.3.9s-.1.7-.3 1c-.2.3-.5.6-.9.7-.4.2-.8.3-1.3.3-.8 0-1.4-.2-1.9-.5-.5-.4-.8-.9-.9-1.5zM266.9 463.5l.2.9c-.3.1-.6.1-.8.1-.4 0-.7-.1-.9-.2-.2-.1-.4-.3-.4-.5-.1-.2-.1-.6-.1-1.3V459h-.9v-.8h.8v-1.6l1.1-.6v2.2h1.1v.8h-1.1v3.7c0 .3 0 .5.1.6 0 .1.1.2.2.2.1.1.2.1.4.1 0-.1.2-.1.3-.1zM307.5 463.4v1h-5.7c0-.3 0-.5.1-.7.1-.4.4-.8.7-1.1.3-.4.8-.8 1.4-1.3.9-.8 1.6-1.4 1.9-1.8.3-.4.5-.9.5-1.3s-.2-.8-.5-1.1c-.3-.3-.7-.4-1.2-.4s-.9.2-1.2.5c-.3.3-.5.7-.5 1.3l-1.1-.1c.1-.8.4-1.4.8-1.9.5-.4 1.1-.6 2-.6.8 0 1.5.2 2 .7.5.5.7 1 .7 1.7 0 .3-.1.7-.2 1-.1.3-.4.7-.7 1.1-.3.4-.9.9-1.6 1.5-.6.5-1 .9-1.2 1.1-.2.2-.3.4-.4.6h4.2zM308.9 464.4v-6.3h1v.9c.5-.7 1.1-1 2-1 .4 0 .7.1 1 .2.3.1.6.3.7.5.2.2.3.5.3.8 0 .2.1.5.1 1v3.8h-1.1v-3.8c0-.4 0-.8-.1-1-.1-.2-.2-.4-.4-.5-.2-.1-.5-.2-.7-.2-.5 0-.8.1-1.2.4-.3.3-.5.8-.5 1.6v3.4h-1.1zM319.7 464.4v-.8c-.4.6-1 .9-1.8.9-.5 0-1-.1-1.4-.4-.4-.3-.7-.7-1-1.2-.2-.5-.3-1.1-.3-1.7 0-.6.1-1.2.3-1.7.2-.5.5-.9.9-1.2.4-.3.9-.4 1.4-.4.4 0 .7.1 1 .2.3.2.5.4.7.6v-3.1h1.1v8.6h-.9zm-3.4-3.1c0 .8.2 1.4.5 1.8.3.4.7.6 1.2.6s.9-.2 1.2-.6c.3-.4.5-1 .5-1.7 0-.9-.2-1.5-.5-1.9-.3-.4-.7-.6-1.2-.6s-.9.2-1.2.6c-.3.4-.5 1-.5 1.8zM352.2 462.1l1.1-.1c.1.6.3 1 .6 1.3.3.3.6.4 1.1.4.5 0 .9-.2 1.3-.5.3-.3.5-.8.5-1.3s-.2-.9-.5-1.2c-.3-.3-.7-.5-1.2-.5-.2 0-.4 0-.7.1l.1-.9h.2c.5 0 .9-.1 1.2-.4.4-.2.5-.6.5-1.1 0-.4-.1-.7-.4-1-.3-.3-.6-.4-1-.4s-.8.1-1 .4c-.3.3-.5.6-.5 1.2l-1.1-.2c.1-.7.4-1.3.9-1.7.5-.4 1-.6 1.7-.6.5 0 .9.1 1.3.3.4.2.7.5.9.8.2.3.3.7.3 1.1 0 .4-.1.7-.3 1-.2.3-.5.6-.9.7.5.1.9.4 1.2.7.3.4.4.8.4 1.4 0 .8-.3 1.4-.8 1.9-.6.5-1.2.8-2.1.8-.8 0-1.4-.2-1.9-.7-.6-.2-.8-.7-.9-1.5zM359.2 464.4v-6.3h1v.9c.2-.4.5-.7.7-.9.2-.1.4-.2.7-.2.4 0 .7.1 1.1.3l-.4 1c-.3-.2-.5-.2-.8-.2-.2 0-.4.1-.6.2-.2.1-.3.3-.4.6-.1.4-.2.8-.2 1.2v3.3h-1.1zM367.3 464.4v-.8c-.4.6-1 .9-1.8.9-.5 0-1-.1-1.4-.4-.4-.3-.7-.7-1-1.2-.2-.5-.3-1.1-.3-1.7 0-.6.1-1.2.3-1.7.2-.5.5-.9.9-1.2.4-.3.9-.4 1.4-.4.4 0 .7.1 1 .2.3.2.5.4.7.6v-3.1h1.1v8.6h-.9zm-3.4-3.1c0 .8.2 1.4.5 1.8.3.4.7.6 1.2.6s.9-.2 1.2-.6c.3-.4.5-1 .5-1.7 0-.9-.2-1.5-.5-1.9-.3-.4-.7-.6-1.2-.6s-.9.2-1.2.6c-.3.4-.5 1-.5 1.8z"/><g><path d="M230 447.3h-1v-6.8c-.3.2-.6.5-1 .7-.4.2-.8.4-1.1.5v-1c.6-.3 1.1-.6 1.6-1 .4-.4.8-.8.9-1.2h.7v8.8zM233 447.3V441h.9v.9c.2-.3.5-.6.8-.7.3-.2.7-.3 1.1-.3.5 0 .8.1 1.1.3.3.2.5.5.6.8.5-.7 1.1-1.1 1.9-1.1.6 0 1.1.2 1.4.5.3.3.5.9.5 1.6v4.3h-1.1v-3.9c0-.4 0-.7-.1-.9s-.2-.3-.4-.5c-.2-.1-.4-.2-.6-.2-.4 0-.8.1-1.1.4-.3.3-.4.8-.4 1.4v3.6h-1.1v-4.1c0-.5-.1-.8-.3-1.1-.2-.2-.5-.4-.8-.4-.3 0-.6.1-.8.2-.3.2-.4.4-.6.7-.1.3-.2.7-.2 1.3v3.2h-.8zM243.4 447.3v-1.2h1.2v1.2h-1.2z"/></g><g><path d="M231.6 429.2v1h-5.7c0-.3 0-.5.1-.7.1-.4.4-.8.7-1.1.3-.4.8-.8 1.4-1.3.9-.8 1.6-1.4 1.9-1.8.3-.4.5-.9.5-1.3s-.2-.8-.5-1.1c-.3-.3-.7-.4-1.2-.4s-.9.2-1.2.5c-.3.3-.5.7-.5 1.3l-1.1-.1c.1-.8.4-1.4.8-1.9.5-.4 1.1-.6 2-.6.8 0 1.5.2 2 .7.5.5.7 1 .7 1.7 0 .3-.1.7-.2 1-.1.3-.4.7-.7 1.1-.3.4-.9.9-1.6 1.5-.6.5-1 .9-1.2 1.1-.2.2-.3.4-.4.6h4.2zM233 430.2V424h.9v.9c.2-.3.5-.6.8-.7.3-.2.7-.3 1.1-.3.5 0 .8.1 1.1.3.3.2.5.5.6.8.5-.7 1.1-1.1 1.9-1.1.6 0 1.1.2 1.4.5.3.3.5.9.5 1.6v4.3h-1.1v-3.9c0-.4 0-.7-.1-.9-.1-.2-.2-.3-.4-.5-.2-.1-.4-.2-.6-.2-.4 0-.8.1-1.1.4-.3.3-.4.8-.4 1.4v3.6h-1.1v-4.1c0-.5-.1-.8-.3-1.1-.2-.2-.5-.4-.8-.4-.3 0-.6.1-.8.2-.3.2-.4.4-.6.7-.1.3-.2.7-.2 1.3v3.2h-.8zM243.4 430.2V429h1.2v1.2h-1.2z"/></g><g><path d="M226 410.8l1.1-.1c.1.6.3 1 .6 1.3.3.3.6.4 1.1.4.5 0 .9-.2 1.3-.5s.5-.8.5-1.3-.2-.9-.5-1.2c-.3-.3-.7-.5-1.2-.5-.2 0-.4 0-.7.1l.1-.9h.2c.5 0 .9-.1 1.2-.4.4-.2.5-.6.5-1.1 0-.4-.1-.7-.4-1-.3-.3-.6-.4-1-.4s-.8.1-1 .4c-.3.3-.5.6-.5 1.2l-1.1-.2c.1-.7.4-1.3.9-1.7.5-.4 1-.6 1.7-.6.5 0 .9.1 1.3.3.4.2.7.5.9.8.2.3.3.7.3 1.1 0 .4-.1.7-.3 1-.2.3-.5.6-.9.7.5.1.9.4 1.2.7.3.4.4.8.4 1.4 0 .8-.3 1.4-.8 1.9-.6.5-1.2.8-2.1.8-.8 0-1.4-.2-1.9-.7-.5-.2-.8-.7-.9-1.5zM233 413.1v-6.3h.9v.9c.2-.3.5-.6.8-.7.3-.2.7-.3 1.1-.3.5 0 .8.1 1.1.3.3.2.5.5.6.8.5-.7 1.1-1.1 1.9-1.1.6 0 1.1.2 1.4.5.3.3.5.9.5 1.6v4.3h-1.1v-3.9c0-.4 0-.7-.1-.9s-.2-.3-.4-.5c-.2-.1-.4-.2-.6-.2-.4 0-.8.1-1.1.4-.3.3-.4.8-.4 1.4v3.6h-1.1v-4.1c0-.5-.1-.8-.3-1.1-.2-.2-.5-.4-.8-.4-.3 0-.6.1-.8.2-.3.2-.4.4-.6.7-.1.3-.2.7-.2 1.3v3.2h-.8zM243.4 413.1v-1.2h1.2v1.2h-1.2z"/></g><g><path d="M229.4 396v-2h-3.7v-1l3.9-5.6h.9v5.6h1.2v1h-1.2v2.1h-1.1zm0-3v-3.9l-2.7 3.9h2.7zM233 396v-6.3h.9v.9c.2-.3.5-.6.8-.7.3-.2.7-.3 1.1-.3.5 0 .8.1 1.1.3.3.2.5.5.6.8.5-.7 1.1-1.1 1.9-1.1.6 0 1.1.2 1.4.5.3.3.5.9.5 1.6v4.3h-1.1v-3.9c0-.4 0-.7-.1-.9s-.2-.3-.4-.5c-.2-.1-.4-.2-.6-.2-.4 0-.8.1-1.1.4-.3.3-.4.8-.4 1.4v3.6h-1.1V392c0-.5-.1-.8-.3-1.1-.2-.2-.5-.4-.8-.4-.3 0-.6.1-.8.2-.3.2-.4.4-.6.7-.1.3-.2.7-.2 1.3v3.2h-.8zM243.4 396v-1.2h1.2v1.2h-1.2z"/></g><g><path d="M226 376.7l1.1-.1c.1.5.3 1 .6 1.2.3.3.7.4 1.1.4.5 0 .9-.2 1.3-.6.4-.4.5-.9.5-1.5s-.2-1.1-.5-1.4-.8-.5-1.3-.5c-.3 0-.7.1-.9.2-.3.2-.5.4-.6.6l-1-.1.8-4.4h4.3v1H228l-.5 2.3c.5-.4 1.1-.5 1.6-.5.8 0 1.4.3 1.9.8s.8 1.2.8 2-.2 1.5-.7 2c-.6.7-1.3 1-2.3 1-.8 0-1.4-.2-1.9-.7-.5-.4-.8-1-.9-1.7zM233 378.9v-6.3h.9v.9c.2-.3.5-.6.8-.7.3-.2.7-.3 1.1-.3.5 0 .8.1 1.1.3.3.2.5.5.6.8.5-.7 1.1-1.1 1.9-1.1.6 0 1.1.2 1.4.5.3.3.5.9.5 1.6v4.3h-1.1V375c0-.4 0-.7-.1-.9-.1-.2-.2-.3-.4-.5-.2-.1-.4-.2-.6-.2-.4 0-.8.1-1.1.4-.3.3-.4.8-.4 1.4v3.6h-1.1v-4.1c0-.5-.1-.8-.3-1.1-.2-.2-.5-.4-.8-.4-.3 0-.6.1-.8.2-.3.2-.4.4-.6.7-.1.3-.2.7-.2 1.3v3.2h-.8zM243.4 378.9v-1.2h1.2v1.2h-1.2z"/></g><g><path d="M231.5 355.3l-1.1.1c-.1-.4-.2-.7-.4-.9-.3-.3-.6-.5-1.1-.5-.3 0-.6.1-.9.3-.3.2-.6.6-.8 1.1-.2.5-.3 1.1-.3 2 .3-.4.6-.7.9-.9.4-.2.8-.3 1.2-.3.7 0 1.3.3 1.8.8s.7 1.2.7 2c0 .5-.1 1-.4 1.5-.2.5-.6.8-1 1.1-.4.2-.9.4-1.4.4-.9 0-1.6-.3-2.2-1-.6-.7-.8-1.7-.8-3.2 0-1.7.3-2.9.9-3.6.5-.7 1.3-1 2.2-1 .7 0 1.2.2 1.7.6.7.3.9.8 1 1.5zm-4.3 3.7c0 .4.1.7.2 1 .2.3.4.6.7.8.3.2.6.3.9.3.4 0 .8-.2 1.2-.5.3-.4.5-.9.5-1.5s-.2-1.1-.5-1.4c-.3-.3-.7-.5-1.2-.5s-.9.2-1.2.5c-.4.3-.6.8-.6 1.3zM233 361.8v-6.3h.9v.9c.2-.3.5-.6.8-.7.3-.2.7-.3 1.1-.3.5 0 .8.1 1.1.3.3.2.5.5.6.8.5-.7 1.1-1.1 1.9-1.1.6 0 1.1.2 1.4.5.3.3.5.9.5 1.6v4.3h-1.1v-3.9c0-.4 0-.7-.1-.9s-.2-.3-.4-.5c-.2-.1-.4-.2-.6-.2-.4 0-.8.1-1.1.4-.3.3-.4.8-.4 1.4v3.6h-1.1v-4.1c0-.5-.1-.8-.3-1.1-.2-.2-.5-.4-.8-.4-.3 0-.6.1-.8.2-.3.2-.4.4-.6.7-.1.3-.2.7-.2 1.3v3.2h-.8zM243.4 361.8v-1.2h1.2v1.2h-1.2z"/></g></g><g opacity=".2" fill="none" stroke="#8D5833" stroke-miterlimit="10" stroke-dasharray="2"><path d="M252.9 348.4V451M404.2 365.3H253.3M404 433.5H253.1M404 450.8H253.1M404.2 399.3H253.3M404 382.6H253.1M404 416.9H253.1M303.6 348.6v102.6M353.9 348.6v102.7"/></g><path fill="#F15D50" d="M353.9 394.1c-3.1 0-5.7 2.6-5.7 5.7v.6c-1.6 1-3.4 2.2-5.3 3.5-9.8 6.3-23.9 15.5-35.3 20.2-1-1-2.4-1.6-4-1.6-2.8 0-5.1 2-5.6 4.6-11.3 2.3-25.3 1.9-35 1.6-1.6 0-3-.1-4.3-.1-.7-2.3-2.9-4-5.4-4-3.1 0-5.7 2.6-5.7 5.7s2.6 5.7 5.7 5.7c2 0 3.7-1 4.7-2.5 1.5 0 3.1.1 4.9.1 3.6.1 7.8.2 12.2.2 7.8 0 16.5-.4 24.1-2 1 1.3 2.6 2.1 4.4 2.1 3 0 5.4-2.3 5.7-5.2 11.9-4.9 26.3-14.2 36.3-20.7 1.9-1.2 3.7-2.4 5.2-3.4.9.6 2 .9 3.1.9 3.1 0 5.7-2.6 5.7-5.7s-2.6-5.7-5.7-5.7z"/><path fill="#D61F26" d="M353.9 359.8c-3.1 0-5.7 2.6-5.7 5.7 0 1.1.3 2.1.9 3-1.9 3.1-4.2 6.9-6.9 11.4-9.8 16.3-24 39.9-35.4 51.5-.9-.6-2-.9-3.1-.9-3.1 0-5.7 2.6-5.7 5.7 0 .6.1 1.2.3 1.8-11.1 5.6-25.2 3.4-34.8 1.8-1.7-.3-3.3-.5-4.8-.7-.8-2.1-2.9-3.6-5.3-3.6-3.1 0-5.7 2.6-5.7 5.7s2.6 5.7 5.7 5.7c2.1 0 4-1.2 5-2.9 1.3.2 2.8.4 4.3.7 5.2.8 11.6 1.9 18.3 1.9 7.1 0 14.4-1.2 20.9-4.9.6.2 1.2.3 1.8.3 3.1 0 5.7-2.6 5.7-5.7v-.4c12.1-11.9 26.9-36.5 37-53.4 2.6-4.3 4.9-8.2 6.9-11.3.2 0 .5.1.7.1 3.1 0 5.7-2.6 5.7-5.7-.1-3.2-2.7-5.8-5.8-5.8z"/><path fill="#424143" d="M622.3 294.6c-.8 5.2-5.6 9-11 8.5l-6.3-.8c7.5-88.5 7.1-88.4-2.6-.2l-17.2-1.8c7.6-88.5 7.1-88.4-2.6-.2l-7.3-.8c-5.5-.5-9.6-5.5-9.1-11 6.2-74.8 5.9-74.1-2.6.8l-.1 1.4c-.6 5.8 3.7 11.1 9.6 11.6l16.8 1.6-.8 8.6 6.4.6.8-8.6 16.8 1.6c5.8.6 11.1-3.7 11.6-9.6l.1-1.4c6.5-76.1 5.8-74.4-2.5-.3z"/><path fill="#854F29" d="M596.1 307.5l-6.5-.6-2.7 6.8-23.2 238.4c-.1 1.1 2.1 2.2 5 2.5 2.9.3 5.3-.4 5.4-1.5l23.2-238.4-1.2-7.2z"/><path fill="#D39C76" d="M589.2 464.7l1 1.7s2.7 1.2 3.3 2.1c.8 1.2 1.4 2 2 3.9.6 1.8-6.9 7-8.9 6.4-2-.7-2-3.4-2-3.4s-.4 2.2-.8 3.2-2.2 1.5-2.9-.2c-.7-1.7 0-3.7.3-5.1.3-1.4 1.6-3.3 1.6-3.3l.3-2.2 6.1-3.1z"/><path fill="#231F20" d="M543.6 419l-9.9-8.3-3.8 1.5-42.6 12.8-34.4-13.4-12 7.2s-23.3 16.5-48.2-5.5L388 420s18.9 21.2 55.7 15l10.5 60.7-10 52.8c-.1.9-2.4 1.7-2.4 1.7-3.1 1-8.8.1-8.8.1-2.6.1-1.2 1.1-1.2 1.1 2 1.2 8.5 1.1 11.4 1.1 2.9 0 3.6-.7 3.6-.7v.6h6c.9-1.4-.1-4.1-.1-4.1h-.1l11.8-40.1s9.3 1.3 28.5 1.3 26.7-1.9 26.7-1.9l4.4 40.6h-.1s-1 2.6-.1 4.1h6v-.3s.6.6 3.6.7c2.9 0 9.5.1 11.4-1.1 0 0 1.4-1.1-1.2-1.1 0 0-5.7.8-8.8-.1 0 0-2.3-.8-2.4-1.7h-.1l-1-52.3 9.2-59.5c24.8-4.5 42 32.4 42 32.4l6.7-3.9c-11.6-35.1-36.6-44.2-45.6-46.4z"/><path fill="#D61F26" d="M530.9 431.5c-1.8-3.9-2.2-9.4-2-14.6-5.3 3.2-13.2 7.2-22.8 10.1-5.6 8.3-13.9 14-13.9 14l-2.4 54.1 6.7 9.9s11.5-4.4 21.5-6.8c10-2.3 23.6-4.9 23.6-4.9s-3.1-11.8-3-24.5c.1-7.8 3-23.7 3-23.7s-6.2-3.8-10.7-13.6z"/><path fill="#D61F26" d="M490.6 440.5l.5-.3s.4-.3 1.1-.8c-2.2-1.7-5.7-4.8-9-8.7-8.2.2-17-1-26.1-4.2-.3 1.8-.8 3.6-1.5 5.1-4.5 9.7-10.6 13.7-10.6 13.7s3 15.8 3 23.7c.1 12.7-3 24.5-3 24.5s13.6 2.5 23.6 4.9c10 2.3 21.5 6.8 21.5 6.8l2.2-3.4-4.2-6.3 2.5-55z"/><path fill="#231F20" d="M504 485.6c-.1 2.9-2.6 5.1-5.4 4.9-2.9-.1-5.1-2.6-4.9-5.4.1-2.9 2.6-5.1 5.4-4.9 2.8.1 5 2.5 4.9 5.4zM505.3 456.3c-.1 2.9-2.6 5.1-5.4 4.9-2.9-.1-5.1-2.6-4.9-5.4.1-2.9 2.6-5.1 5.4-4.9 2.8.1 5.1 2.5 4.9 5.4zM504.6 470.9c-.1 2.9-2.6 5.1-5.4 4.9-2.9-.1-5.1-2.6-4.9-5.4.1-2.9 2.6-5.1 5.4-4.9 2.9.1 5.1 2.6 4.9 5.4z"/><path fill="#76553C" d="M482.5 358.8s8.5 32-21.2 32l26.4 9.9 21.7-27.2-26.9-14.7z"/><path fill="#B34A4A" d="M500.4 386.6s-22.1-9.9-31.6 7.1l19.8 5.6 11.8-12.7z"/><path fill="#D39C76" d="M461.3 389.6c11.3 6.8 26.8 4 32.5.3 8.1-5.4 8.4-19.3 5.7-20.5-.9-.4-12 8.4-32 .5l2.3-21.2-32-1.4 22.6-66.8s37.7-18.8 75.3 0v67.7c2-.9 4.1-1 5.9-.3 4.7 2 6.1 9.1 3.3 15.9-2 4.8-5.6 8.1-9.2 9v39.5s-38.6 30.6-81.4 13.2c0 0-13.3-5-12.4-21.8-.1-.2-.8-11.3 19.4-14.1z"/><path fill="#644229" d="M488.7 314.3c0 2.5 3.3 4.4 7.4 4.4 4.1 0 7.4-2 7.4-4.4s-3.3-4.4-7.4-4.4c-4.1 0-7.4 2-7.4 4.4zm-22.9 0c0 2.5 3.2 4.4 7.3 4.4 4 0 7.3-2 7.3-4.4s-3.3-4.4-7.3-4.4-7.3 2-7.3 4.4z"/><path fill="#231F20" d="M536.6 280.4h-.1c-.1-9.3-.1-21.2.1-28.7.7-23.1 7.5-32.9 2.1-33.9s-17.3-3.5-42-3.5c-22.1 0-38.8 3.1-44 4.2-5.2 1 3.7 19.8 5.2 33.3.7 6.4.8 16 .6 24.5-18 3.1-28.5 10.8-30.8 17.8h155c.2-.3-13.1-7.1-46.1-13.7z"/><path fill="#363534" d="M477 370.3c16.7 17.9 56.2 15 58.7-13.2.7-8.3-2.7-2.2-5.8.3-4.7 3.7-13.6 3.8-18.3.1-8.2-6.4-22.1-26.1-34.5-11.6-12.7-14.5-26.9 5.2-35.2 11.6-4.8 3.7-13.9 3.6-18.6-.1-3.2-2.5-6.7-8.6-5.9-.3 2.4 28.2 42.6 31.1 59.6 13.2z"/><path fill="#BE8862" d="M535.7 293.8h-79.9l-2.7 8.1h82.6z"/><path fill="#D39C76" d="M389 420.5l-2.7-1.2s-2.3.3-3.3-.2c-1.4-.7-3.9-2.6-5.4-4-1.5-1.4-2.4-3.2-2.7-4.2-.5-1.8 2.7-6.7 4.9-7.1 2.2-.4 8.1 4.4 8.1 4.4s-.7-2.3-.9-3.4c-.1-1.1 1.4-2.5 2.9-1.3s1.9 3.5 2.3 5c.4 1.5.2 3.9.2 3.9l.9 2.2-4.3 5.9z"/><g fill="#B48A2E"><path d="M181.1 100c-9.8 0-17.6-3.1-23.4-9.3-5.8-6.2-8.6-14.7-8.6-25.6 0-10.3 3-18.6 9-24.9 6-6.3 13.9-9.4 23.6-9.4 7.9 0 14.5 1.8 20 5.5l-3.9 9.4c-5.2-3.2-10.5-4.8-15.8-4.8-6.2 0-11.1 2.2-14.7 6.7-3.6 4.5-5.4 10.4-5.4 17.9 0 7.8 1.7 13.8 5.2 18 3.5 4.3 8.4 6.4 14.8 6.4 5.6 0 11.2-1.4 16.8-4.2l1.7 9.7c-5.1 3-11.6 4.6-19.3 4.6zM211.5 99V31.8h12.4v27.5h30.4V31.8h12.4V99h-12.4V69.1h-30.4V99h-12.4zM273.8 99l24.7-67.3H312L336.5 99h-12.8L317 80h-23.5l-6.7 19h-13zm22.9-28.3H314c-5.5-17.7-8.3-26.8-8.5-27.4l-8.8 27.4zM342.9 99V31.6h24.9c3.4 0 6.3.2 8.8.5 2.5.3 4.9.9 7.1 1.7 2.2.8 4.1 1.9 5.5 3.3 1.4 1.4 2.5 3.2 3.3 5.4.8 2.2 1.2 4.8 1.2 7.9 0 8.9-4.1 14.8-12.2 17.6 1.7 1.9 3.7 5.3 6.2 10.4l10 20.7h-13.6l-7.8-17.6c-3-6.3-4.8-10-5.5-11.2h-5.2l-10.4-.1V99h-12.3zm26-37.8c4.8 0 8.2-.8 10.3-2.5 2.1-1.7 3.1-4.4 3.1-8.2 0-3.3-1.1-5.7-3.2-7.3s-5.3-2.3-9.7-2.3h-14.3v20.3h13.8zM420.2 99V41.7h-19.6v-10h51.6v10h-19.5V99h-12.5zM460.4 99V31.8h12.4V99h-12.4zM506.6 99.9c-8.1 0-15.4-1.9-21.8-5.6l3-9.9c2.9 1.6 6 2.9 9.4 3.9 3.4 1 6.7 1.5 9.9 1.5 3.9 0 6.9-.8 9-2.5s3-4.1 3-7.3c0-4.2-2.8-7.1-8.4-8.8-.4-.1-1.5-.5-3.4-1-1.8-.5-3.6-1.1-5.2-1.6s-2.8-.9-3.5-1.2c-9-3.2-13.5-9.1-13.5-17.8 0-6.1 2.2-10.8 6.5-14.1 4.3-3.3 10.1-5 17.2-5 8.1 0 15.1 1.7 21 5l-3.8 9.1c-6-2.7-11.6-4-16.7-4-3.7 0-6.5.7-8.4 2-1.9 1.3-2.9 3.5-3 6.5 0 3.7 1.9 6.2 5.6 7.3.7.3 2.5.9 5.4 1.8 2.9.9 4.7 1.5 5.6 1.8 6.2 2 10.5 4.5 13.2 7.5 2.6 3 4 7.2 4 12.5 0 6.4-2.3 11.3-6.8 14.8-4.6 3.4-10.7 5.1-18.3 5.1zM555.3 99V41.7h-19.6v-10h51.6v10h-19.5V99h-12.5zM596.9 99.8c-2 0-3.7-.7-5-2.1s-2.1-3-2.1-4.9c0-1.9.7-3.6 2-5 1.4-1.4 3.1-2.1 5.1-2.1 2 0 3.6.7 5 2.1 1.3 1.4 2 3.1 2 5s-.7 3.5-2 4.9c-1.4 1.4-3 2.1-5 2.1zM604 113.7l-.5-9.8c1.5.2 3.1.4 4.8.4 3.4 0 5.7-.9 6.9-2.6s1.8-4.6 1.8-8.6V31.6h12.5v60.7c0 3.9-.3 7.1-1 9.8-.7 2.6-1.9 4.9-3.5 6.7-1.6 1.9-3.8 3.2-6.5 4.1-2.7.9-6.1 1.3-10.1 1.3-1.7-.1-3.1-.2-4.4-.5zM662.6 99.9c-8.1 0-15.4-1.9-21.8-5.6l3-9.9c2.9 1.6 6 2.9 9.4 3.9 3.4 1 6.7 1.5 9.9 1.5 3.9 0 6.9-.8 9-2.5s3-4.1 3-7.3c0-4.2-2.8-7.1-8.4-8.8-.4-.1-1.5-.5-3.4-1-1.8-.5-3.6-1.1-5.2-1.6s-2.8-.9-3.5-1.2c-9-3.2-13.5-9.1-13.5-17.8 0-6.1 2.2-10.8 6.5-14.1 4.3-3.3 10.1-5 17.2-5 8.1 0 15.1 1.7 21 5l-3.8 9.1c-6-2.7-11.6-4-16.7-4-3.7 0-6.5.7-8.4 2-1.9 1.3-2.9 3.5-3 6.5 0 3.7 1.9 6.2 5.6 7.3.7.3 2.5.9 5.4 1.8 2.9.9 4.7 1.5 5.6 1.8 6.2 2 10.5 4.5 13.2 7.5 2.6 3 4 7.2 4 12.5 0 6.4-2.3 11.3-6.8 14.8-4.6 3.4-10.7 5.1-18.3 5.1zM252.8 143.9c-2.1 0-4-.5-5.7-1.5l.8-2.6c.8.4 1.6.8 2.5 1s1.8.4 2.6.4c1 0 1.8-.2 2.4-.7.5-.4.8-1.1.8-1.9 0-1.1-.7-1.9-2.2-2.3-.1 0-.4-.1-.9-.3s-.9-.3-1.4-.4c-.4-.1-.7-.2-.9-.3-2.4-.8-3.6-2.4-3.6-4.7 0-1.6.6-2.8 1.7-3.7 1.1-.9 2.6-1.3 4.5-1.3 2.1 0 4 .4 5.5 1.3l-1 2.4c-1.6-.7-3-1.1-4.4-1.1-1 0-1.7.2-2.2.5-.5.3-.8.9-.8 1.7 0 1 .5 1.6 1.5 1.9.2.1.7.2 1.4.5s1.2.4 1.5.5c1.6.5 2.8 1.2 3.5 2 .7.8 1 1.9 1 3.3 0 1.7-.6 3-1.8 3.9-1.2.9-2.8 1.4-4.8 1.4zM262.2 143.6v-17.7h3.3v17.7h-3.3zM269.4 143.6v-17.7h3.9l5.3 12.8 5.4-12.8h3.8v17.7h-3v-8.7l.1-5-.4 1.3-4.5 11.2h-2.8l-4.4-11.3-.4-1.3.1 5.1v8.7h-3.1zM291.6 143.6v-17.7h5.9c1.4 0 2.6.2 3.6.5s1.8.9 2.3 1.7c.6.8.9 1.8.9 3 0 .8-.1 1.6-.3 2.3-.2.7-.6 1.3-1.1 1.8-.5.5-1.2.9-2.1 1.2-.9.3-2 .4-3.3.4-1.1 0-2 0-2.7-.1v6.8h-3.2zm5.5-9.1c.7 0 1.2-.1 1.7-.2s.9-.3 1.2-.5c.3-.2.5-.5.7-.7.2-.3.3-.6.3-.9.1-.3.1-.6.1-.9 0-1-.3-1.7-.9-2.2-.6-.5-1.5-.8-2.7-.8h-2.7v6.2h2.3zM306.7 143.6v-17.7h3.3V141h7.4l-.1 2.6h-10.6zM319.6 143.6v-17.7h10.7l-.1 2.6h-7.3v4.6h7v2.6h-7v5.3h7.6l-.1 2.6h-10.8zM339.9 143.6v-17.7h6.6c.9 0 1.7 0 2.3.1.7.1 1.3.2 1.9.4.6.2 1.1.5 1.4.9.4.4.7.8.9 1.4.2.6.3 1.3.3 2.1 0 2.3-1.1 3.9-3.2 4.6.4.5 1 1.4 1.6 2.7l2.6 5.5h-3.6l-2.1-4.6c-.8-1.7-1.3-2.6-1.4-2.9h-4.1v7.6h-3.2zm6.9-9.9c1.3 0 2.2-.2 2.7-.7.5-.4.8-1.2.8-2.2 0-.9-.3-1.5-.8-1.9-.6-.4-1.4-.6-2.5-.6h-3.8v5.3h1.8c1.1.1 1.7.1 1.8.1zM356.7 143.6v-17.7h10.7l-.1 2.6H360v4.6h7v2.6h-7v5.3h7.6l-.1 2.6h-10.8zM375.6 143.9c-2.1 0-4-.5-5.7-1.5l.8-2.6c.8.4 1.6.8 2.5 1s1.8.4 2.6.4c1 0 1.8-.2 2.4-.7.5-.4.8-1.1.8-1.9 0-1.1-.7-1.9-2.2-2.3-.1 0-.4-.1-.9-.3s-.9-.3-1.4-.4c-.4-.1-.7-.2-.9-.3-2.4-.8-3.6-2.4-3.6-4.7 0-1.6.6-2.8 1.7-3.7 1.1-.9 2.6-1.3 4.5-1.3 2.1 0 4 .4 5.5 1.3l-1 2.4c-1.6-.7-3-1.1-4.4-1.1-1 0-1.7.2-2.2.5-.5.3-.8.9-.8 1.7 0 1 .5 1.6 1.5 1.9.2.1.7.2 1.4.5.8.2 1.2.4 1.5.5 1.6.5 2.8 1.2 3.5 2 .7.8 1 1.9 1 3.3 0 1.7-.6 3-1.8 3.9-1.2.9-2.8 1.4-4.8 1.4zM384.9 143.6v-17.7h5.9c1.4 0 2.6.2 3.6.5 1 .4 1.8.9 2.3 1.7.6.8.9 1.8.9 3 0 .8-.1 1.6-.3 2.3-.2.7-.6 1.3-1.1 1.8-.5.5-1.2.9-2.1 1.2-.9.3-2 .4-3.3.4-1.1 0-2 0-2.7-.1v6.8h-3.2zm5.5-9.1c.7 0 1.2-.1 1.7-.2s.9-.3 1.2-.5c.3-.2.5-.5.7-.7.2-.3.3-.6.3-.9.1-.3.1-.6.1-.9 0-1-.3-1.7-.9-2.2-.6-.5-1.5-.8-2.7-.8h-2.7v6.2h2.3zM407.9 143.9c-2.7 0-4.8-.8-6.3-2.4-1.5-1.6-2.3-3.8-2.3-6.7 0-2.9.8-5.1 2.3-6.7 1.5-1.6 3.6-2.4 6.3-2.4 2.7 0 4.8.8 6.3 2.4 1.5 1.6 2.3 3.8 2.3 6.7 0 2.8-.8 5-2.3 6.7-1.5 1.6-3.6 2.4-6.3 2.4zm-3.9-4.4c.9 1.1 2.2 1.7 3.9 1.7 1.7 0 3-.6 3.9-1.7.9-1.1 1.3-2.7 1.3-4.7 0-2.1-.4-3.7-1.3-4.8-.9-1.1-2.2-1.7-3.9-1.7-1.7 0-3 .6-3.9 1.7-.9 1.1-1.3 2.7-1.3 4.8 0 2 .5 3.6 1.3 4.7zM419.6 143.6v-17.7h3.5c.6 1 1.9 3 3.8 5.9 1.9 3 3.1 4.8 3.5 5.4.1.2.3.5.6.9s.5.8.6.9c-.1-2.8-.1-4.2-.1-4.3v-8.9h3v17.7H431l-8-12.4-.6-1c.1 2.1.1 3.6.1 4.5v8.9h-2.9zM443.4 143.9c-2.1 0-4-.5-5.7-1.5l.8-2.6c.8.4 1.6.8 2.5 1 .9.3 1.8.4 2.6.4 1 0 1.8-.2 2.4-.7.5-.4.8-1.1.8-1.9 0-1.1-.7-1.9-2.2-2.3-.1 0-.4-.1-.9-.3s-.9-.3-1.4-.4c-.4-.1-.7-.2-.9-.3-2.4-.8-3.6-2.4-3.6-4.7 0-1.6.6-2.8 1.7-3.7 1.1-.9 2.6-1.3 4.5-1.3 2.1 0 4 .4 5.5 1.3l-1 2.4c-1.6-.7-3-1.1-4.4-1.1-1 0-1.7.2-2.2.5-.5.3-.8.9-.8 1.7 0 1 .5 1.6 1.5 1.9.2.1.7.2 1.4.5.8.2 1.2.4 1.5.5 1.6.5 2.8 1.2 3.5 2 .7.8 1 1.9 1 3.3 0 1.7-.6 3-1.8 3.9-1.2.9-2.8 1.4-4.8 1.4zM452.8 143.6v-17.7h3.3v17.7h-3.3zM464.5 143.6l-6.4-17.7h3.4l3.7 10.9c.1.4.5 1.5 1 3.3 0-.1.2-.7.4-1.6.3-.9.4-1.5.5-1.7.1-.3.7-2.1 1.8-5.5s1.7-5.2 1.8-5.5h3.3l-6.3 17.7h-3.2zM475.8 143.6v-17.7h10.7l-.1 2.6h-7.3v4.6h7v2.6h-7v5.3h7.6l-.1 2.6h-10.8zM504 143.9c-2.6 0-4.6-.8-6.1-2.4-1.5-1.6-2.3-3.9-2.3-6.7 0-2.7.8-4.9 2.4-6.5 1.6-1.6 3.7-2.5 6.2-2.5 2.1 0 3.8.5 5.3 1.4l-1 2.5c-1.4-.8-2.8-1.3-4.2-1.3-1.6 0-2.9.6-3.9 1.8-.9 1.2-1.4 2.7-1.4 4.7s.5 3.6 1.4 4.7c.9 1.1 2.2 1.7 3.9 1.7 1.5 0 2.9-.4 4.4-1.1l.4 2.6c-1.4.7-3.1 1.1-5.1 1.1zM512 143.6v-17.7h3.3v7.2h8v-7.2h3.3v17.7h-3.3v-7.9h-8v7.9H512zM528.4 143.6l6.5-17.7h3.6l6.4 17.7h-3.4l-1.7-5h-6.2l-1.8 5h-3.4zm6-7.4h4.5c-1.4-4.6-2.2-7-2.2-7.2l-2.3 7.2zM546.5 143.6v-17.7h6.6c.9 0 1.7 0 2.3.1.7.1 1.3.2 1.9.4.6.2 1.1.5 1.4.9.4.4.7.8.9 1.4.2.6.3 1.3.3 2.1 0 2.3-1.1 3.9-3.2 4.6.4.5 1 1.4 1.6 2.7l2.6 5.5h-3.6l-2.1-4.6c-.8-1.7-1.3-2.6-1.4-2.9h-4.1v7.6h-3.2zm6.9-9.9c1.3 0 2.2-.2 2.7-.7.5-.4.8-1.2.8-2.2 0-.9-.3-1.5-.8-1.9-.6-.4-1.4-.6-2.5-.6h-3.8v5.3h1.8c1.1 0 1.6.1 1.8.1zM566.8 143.6v-15.1h-5.2v-2.6h13.6v2.6h-5.1v15.1h-3.3zM582.3 143.9c-2.1 0-4-.5-5.7-1.5l.8-2.6c.8.4 1.6.8 2.5 1 .9.3 1.8.4 2.6.4 1 0 1.8-.2 2.4-.7.5-.4.8-1.1.8-1.9 0-1.1-.7-1.9-2.2-2.3-.1 0-.4-.1-.9-.3-.5-.1-.9-.3-1.4-.4-.4-.1-.7-.2-.9-.3-2.4-.8-3.6-2.4-3.6-4.7 0-1.6.6-2.8 1.7-3.7 1.1-.9 2.6-1.3 4.5-1.3 2.1 0 4 .4 5.5 1.3l-1 2.4c-1.6-.7-3-1.1-4.4-1.1-1 0-1.7.2-2.2.5-.5.3-.8.9-.8 1.7 0 1 .5 1.6 1.5 1.9.2.1.7.2 1.4.5.8.2 1.2.4 1.5.5 1.6.5 2.8 1.2 3.5 2 .7.8 1 1.9 1 3.3 0 1.7-.6 3-1.8 3.9-1.2.9-2.8 1.4-4.8 1.4z"/></g><g fill="#FFF"><path d="M178.1 98c-9.8 0-17.6-3.1-23.4-9.3-5.8-6.2-8.6-14.7-8.6-25.6 0-10.3 3-18.6 9-24.9 6-6.3 13.9-9.4 23.6-9.4 7.9 0 14.5 1.8 20 5.5l-3.9 9.4c-5.2-3.2-10.5-4.8-15.8-4.8-6.2 0-11.1 2.2-14.7 6.7s-5.4 10.4-5.4 17.9c0 7.8 1.7 13.8 5.2 18 3.5 4.3 8.4 6.4 14.8 6.4 5.6 0 11.2-1.4 16.8-4.2l1.7 9.7c-5.1 3-11.6 4.6-19.3 4.6zM208.5 97V29.8h12.4v27.5h30.4V29.8h12.4V97h-12.4V67.1h-30.4V97h-12.4zM270.8 97l24.7-67.3H309L333.5 97h-12.8L314 78h-23.5l-6.7 19h-13zm22.9-28.3H311c-5.5-17.7-8.3-26.8-8.5-27.4l-8.8 27.4zM339.9 97V29.6h24.9c3.4 0 6.3.2 8.8.5 2.5.3 4.9.9 7.1 1.7 2.2.8 4.1 1.9 5.5 3.3s2.5 3.2 3.3 5.4c.8 2.2 1.2 4.8 1.2 7.9 0 8.9-4.1 14.8-12.2 17.6 1.7 1.9 3.7 5.3 6.2 10.4l10 20.7h-13.6l-7.8-17.6c-3-6.3-4.8-10-5.5-11.2h-5.2l-10.4-.1V97h-12.3zm26-37.8c4.8 0 8.2-.8 10.3-2.5 2.1-1.7 3.1-4.4 3.1-8.2 0-3.3-1.1-5.7-3.2-7.3s-5.3-2.3-9.7-2.3h-14.3v20.3h13.8zM417.2 97V39.7h-19.6v-10h51.6v10h-19.5V97h-12.5zM457.4 97V29.8h12.4V97h-12.4zM503.6 97.9c-8.1 0-15.4-1.9-21.8-5.6l3-9.9c2.9 1.6 6 2.9 9.4 3.9 3.4 1 6.7 1.5 9.9 1.5 3.9 0 6.9-.8 9-2.5s3-4.1 3-7.3c0-4.2-2.8-7.1-8.4-8.8-.4-.1-1.5-.5-3.4-1-1.8-.5-3.6-1.1-5.2-1.6s-2.8-.9-3.5-1.2c-9-3.2-13.5-9.1-13.5-17.8 0-6.1 2.2-10.8 6.5-14.1 4.3-3.3 10.1-5 17.2-5 8.1 0 15.1 1.7 21 5l-3.8 9.1c-6-2.7-11.6-4-16.7-4-3.7 0-6.5.7-8.4 2-1.9 1.3-2.9 3.5-3 6.5 0 3.7 1.9 6.2 5.6 7.3.7.3 2.5.9 5.4 1.8 2.9.9 4.7 1.5 5.6 1.8 6.2 2 10.5 4.5 13.2 7.5 2.6 3 4 7.2 4 12.5 0 6.4-2.3 11.3-6.8 14.8-4.6 3.4-10.7 5.1-18.3 5.1zM552.3 97V39.7h-19.6v-10h51.6v10h-19.5V97h-12.5zM593.9 97.8c-2 0-3.7-.7-5-2.1s-2.1-3-2.1-4.9c0-1.9.7-3.6 2-5 1.4-1.4 3.1-2.1 5.1-2.1 2 0 3.6.7 5 2.1 1.3 1.4 2 3.1 2 5s-.7 3.5-2 4.9c-1.4 1.4-3 2.1-5 2.1zM601 111.7l-.5-9.8c1.5.2 3.1.4 4.8.4 3.4 0 5.7-.9 6.9-2.6s1.8-4.6 1.8-8.6V29.6h12.5v60.7c0 3.9-.3 7.1-1 9.8-.7 2.6-1.9 4.9-3.5 6.7-1.6 1.9-3.8 3.2-6.5 4.1-2.7.9-6.1 1.3-10.1 1.3-1.7-.1-3.1-.2-4.4-.5zM659.6 97.9c-8.1 0-15.4-1.9-21.8-5.6l3-9.9c2.9 1.6 6 2.9 9.4 3.9 3.4 1 6.7 1.5 9.9 1.5 3.9 0 6.9-.8 9-2.5s3-4.1 3-7.3c0-4.2-2.8-7.1-8.4-8.8-.4-.1-1.5-.5-3.4-1-1.8-.5-3.6-1.1-5.2-1.6s-2.8-.9-3.5-1.2c-9-3.2-13.5-9.1-13.5-17.8 0-6.1 2.2-10.8 6.5-14.1 4.3-3.3 10.1-5 17.2-5 8.1 0 15.1 1.7 21 5l-3.8 9.1c-6-2.7-11.6-4-16.7-4-3.7 0-6.5.7-8.4 2-1.9 1.3-2.9 3.5-3 6.5 0 3.7 1.9 6.2 5.6 7.3.7.3 2.5.9 5.4 1.8 2.9.9 4.7 1.5 5.6 1.8 6.2 2 10.5 4.5 13.2 7.5 2.6 3 4 7.2 4 12.5 0 6.4-2.3 11.3-6.8 14.8-4.6 3.4-10.7 5.1-18.3 5.1zM251.6 142.7c-2.1 0-4-.5-5.7-1.5l.8-2.6c.8.4 1.6.8 2.5 1 .9.3 1.8.4 2.6.4 1 0 1.8-.2 2.4-.7.5-.4.8-1.1.8-1.9 0-1.1-.7-1.9-2.2-2.3-.1 0-.4-.1-.9-.3s-.9-.3-1.4-.4c-.4-.1-.7-.2-.9-.3-2.4-.8-3.6-2.4-3.6-4.7 0-1.6.6-2.8 1.7-3.7 1.1-.9 2.6-1.3 4.5-1.3 2.1 0 4 .4 5.5 1.3l-1 2.4c-1.6-.7-3-1.1-4.4-1.1-1 0-1.7.2-2.2.5-.5.3-.8.9-.8 1.7 0 1 .5 1.6 1.5 1.9.2.1.7.2 1.4.5.8.2 1.2.4 1.5.5 1.6.5 2.8 1.2 3.5 2 .7.8 1 1.9 1 3.3 0 1.7-.6 3-1.8 3.9-1.2.9-2.8 1.4-4.8 1.4zM261.1 142.4v-17.7h3.3v17.7h-3.3zM268.2 142.4v-17.7h3.9l5.3 12.8 5.4-12.8h3.8v17.7h-3v-8.7l.1-5-.4 1.3-4.5 11.2H276l-4.4-11.3-.4-1.3.1 5.1v8.7h-3.1zM290.4 142.4v-17.7h5.9c1.4 0 2.6.2 3.6.5 1 .4 1.8.9 2.3 1.7.6.8.9 1.8.9 3 0 .8-.1 1.6-.3 2.3-.2.7-.6 1.3-1.1 1.8-.5.5-1.2.9-2.1 1.2-.9.3-2 .4-3.3.4-1.1 0-2 0-2.7-.1v6.8h-3.2zm5.5-9c.7 0 1.2-.1 1.7-.2s.9-.3 1.2-.5c.3-.2.5-.5.7-.7.2-.3.3-.6.3-.9.1-.3.1-.6.1-.9 0-1-.3-1.7-.9-2.2-.6-.5-1.5-.8-2.7-.8h-2.7v6.2h2.3zM305.5 142.4v-17.7h3.3v15.1h7.4l-.1 2.6h-10.6zM318.4 142.4v-17.7h10.7l-.1 2.6h-7.3v4.6h7v2.6h-7v5.3h7.6l-.1 2.6h-10.8zM338.8 142.4v-17.7h6.6c.9 0 1.7 0 2.3.1.7.1 1.3.2 1.9.4.6.2 1.1.5 1.4.9.4.4.7.8.9 1.4.2.6.3 1.3.3 2.1 0 2.3-1.1 3.9-3.2 4.6.4.5 1 1.4 1.6 2.7l2.6 5.5h-3.6l-2.1-4.6c-.8-1.7-1.3-2.6-1.4-2.9H342v7.6h-3.2zm6.8-9.9c1.3 0 2.2-.2 2.7-.7.5-.4.8-1.2.8-2.2 0-.9-.3-1.5-.8-1.9-.6-.4-1.4-.6-2.5-.6H342v5.3h1.8c1.1.1 1.7.1 1.8.1zM355.5 142.4v-17.7h10.7l-.1 2.6h-7.3v4.6h7v2.6h-7v5.3h7.6l-.1 2.6h-10.8zM374.4 142.7c-2.1 0-4-.5-5.7-1.5l.8-2.6c.8.4 1.6.8 2.5 1 .9.3 1.8.4 2.6.4 1 0 1.8-.2 2.4-.7.5-.4.8-1.1.8-1.9 0-1.1-.7-1.9-2.2-2.3-.1 0-.4-.1-.9-.3s-.9-.3-1.4-.4c-.4-.1-.7-.2-.9-.3-2.4-.8-3.6-2.4-3.6-4.7 0-1.6.6-2.8 1.7-3.7 1.1-.9 2.6-1.3 4.5-1.3 2.1 0 4 .4 5.5 1.3l-1 2.4c-1.6-.7-3-1.1-4.4-1.1-1 0-1.7.2-2.2.5-.5.3-.8.9-.8 1.7 0 1 .5 1.6 1.5 1.9.2.1.7.2 1.4.5.8.2 1.2.4 1.5.5 1.6.5 2.8 1.2 3.5 2 .7.8 1 1.9 1 3.3 0 1.7-.6 3-1.8 3.9-1.2.9-2.8 1.4-4.8 1.4zM383.7 142.4v-17.7h5.9c1.4 0 2.6.2 3.6.5 1 .4 1.8.9 2.3 1.7.6.8.9 1.8.9 3 0 .8-.1 1.6-.3 2.3-.2.7-.6 1.3-1.1 1.8-.5.5-1.2.9-2.1 1.2-.9.3-2 .4-3.3.4-1.1 0-2 0-2.7-.1v6.8h-3.2zm5.6-9c.7 0 1.2-.1 1.7-.2s.9-.3 1.2-.5c.3-.2.5-.5.7-.7.2-.3.3-.6.3-.9.1-.3.1-.6.1-.9 0-1-.3-1.7-.9-2.2-.6-.5-1.5-.8-2.7-.8H387v6.2h2.3zM406.7 142.7c-2.7 0-4.8-.8-6.3-2.4-1.5-1.6-2.3-3.8-2.3-6.7 0-2.9.8-5.1 2.3-6.7 1.5-1.6 3.6-2.4 6.3-2.4 2.7 0 4.8.8 6.3 2.4 1.5 1.6 2.3 3.8 2.3 6.7 0 2.8-.8 5-2.3 6.7s-3.6 2.4-6.3 2.4zm-3.8-4.3c.9 1.1 2.2 1.7 3.9 1.7 1.7 0 3-.6 3.9-1.7.9-1.1 1.3-2.7 1.3-4.7 0-2.1-.4-3.7-1.3-4.8-.9-1.1-2.2-1.7-3.9-1.7-1.7 0-3 .6-3.9 1.7-.9 1.1-1.3 2.7-1.3 4.8-.1 2 .4 3.5 1.3 4.7zM418.5 142.4v-17.7h3.5c.6 1 1.9 3 3.8 5.9 1.9 3 3.1 4.8 3.5 5.4.1.2.3.5.6.9s.5.8.6.9c-.1-2.8-.1-4.2-.1-4.3v-8.9h3v17.7h-3.5l-8-12.4-.6-1c.1 2.1.1 3.6.1 4.5v8.9h-2.9zM442.2 142.7c-2.1 0-4-.5-5.7-1.5l.8-2.6c.8.4 1.6.8 2.5 1 .9.3 1.8.4 2.6.4 1 0 1.8-.2 2.4-.7.5-.4.8-1.1.8-1.9 0-1.1-.7-1.9-2.2-2.3-.1 0-.4-.1-.9-.3s-.9-.3-1.4-.4c-.4-.1-.7-.2-.9-.3-2.4-.8-3.6-2.4-3.6-4.7 0-1.6.6-2.8 1.7-3.7 1.1-.9 2.6-1.3 4.5-1.3 2.1 0 4 .4 5.5 1.3l-1 2.4c-1.6-.7-3-1.1-4.4-1.1-1 0-1.7.2-2.2.5-.5.3-.8.9-.8 1.7 0 1 .5 1.6 1.5 1.9.2.1.7.2 1.4.5.8.2 1.2.4 1.5.5 1.6.5 2.8 1.2 3.5 2 .7.8 1 1.9 1 3.3 0 1.7-.6 3-1.8 3.9-1.2.9-2.8 1.4-4.8 1.4zM451.6 142.4v-17.7h3.3v17.7h-3.3zM463.3 142.4l-6.4-17.7h3.4l3.7 10.9c.1.4.5 1.5 1 3.3 0-.1.2-.7.4-1.6.3-.9.4-1.5.5-1.7.1-.3.7-2.1 1.8-5.5s1.7-5.2 1.8-5.5h3.3l-6.3 17.7h-3.2zM474.6 142.4v-17.7h10.7l-.1 2.6h-7.3v4.6h7v2.6h-7v5.3h7.6l-.1 2.6h-10.8zM502.8 142.7c-2.6 0-4.6-.8-6.1-2.4-1.5-1.6-2.3-3.9-2.3-6.7 0-2.7.8-4.9 2.4-6.5 1.6-1.6 3.7-2.5 6.2-2.5 2.1 0 3.8.5 5.3 1.4l-1 2.5c-1.4-.8-2.8-1.3-4.2-1.3-1.6 0-2.9.6-3.9 1.8-.9 1.2-1.4 2.7-1.4 4.7s.5 3.6 1.4 4.7c.9 1.1 2.2 1.7 3.9 1.7 1.5 0 2.9-.4 4.4-1.1l.4 2.6c-1.4.7-3.1 1.1-5.1 1.1zM510.8 142.4v-17.7h3.3v7.2h8v-7.2h3.3v17.7H522v-7.9h-8v7.9h-3.2zM527.2 142.4l6.5-17.7h3.6l6.4 17.7h-3.4l-1.7-5h-6.2l-1.8 5h-3.4zm6-7.4h4.5c-1.4-4.6-2.2-7-2.2-7.2l-2.3 7.2zM545.3 142.4v-17.7h6.6c.9 0 1.7 0 2.3.1.7.1 1.3.2 1.9.4.6.2 1.1.5 1.4.9.4.4.7.8.9 1.4.2.6.3 1.3.3 2.1 0 2.3-1.1 3.9-3.2 4.6.4.5 1 1.4 1.6 2.7l2.6 5.5h-3.6l-2.1-4.6c-.8-1.7-1.3-2.6-1.4-2.9h-4.1v7.6h-3.2zm6.9-9.9c1.3 0 2.2-.2 2.7-.7.5-.4.8-1.2.8-2.2 0-.9-.3-1.5-.8-1.9-.6-.4-1.4-.6-2.5-.6h-3.8v5.3h1.8c1.1.1 1.7.1 1.8.1zM565.7 142.4v-15.1h-5.2v-2.6h13.6v2.6H569v15.1h-3.3zM581.1 142.7c-2.1 0-4-.5-5.7-1.5l.8-2.6c.8.4 1.6.8 2.5 1 .9.3 1.8.4 2.6.4 1 0 1.8-.2 2.4-.7.5-.4.8-1.1.8-1.9 0-1.1-.7-1.9-2.2-2.3-.1 0-.4-.1-.9-.3-.5-.1-.9-.3-1.4-.4-.4-.1-.7-.2-.9-.3-2.4-.8-3.6-2.4-3.6-4.7 0-1.6.6-2.8 1.7-3.7 1.1-.9 2.6-1.3 4.5-1.3 2.1 0 4 .4 5.5 1.3l-1 2.4c-1.6-.7-3-1.1-4.4-1.1-1 0-1.7.2-2.2.5-.5.3-.8.9-.8 1.7 0 1 .5 1.6 1.5 1.9.2.1.7.2 1.4.5.8.2 1.2.4 1.5.5 1.6.5 2.8 1.2 3.5 2 .7.8 1 1.9 1 3.3 0 1.7-.6 3-1.8 3.9-1.2.9-2.8 1.4-4.8 1.4z"/></g></svg>