<svg xmlns="http://www.w3.org/2000/svg" width="256" height="256" viewBox="0 0 120 120"><rect width="120" height="120" ry="4.949" fill="#002b36"/><path fill="#efe8d5" d="M84.79 53.752l8.542-20.178 9.89.803v50.89l-9.296.766V55.938l-9.11 20.99-.208.01-9.6-21.063v31.717l-10.97.903V31.197l11.75.954zm18.43-31.417L60 16.542v6.375l43.22 4.426zm0 70.322L60 97.082v6.376l43.22-5.794z"/><path fill="#c6bda8" d="M35.995 53.752l-8.543-20.178-9.89.803v50.89l9.297.766V55.938l9.11 20.99.206.01 9.6-21.063v31.717l10.97.903V31.197l-11.752.954zM16.78 22.335L60 16.542v6.375l-43.22 4.426zm0 70.322L60 97.082v6.376l-43.22-5.794z"/></svg>