<svg stroke-width=".501" stroke-linejoin="bevel" fill-rule="evenodd" xmlns="http://www.w3.org/2000/svg" overflow="visible" width="800" height="360" viewBox="0 0 600 270"><g fill-rule="nonzero" stroke="none" stroke-width=".243" stroke-miterlimit="79.84" fill="none" font-family="Times New Roman" font-size="16"><path d="M219.922 249.023c-.003.87-.186 1.632-.556 2.285-.362.65-1.006 1.182-1.924 1.57-.92.39-2.085.727-3.52 1.015-1.418.29-3.274.44-5.57.47-2.115.02-3.924-.102-5.442-.35-1.51-.255-2.708-.564-3.58-.934-.872-.375-1.49-.884-1.86-1.53-.37-.645-.55-1.407-.55-2.277l-.004-183.47-.28.01-63.494 184.975c-.272.764-.66 1.423-1.17 1.967-.508.55-1.237 1.012-2.2 1.406-.967.392-2.11.677-3.443.85-1.333.18-2.92.283-4.757.3-1.926.027-3.58-.064-4.953-.273-1.38-.2-2.53-.485-3.444-.852-.92-.368-1.632-.827-2.138-1.37a4.23 4.23 0 0 1-1.035-1.775L49.26 67.425l-.134.002.004 183.466c-.004.865-.19 1.633-.56 2.286-.364.657-1.003 1.18-1.926 1.563-.917.397-2.112.733-3.582 1.024-1.47.285-3.347.438-5.64.467-2.204.02-4.042-.094-5.515-.352-1.465-.256-2.638-.56-3.512-.94-.87-.363-1.47-.878-1.788-1.516-.32-.656-.485-1.412-.485-2.28l.003-193.725c-.003-4.554 1.008-7.818 3.026-9.796 2.024-1.975 4.274-2.987 6.75-3.004l14.327-.165c2.935-.03 5.51.273 7.713.894 2.207.625 4.135 1.634 5.785 3.037 1.66 1.382 3.03 3.165 4.135 5.317 1.097 2.165 2.065 4.696 2.89 7.62l51.653 151.98.69-.006 53.718-152.64c1.01-3.265 2.11-6.045 3.31-8.342 1.19-2.286 2.494-4.132 3.923-5.494 1.424-1.373 3.003-2.373 4.747-2.988 1.74-.617 3.765-.94 6.056-.96l15.017-.164c1.374-.018 2.688.22 3.923.69a7.824 7.824 0 0 1 3.17 2.24c.874 1.024 1.592 2.32 2.142 3.89.55 1.56.824 3.49.824 5.77v193.723zM247.712 259.26c.002.874-.183 1.607-.554 2.207-.365.59-.964 1.12-1.787 1.564-.83.445-1.973.787-3.446 1.013-1.468.235-3.347.362-5.64.394-2.213.018-4.045-.065-5.516-.27-1.47-.203-2.638-.512-3.51-.936-.878-.428-1.47-.934-1.795-1.53-.318-.595-.48-1.322-.48-2.19V112.99c0-.758.162-1.465.482-2.12.324-.653.918-1.2 1.792-1.645.876-.447 2.04-.794 3.51-1.014 1.472-.232 3.307-.36 5.516-.382 2.294-.03 4.173.057 5.64.257 1.474.2 2.617.514 3.448.943.824.422 1.423.96 1.788 1.61.37.65.554 1.344.556 2.105l-.002 146.518zm2.62-196.038c-.003 6.3-1.018 10.594-3.042 12.892-2.012 2.307-5.734 3.484-11.148 3.547-5.33.064-8.977-1.015-10.953-3.218-1.97-2.197-2.963-6.397-2.96-12.585 0-6.297 1.01-10.585 3.027-12.894 2.023-2.302 5.744-3.485 11.155-3.542 5.335-.06 8.982 1.014 10.953 3.22 1.972 2.202 2.964 6.4 2.967 12.582zM358.967 226.706c0 .875-.186 1.6-.552 2.203-.365.587-.965 1.122-1.792 1.564-.823.45-1.964.788-3.442 1.014-1.468.238-3.302.36-5.51.386-2.295.026-4.174-.062-5.643-.262-1.47-.203-2.617-.51-3.445-.938-.828-.427-1.426-.942-1.79-1.533-.365-.586-.552-1.316-.552-2.184V141.16c0-8.352-.55-15.08-1.653-20.167-1.1-5.092-2.706-9.468-4.817-13.132-2.115-3.667-4.848-6.457-8.2-8.378-3.353-1.91-7.235-2.848-11.645-2.797-5.687.06-11.375 2.503-17.072 7.352-5.69 4.827-11.66 11.9-17.902 21.194v102.394c0 .87-.18 1.606-.555 2.208-.368.595-.962 1.122-1.788 1.565-.827.444-1.977.78-3.448 1.012-1.467.237-3.35.365-5.644.39-2.206.024-4.044-.065-5.51-.264-1.47-.203-2.642-.515-3.513-.936-.877-.435-1.467-.944-1.794-1.532-.318-.59-.48-1.323-.48-2.194V81.356c0-.865.14-1.6.41-2.194.282-.606.832-1.155 1.655-1.656.825-.494 1.88-.832 3.167-1.003 1.288-.182 2.99-.276 5.1-.302 2.014-.023 3.696.042 5.025.19 1.332.142 2.362.467 3.096.934.74.49 1.266 1.023 1.584 1.614.326.597.485 1.33.485 2.19l-.002 19.38c6.98-9.3 13.934-16.137 20.872-20.5 6.932-4.36 13.935-6.578 21.002-6.66 8.27-.094 15.225 1.488 20.87 4.735 5.642 3.25 10.213 7.617 13.705 13.12 3.488 5.503 5.985 11.952 7.504 19.37 1.514 7.423 2.273 16.337 2.273 26.76v89.373zM392.272 254.452c0 .874-.183 1.618-.55 2.212-.366.597-.965 1.12-1.792 1.573-.826.44-1.973.777-3.447 1.01-1.47.234-3.346.364-5.643.376-2.203.032-4.042-.048-5.51-.253-1.473-.203-2.643-.515-3.517-.936-.87-.432-1.464-.94-1.787-1.53-.315-.593-.48-1.322-.48-2.196V108.19c0-.758.162-1.465.482-2.117.32-.66.915-1.2 1.79-1.65.87-.445 2.04-.788 3.51-1.018 1.47-.223 3.31-.353 5.512-.383 2.297-.017 4.173.063 5.647.266 1.474.2 2.617.51 3.44.938.83.43 1.427.958 1.794 1.606.367.65.552 1.346.552 2.11v146.51zm2.617-196.028c-.003 6.298-1.012 10.595-3.03 12.892-2.027 2.302-5.742 3.488-11.158 3.55-5.33.048-8.98-1.02-10.954-3.218-1.972-2.21-2.957-6.403-2.96-12.59 0-6.292 1.008-10.592 3.03-12.89 2.02-2.3 5.74-3.49 11.162-3.545 5.328-.06 8.97 1.01 10.95 3.214 1.972 2.203 2.957 6.4 2.96 12.587z" fill="#000"/><path d="M466.89 19.473c0 2.062-.09 3.727-.273 4.968-.185 1.257-.39 2.257-.617 3.02-.235.757-.53 1.278-.896 1.554-.372.283-.827.415-1.38.427-.64 0-1.44-.232-2.408-.708a61.554 61.554 0 0 0-3.512-1.59c-1.376-.584-3.013-1.107-4.892-1.572-1.88-.473-4.064-.69-6.54-.662-3.4.036-6.297.718-8.683 2.047-2.385 1.324-4.31 3.383-5.782 6.174-1.47 2.774-2.53 6.362-3.168 10.774-.647 4.407-.97 9.75-.964 16.047l-.003 15.95 27.69-.302c.732-.012 1.35.17 1.858.55.505.372.965 1.023 1.38 1.937.412.924.735 2.08.962 3.495.227 1.403.34 3.137.34 5.197.004 3.914-.41 6.738-1.237 8.478-.827 1.756-1.927 2.636-3.305 2.65l-27.687.304.003 128.44c-.006.868-.19 1.606-.556 2.21-.365.59-.982 1.122-1.853 1.564-.87.447-2.043.78-3.515 1.014-1.473.238-3.302.362-5.507.388-2.2.024-4.042-.064-5.516-.267-1.464-.2-2.635-.516-3.503-.933-.883-.427-1.502-.945-1.865-1.53-.362-.59-.55-1.323-.55-2.194L404.91 98.46l-17.495.192c-1.46.012-2.573-.84-3.308-2.573-.736-1.733-1.097-4.55-1.094-8.456-.003-2.056.083-3.797.27-5.21.186-1.416.457-2.58.824-3.507.374-.933.83-1.587 1.385-1.975.554-.384 1.198-.58 1.923-.587l17.494-.19v-15.14c0-10.205.802-18.978 2.417-26.323 1.6-7.342 4.055-13.366 7.367-18.07 3.303-4.698 7.456-8.19 12.46-10.47 5-2.284 10.907-3.457 17.698-3.537a41.167 41.167 0 0 1 9.37.96c3.028.672 5.37 1.405 7.025 2.205 1.653.8 2.753 1.514 3.3 2.164.554.642 1.013 1.483 1.38 2.494.365 1.036.617 2.277.758 3.747.14 1.46.206 3.22.206 5.288z" fill="#000"/><path d="M463.688 250.99c0 .87-.188 1.606-.556 2.206-.364.594-.957 1.118-1.79 1.565-.824.445-1.97.78-3.444 1.01-1.464.24-3.347.37-5.645.388-2.202.03-4.044-.06-5.508-.26-1.473-.205-2.646-.516-3.512-.937-.88-.428-1.47-.94-1.79-1.528-.324-.595-.482-1.32-.485-2.197V104.717c0-.758.16-1.458.484-2.124.322-.646.912-1.19 1.79-1.643.867-.44 2.043-.786 3.513-1.013 1.467-.228 3.306-.355 5.512-.378 2.29-.025 4.177.058 5.64.255 1.47.197 2.618.51 3.447.94.827.423 1.427.96 1.79 1.606.37.65.554 1.352.55 2.113l.004 146.518zm2.615-196.036c0 6.29-1.012 10.59-3.03 12.897-2.026 2.298-5.74 3.476-11.16 3.54-5.325.06-8.97-1.013-10.95-3.216-1.967-2.205-2.962-6.396-2.962-12.59 0-6.294 1.01-10.59 3.034-12.892 2.014-2.305 5.74-3.487 11.16-3.543 5.327-.058 8.97 1.014 10.95 3.217 1.97 2.2 2.96 6.396 2.96 12.587zM567.204 233.332c-1.288-.21-2.34-.494-3.167-.87-.827-.362-1.427-.87-1.797-1.524-.365-.638-.548-1.397-.548-2.267V209.3c-4.558 5.892-9.234 10.884-14.036 14.974-.322-1.077-.783-2.224-1.39-3.446-1.95-3.892-6.134-7.866-9.845-11.757a37.7 37.7 0 0 0 3.232-2.3c2.942-2.312 6.02-5.303 9.235-8.972 3.213-3.67 6.613-8.19 10.188-13.545V125.65c-.078-.116-.16-.23-.238-.346.012-9.68.847-20.157.235-28.31-2.938-3.49-1.464-1.8.003 0l-.003-85.138c.012-.765.168-1.5.488-2.2.318-.715.94-1.265 1.856-1.65.92-.4 2.09-.735 3.518-1.017 1.42-.293 3.238-.45 5.435-.472 2.3-.02 4.178.094 5.65.35 1.466.253 2.613.56 3.442.935.824.377 1.444.912 1.862 1.606.406.696.618 1.437.618 2.196v216.84c0 .872-.16 1.633-.486 2.283-.314.652-.873 1.173-1.65 1.57-.782.385-1.81.694-3.1.923-1.282.24-2.846.36-4.682.383-1.926.017-3.534-.07-4.82-.274z" fill="#000"/><path d="M494.164 229.797c-6.368-4.064-11.924-10.476-15.597-17.593-3.953-6.997-6.34-15.13-7.444-21.232-2.232-10.73-3.456-21.637-3.26-32.472l.016-1.058c-.004-12.465 1.202-23.786 3.47-33.858 2.28-10.09 5.638-18.687 10.1-25.828 4.464-7.153 9.984-12.662 16.58-16.55 6.586-3.882 14.21-5.9 22.856-5.993 7.18-.072 13.982 1.146 20.248 5.104 21.16 13.365 36.396 33.364 36.95 63.278V154.9c0 2.327-3.068 4.27-5.504 4.297l-13.58-.03H491.86c0 2.036.44 13.02.92 16.503.95 6.985 2.544 13.176 4.915 18.58 2.353 5.402 4.803 10.064 8.723 13.3 3.91 3.24 9.353 5.72 15.27 5.657 2.994-.03 7.144-.81 9.923-1.797 2.772-1 5.367-2.777 8.272-5.065 2.912-2.293 9.838-9.773 11.217-11.22 3.93-4.068 12.7 12.702 9.116 16.08-5.926 7.31-11.613 13.122-17.957 17.404-6.957 4.69-15.95 7.905-24.23 7.996-9.002.1-17.575-2.655-23.866-6.81zm-2.042-86.334l66.79-.62c.034-.37.064-.745.087-1.11a289.895 289.895 0 0 0-.087-6.855c-.87-8.833-4.664-15.217-9.147-20.926-.452-.488-.9-.98-1.35-1.48-1.25-1.603-2.587-2.993-4.043-4.193a63.528 63.528 0 0 0-3.773-3.352c-5.686-4.61-11.408-6.563-17.593-6.54-.818.012-1.965.118-2.733.187-.344-.025-6.123 1.098-8.53 2.956-4.22 2.543-7.648 6.023-10.498 10.184-1.28 1.94-2.274 4.085-3.3 6.25-2.103 4.932-3.674 10.108-4.685 16.073l-1.138 9.426" fill="#ff8200"/></g></svg>