<svg width="110" height="110" viewBox="0 0 110 110" xmlns="http://www.w3.org/2000/svg"><g fill="#47848F" fill-rule="evenodd"><path d="M40.224 24.29c-14.178-2.58-25.395.123-29.87 7.873-3.34 5.785-2.385 13.45 2.31 21.636a1.5 1.5 0 0 0 2.602-1.494c-4.214-7.35-5.034-13.932-2.313-18.644 3.694-6.398 13.66-8.8 26.733-6.42a1.5 1.5 0 1 0 .538-2.952zm-20.19 39.453c5.728 6.296 13.17 12.2 21.658 17.1 20.556 11.87 42.44 15.04 53.237 7.68a1.5 1.5 0 1 0-1.69-2.48c-9.63 6.567-30.383 3.557-50.05-7.796-8.225-4.75-15.424-10.46-20.94-16.522a1.5 1.5 0 1 0-2.22 2.02zm84.926 19.723a6.998 6.998 0 1 0-13.996 0 6.998 6.998 0 0 0 13.996 0zm-3 0a3.998 3.998 0 1 1-7.996 0 3.998 3.998 0 0 1 7.996 0z"/><path d="M91.5 61.975c9.284-10.967 12.528-22.003 8.062-29.738-3.286-5.692-10.23-8.695-19.45-8.815a1.5 1.5 0 0 0-.04 3c8.265.107 14.217 2.682 16.892 7.315 3.686 6.385.805 16.19-7.753 26.3a1.5 1.5 0 1 0 2.29 1.938zm-23.875-37.2c-8.388 1.797-17.316 5.31-25.89 10.26C20.515 47.29 6.67 65.355 8.595 78.47a1.5 1.5 0 1 0 2.968-.437C9.86 66.435 22.96 49.34 43.235 37.633c8.31-4.796 16.945-8.195 25.02-9.925a1.5 1.5 0 1 0-.63-2.933z"/><path d="M33.238 87.553c4.854 13.554 12.8 21.903 21.742 21.903 6.523 0 12.555-4.444 17.255-12.263a1.5 1.5 0 0 0-2.57-1.545c-4.21 7.002-9.377 10.808-14.685 10.808-7.383 0-14.443-7.42-18.918-19.914a1.5 1.5 0 1 0-2.824 1.01zm44.372-2.65c2.51-8.024 3.86-17.28 3.86-26.926 0-24.073-8.427-44.828-20.44-50.163a1.5 1.5 0 1 0-1.22 2.742c10.676 4.74 18.66 24.404 18.66 47.42 0 9.35-1.305 18.304-3.723 26.03a1.5 1.5 0 1 0 2.863.897zm27.35-1.437a6.998 6.998 0 1 0-13.996 0 6.998 6.998 0 0 0 13.996 0zm-3 0a3.998 3.998 0 1 1-7.996 0 3.998 3.998 0 0 1 7.996 0zm-90.062 6.998a6.998 6.998 0 1 0 0-13.995 6.998 6.998 0 0 0 0 13.993zm0-3a3.998 3.998 0 1 1 0-7.995 3.998 3.998 0 0 1 0 7.993z"/><path d="M54.98 14.995A6.998 6.998 0 1 0 54.98 1a6.998 6.998 0 0 0 0 13.995zm0-3a3.998 3.998 0 1 1 0-7.995 3.998 3.998 0 0 1 0 7.995zm1.06 50.897z"/></g></svg>