<?xml version="1.0" encoding="utf-8"?>
<!-- Generator: Adobe Illustrator 13.0.0, SVG Export Plug-In . SVG Version: 6.00 Build 14948)  -->
<!DOCTYPE svg PUBLIC "-//W3C//DTD SVG 1.0//EN" "http://www.w3.org/TR/2001/REC-SVG-20010904/DTD/svg10.dtd">
<svg version="1.0" id="Layer_1" xmlns="http://www.w3.org/2000/svg" xmlns:xlink="http://www.w3.org/1999/xlink" x="0px" y="0px"
	 width="192.756px" height="192.756px" viewBox="0 0 192.756 192.756" enable-background="new 0 0 192.756 192.756"
	 xml:space="preserve">
<g>
	<polygon fill-rule="evenodd" clip-rule="evenodd" fill="#FFFFFF" points="0,0 192.756,0 192.756,192.756 0,192.756 0,0 	"/>
	<path fill-rule="evenodd" clip-rule="evenodd" fill="#808285" d="M12.462,92.6c1.419-0.731,2.898-1.32,4.364-1.91
		c0.365-0.205-0.104-0.336-0.201-0.493c-1.068-0.932-2.419-2.193-1.933-3.687c0.763-1.355,2.295-2.377,3.41-3.541
		c1.434-1.153,3.339-2.239,5.132-1.206c1.23,0.669,0.938,2.13,1.931,2.983c0.903,0.901,1.765,1.89,1.514,3.212
		c-0.721,2.354-3.315,1.92-4.985,2.873l-0.002,0.064c0.873,0.657,1.507,1.561,1.418,2.658c-0.782,4.131-3.088,7.582-4.776,11.311
		c0.007,0.166-0.064,0.367,0.072,0.5c0.791,0.438,1.845,0.295,2.443,1.121c0.564,0.709,0.701,1.572,0.838,2.42
		c-0.008,0.602-0.379,0.984-0.838,1.328c-1.067,0.514-2.275,0.676-3.435,0.93c-1.672,0.264-3.367,0.461-5.063,0.684
		c-0.476,0.074-0.945-0.045-1.308-0.287c-0.761-0.936-1.762-1.955-1.208-3.176c1.051-2.664,2.907-4.939,3.819-7.672
		c0.132-0.482,0.216-1.055,0.118-1.557c-0.308-0.715-1.146-0.5-1.735-0.494c-0.914,0.172-2.024,0.096-2.884-0.189
		c-0.488-0.682-0.729-1.482-0.623-2.349C9.037,94.363,11.014,93.407,12.462,92.6L12.462,92.6z"/>
	<path fill-rule="evenodd" clip-rule="evenodd" fill="#1C449C" d="M11.315,95.452c1.543-0.983,3.262-1.5,4.839-2.354
		c1.229-0.418,2.43-1.119,3.841-0.853c0.528,0.261,0.815,0.834,0.873,1.386c0.163,1.605-0.635,2.856-1.155,4.195
		c-1.526,3.094-3.38,6.049-4.591,9.295c-0.006,0.166-0.011,0.318,0.113,0.438c0.908,0.377,2.053,0.174,3.063,0.195
		c0.266,0.086,0.527,0.312,0.646,0.572c0.079,0.297-0.119,0.482-0.328,0.629c-0.906,0.301-1.882,0.408-2.835,0.619
		c-1.164-0.016-3.054,0.637-3.604-0.867c-0.099-0.848,0.372-1.508,0.639-2.215c1.275-2.873,3.32-5.426,3.222-8.883
		c-0.108-0.58-0.149-1.233-0.712-1.598c-1.483-0.767-2.624,1.15-4.062,0.206C11.053,96.005,11.168,95.639,11.315,95.452
		L11.315,95.452z"/>
	<path fill-rule="evenodd" clip-rule="evenodd" fill="#1C449C" d="M19.49,84.643c0.583-0.582,1.235-1.71,2.161-1.461
		c0.928,0.543,1.043,1.661,1.292,2.59c0.619,0.61,1.99,0.9,1.656,2.053c-0.061,0.267-0.271,0.451-0.42,0.664
		c-0.812,0.177-1.634,0.289-2.445,0.44c-1.312,0.21-3.242,0.912-4.312-0.328c-0.334-0.318-0.331-0.804-0.304-1.212
		C17.578,86.303,18.715,85.588,19.49,84.643L19.49,84.643z"/>
	<path fill-rule="evenodd" clip-rule="evenodd" fill="#808285" d="M27.69,103.959c0.399-1.203,0.874-2.35,1.198-3.58
		c0.152-0.326,0.096-0.527-0.127-0.771c1.337-1.311,2.019-2.911,3.469-4.179c0.248-0.145,0.51-0.328,0.802-0.254
		c0.358,0.371,0.249,0.955,0.194,1.426c-0.357,2.202-1.029,4.262-1.475,6.422l0.174,0.133c2.001-0.891,3.919-2,5.931-2.84
		c1.401-0.578,2.523-1.947,4.064-2.125c0.295-0.016,0.533,0.146,0.665,0.381c0.341,0.869-0.069,2.02,0.453,2.818
		c0.425,1.395,1.987,1.359,3.174,1.451c0.846-0.061,1.669-0.186,2.388-0.621c0.245-0.043,0.529-0.135,0.768,0
		c0.211,0.174,0.114,0.4-0.02,0.576c-1.27,0.838-2.669,1.367-3.975,2.115c-0.899,0.492-1.776,1.064-2.665,1.621
		c-1.6-0.336-2.516,1.373-4.028,1.09c-0.238-0.148-0.449-0.336-0.555-0.607c-0.092-1.039,0.192-2.258,0.012-3.338
		c-0.095-0.221-0.392-0.129-0.572-0.109c-1.317,0.363-2.447,1.221-3.718,1.74c-2.015,0.941-3.96,2.09-5.906,3.238
		c-0.546,0.275-1.208,0.547-1.851,0.268c-0.375-0.256-0.05-0.768,0.001-1.139C26.494,106.387,27.161,105.207,27.69,103.959
		L27.69,103.959z"/>
	<path fill-rule="evenodd" clip-rule="evenodd" fill="#808285" d="M49.351,107.158c1.689-3.74,3.341-7.508,5.358-11.111
		c-0.03-0.244-0.109-0.528-0.375-0.601c-1.179-0.309-2.526-0.202-3.774-0.373c-0.151-0.069-0.315-0.113-0.452-0.233
		c0.083-0.189,0.243-0.363,0.449-0.407c1.533-0.331,3.151-0.493,4.615-1.043c1.024-0.758,1.331-1.886,1.903-2.876
		c1.038-2.28,2.126-4.545,3.428-6.7c0.741-0.716,1.585-1.468,2.437-2.065c0.481,0.132,1.152-0.012,1.36,0.635
		c0.317,0.433-0.008,0.972-0.15,1.402c-1.406,2.19-1.262,5.086-2.793,7.208c-0.444,0.637-1.133,0.946-1.816,1.102
		c-0.387,0.447-0.559,0.991-0.643,1.577c0.296,0.317,0.717,0.345,1.125,0.384c2.245,0.192,4.341-0.158,6.519-0.236
		c0.522,0.082,1.097,0.088,1.453,0.536c0.004,0.231,0.251,0.495-0.023,0.678c-0.424,0.42-1.011,0.374-1.516,0.562
		c-2.532,0.361-5.158,0.462-7.842,0.409c-0.743,0.013-1.155,0.843-1.581,1.327c-1.998,2.668-2.912,5.822-3.94,8.945
		c-0.345,1.115-0.577,2.271-0.783,3.441c0.357,0.023,0.65-0.311,0.964-0.518c1.705-1.592,3.248-3.316,4.689-5.059
		c0.774-0.574,1.524-1.176,2.38-1.516c0.617-0.094,1.174,0.078,1.582,0.488c0.375,0.613-0.205,1.119-0.452,1.609
		c-2.453,2.883-5.575,5.143-8.655,6.916c-1.252,0.713-2.716,0.867-3.98,1.553c-0.141-0.018-0.258,0.043-0.397,0.012
		c-0.746-1.023-0.27-2.58-0.001-3.684L49.351,107.158L49.351,107.158z"/>
	<path fill-rule="evenodd" clip-rule="evenodd" fill="#808285" d="M67.699,98.463c1.334-1.604,2.28-3.438,4.128-4.744
		c0.974-0.798,2.27-1.636,3.473-0.929c0.832,0.361,1.687,1.184,1.95,2.062c0.113,1.564-0.659,2.792-1.668,3.882
		c0.463-0.1,0.91-0.441,1.379-0.668c1.093-0.539,2.009-1.53,3.139-2.003c0.349-0.09,0.809-0.087,1.095,0.153
		c0.174,0.146,0.164,0.44,0.105,0.656c-0.208,0.453-0.727,0.665-1.083,0.999c-3.667,2.496-7.757,3.891-11.542,6.088
		c-0.654,0.426-0.808,1.176-0.706,1.934c0.103,0.361,0.238,0.891,0.71,0.92c1.236,0.145,2.292-0.434,3.308-0.961
		c2.084-1.092,4.074-2.406,5.947-4.068c0.455-0.201,0.932-0.697,1.483-0.346c0.307,0.381-0.067,0.83-0.22,1.195
		c-1.363,1.705-3.22,2.883-4.962,4.062c-1.843,1.141-3.697,2.24-5.774,2.744c-1.089,0.064-2.099,0.389-3.207,0.262
		c-0.752-0.449-1.583-1.207-1.55-2.164C63.863,104.012,65.889,101.268,67.699,98.463L67.699,98.463L67.699,98.463z M70.062,100.412
		c1.193-0.482,2.344-1.186,3.301-2.252c0.708-0.885,1.443-1.805,1.357-3.023c-0.069-0.22-0.295-0.343-0.511-0.389
		c-0.245,0.055-0.431,0.267-0.629,0.439C72.433,96.938,71.134,98.633,70.062,100.412L70.062,100.412z"/>
	<path fill-rule="evenodd" clip-rule="evenodd" fill="#808285" d="M82.048,102.641c0.478-1.621,0.969-3.24,1.572-4.807
		c0.566-0.85,1.494-1.419,2.283-2.032c0.313-0.181,0.717-0.026,1.048,0.036c0.319,0.382,1.291,0.416,0.97,1.172
		c-0.967,2.09-2.224,4.043-2.952,6.244l0.127,0.004c1.845-1.189,3.697-2.982,4.834-4.797c0.928-1.324,2.313-3.285,4.183-2.991
		c1.306,0.339,2.383,1.745,2.569,3.03c0.031,0.232-0.128,0.381-0.298,0.49c-1.184,0.586-2.771-0.506-3.791,0.508
		c-1.358,1.195-2.24,2.66-3.448,3.938c-1.413,1.664-3.166,3.152-4.591,4.818c-0.987,0.822-1.941,1.775-3.2,1.91
		c-0.242-0.033-0.484-0.068-0.657-0.24c-0.645-0.969-0.333-2.236-0.041-3.289L82.048,102.641L82.048,102.641z"/>
	<path fill-rule="evenodd" clip-rule="evenodd" fill="#808285" d="M183.457,101.791c-0.906,0.15-1.641-0.326-2.51-0.367
		l-0.344,0.131c-3.096,3.182-6.25,6.709-9.645,9.434c-0.824,0.471-1.732,1.607-2.752,0.838c-0.414-0.441-0.281-1.158-0.146-1.686
		c1.076-2.928,1.783-5.99,2.809-8.93c0.334-1.078,1.438-1.783,2.246-2.547c0.73-0.902,1.75-0.059,2.521,0.188
		c0.154,0.152-0.021,0.334-0.059,0.488c-1.098,2.262-2.352,4.451-3.359,6.764c0.115,0.076,0.203-0.092,0.305-0.131
		c2.166-1.791,4.455-3.863,6.039-6.17c0.961-0.92,1.92-2.004,3.316-1.701c0.846,0.195,1.33,1.07,1.924,1.664
		c0.098,0.562,0.768,1.104,0.264,1.686L183.457,101.791L183.457,101.791z"/>
	<path fill-rule="evenodd" clip-rule="evenodd" fill="#808285" d="M167.832,100.568c-3.541,2.254-7.383,3.807-11.068,5.717
		c-0.479,0.594-0.713,1.326-0.588,2.117c0.143,0.291,0.352,0.596,0.672,0.707c1.33-0.016,2.514-0.541,3.617-1.154
		c2.059-1.047,3.986-2.412,5.9-3.816c0.344-0.131,0.633-0.48,1.07-0.318c0.154,0.074,0.385,0.137,0.439,0.34
		c0.143,1.342-1.408,2.012-2.27,2.75c-2.512,1.705-4.996,3.434-7.705,4.668c-1.262,0.309-2.537,0.58-3.893,0.66
		c-0.832-0.094-1.758-0.619-2.012-1.486c-0.096-1.66,0.615-3.088,1.084-4.576c1.488-3.893,3.99-7.564,7.42-10.495
		c0.748-0.571,1.842-0.993,2.781-0.519c1.018,0.743,2.066,1.74,1.877,3.136c0.041,1.188-0.717,2.066-1.436,2.957l0.09-0.002
		c1.348-0.604,2.539-1.562,3.756-2.498c0.471-0.172,1.107-0.346,1.621-0.109c0.207,0.164,0.133,0.408,0.072,0.613
		C168.91,99.801,168.365,100.268,167.832,100.568L167.832,100.568L167.832,100.568z M162.836,98.633
		c0.059-0.475,0.166-1.025-0.232-1.354c-0.373-0.109-0.639,0.213-0.916,0.42c-1.564,1.873-2.701,3.982-4.139,5.842
		c1.514-0.76,2.998-1.635,4.209-3.055C162.275,99.93,162.537,99.275,162.836,98.633L162.836,98.633z"/>
	<path fill-rule="evenodd" clip-rule="evenodd" fill="#808285" d="M154.639,85.446c-1.646,3.497-3.523,6.895-4.939,10.491
		c-2.277,5.308-4.117,10.8-7.576,15.649c-0.643,0.799-1.426,1.551-2.369,1.766c-0.166-0.01-0.346-0.086-0.438-0.238
		c0.072-0.422-0.01-0.791,0.049-1.227c3.049-3.91,4.297-8.553,5.83-13.072c2.199-6.38,3.359-13.157,8.619-18.307
		c0.506-0.428,0.998-0.855,1.584-1.093c0.281-0.042,0.512,0.033,0.705,0.184c0.324,0.329,0.139,0.842,0.105,1.251
		C155.844,82.44,155.248,83.943,154.639,85.446L154.639,85.446z"/>
	<path fill-rule="evenodd" clip-rule="evenodd" fill="#808285" d="M151.693,105.578c-1.703,0.928-3.168,2.492-4.66,3.852
		c-1.016,0.652-2.305,0.859-3.572,0.721l-0.002-0.219c2.168-1.674,4.215-3.59,6.25-5.596c0.482-0.326,0.896-0.932,1.525-0.811
		l1.014,0.32c0.184,0.344-0.068,0.73-0.205,1.051C151.969,105.141,151.844,105.373,151.693,105.578L151.693,105.578z"/>
	<path fill-rule="evenodd" clip-rule="evenodd" fill="#808285" d="M141.145,101.279c-1.938,0.42-3.955,0.66-5.275,2.492
		c-2.547,3.02-5.309,6.225-8.848,7.557c-0.66,0.303-1.518,0.262-2.174-0.039c-0.812-0.654-0.928-1.777-0.773-2.752
		c0.266-1.332,0.658-2.641,0.783-3.998c-0.051-0.025-0.078-0.113-0.154-0.088l0.025-0.025c-0.18-0.1-0.461-0.072-0.664-0.029
		c-0.473,0.057-1.072,0.217-1.359-0.229l0.023-0.217c1.586-2.078,3.547-3.865,5.838-4.787c0.611-0.225,1.361-0.451,1.967-0.061
		c0.195,0.201,0.262,0.494,0.189,0.764c-0.336,0.873-1.471,1.131-1.729,2.055c-0.277,1.422-0.59,3.1,0.002,4.5
		c0.209,0.305,0.555,0.414,0.889,0.488c0.727-0.252,1.373-0.682,1.98-1.162l-0.002-0.09c1.201-1.254,2.053-2.811,1.635-4.557
		c-0.221-0.279-0.527-0.352-0.836-0.426c-0.617-0.236-1.359-0.305-1.75-0.988c-0.08-0.242-0.02-0.512,0.043-0.742
		c0.693-0.828,1.961-0.625,2.971-0.586c1.574,0.059,2.674,1.299,4.311,1.203c1.268,0.139,2.479-0.184,3.721-0.006
		c0.27,0.137,0.654,0.285,0.646,0.67C142.639,101.045,141.68,101.055,141.145,101.279L141.145,101.279z"/>
	<path fill-rule="evenodd" clip-rule="evenodd" fill="#808285" d="M125.395,100.238c-1.621,1.221-3.967,0.736-5.471,2.186
		c-2.174,2.238-4.098,4.959-6.646,6.766c-1.141,0.818-2.32,1.574-3.658,1.973c-0.92,0.088-1.768-0.336-2.211-1.111
		c-0.662-1.896,0.377-3.66,0.729-5.43c0.061-0.281,0.031-0.602-0.227-0.764c-0.17-0.215-0.383,0.004-0.576,0.006
		c-0.457,0.197-0.941,0.357-1.439,0.479c-0.152-0.037-0.283-0.189-0.311-0.342c0.029-0.844,0.777-1.402,1.318-2.035
		c1.797-1.594,3.594-3.188,5.916-3.51c0.396-0.029,0.744,0.094,0.953,0.449c0.234,0.471-0.221,0.795-0.408,1.168
		c-1.48,1.322-2.125,3.055-1.91,4.971c0.172,0.535,0.588,1.195,1.217,1.303c0.484-0.057,0.996-0.115,1.336-0.451
		c-0.012-0.037-0.051-0.025-0.09-0.023c1.398-0.695,2.648-2.115,2.873-3.652c0.068-0.717,0.047-1.471-0.484-1.963
		c-0.529-0.43-1.256-0.344-1.811-0.721c-0.195-0.268-0.402-0.584-0.318-0.941c0.83-1.213,2.688-0.967,3.98-0.752
		c0.783,0.299,1.443,0.904,2.312,1.01c1.615,0.352,3.373-0.271,4.877,0.352C125.73,99.428,125.775,99.99,125.395,100.238
		L125.395,100.238z"/>
	<path fill-rule="evenodd" clip-rule="evenodd" fill="#808285" d="M107.492,96.587c-0.727,0.303-1.424,0.771-2.137,1.036
		c-1.145-0.549-2.455-0.061-3.303,0.779c-2.107,2.301-4.047,4.729-5.102,7.477c-0.334,0.949-0.706,1.926-0.578,3.023
		c0.065,0.127,0.169,0.279,0.311,0.355c0.564,0.107,1.021-0.23,1.503-0.441c1.982-1.07,3.969-2.781,5.314-4.754
		c0.24-0.182,0.428-0.568,0.787-0.381c0.283,0.164,0.467,0.455,0.342,0.789c-0.715,2.232-2.637,4.02-4.434,5.666
		c-1.051,0.869-2.129,1.648-3.547,1.639c-1.016,0.602-2.284,1.498-3.52,0.719c-0.723-0.656-0.173-1.672-0.4-2.514
		c-0.093-0.318-0.123-0.662-0.369-0.916c0.31-0.848,0.786-1.633,1.134-2.467c1.088-2.084,1.238-4.541,3.173-6.291
		c0.631-1.809,2.431-3.121,4.07-3.921c2.473-1.78,5.168-3.142,8.469-2.925c0.217-0.002,0.422,0.11,0.553,0.275
		c0.33,0.878-0.494,1.553-1.113,2.135L107.492,96.587L107.492,96.587z"/>
</g>
</svg>
